<?xml version="1.0" encoding="UTF-8"?>
<svg id="Layer_2" data-name="Layer 2" xmlns="http://www.w3.org/2000/svg" viewBox="0 0 204.86 183.2">
  <defs>
    <style>
      .cls-1 {
        fill: currentColor;
      }
    </style>
  </defs>
  <g id="Layer_1-2" data-name="Layer 1">
    <g>
      <path class="cls-1" d="M169.48,83.03c-4.31-35.74-37.8-61.34-74.79-57.18-37,4.16-63.49,36.52-59.18,72.26l17.1-7.32c30.65-17.77,36.79-53.31,36.79-53.31,0,0,16.68,37.6,65.92,46.31,4.7,.83,9.54,.55,14.13-.75h.03Z"/>
      <path class="cls-1" d="M172.68,32.4c-9.6-11.88-20.96-19.55-32.04-24.49C111.12-5.24,76.84-1.73,50.13,16.44,8.3,44.88,8.82,93.89,8.82,93.89c-7.16,1.26-8.82,13.09-8.82,13.09v33.59c5.33,15.98,26.63,10.65,26.63,10.65v-62.63c0-13.69,3.5-27.22,10.51-38.98C60.75,10.04,105.6,16.52,105.6,16.52c0,0,40.17,3.22,58.83,30.59l2.49,3.73c7.02,11.76,11.31,23.93,11.31,37.62v62.63s21.3,5.33,26.63-10.65v-33.59s-1.67-11.83-8.82-13.09c0,0,.52-49-41.3-77.44"/>
      <path class="cls-1" d="M178.23,151.09c.12,16.9-2.49,16.1-2.49,16.1H89.07v15.98h81.35c22,.79,23.25-11.65,23.25-11.65l1.24-22.39"/>
      <circle class="cls-1" cx="144.96" cy="99.55" r="7.99"/>
      <circle class="cls-1" cx="67.99" cy="99.55" r="7.99"/>
    </g>
  </g>
</svg>