<?xml version="1.0" encoding="UTF-8"?>
<svg id="Layer_2" data-name="Layer 2" xmlns="http://www.w3.org/2000/svg" viewBox="0 0 208.65 130.8">
  <defs>
    <style>
      .cls-1 {
        fill: #6d0b77;
      }
    </style>
  </defs>
  <g id="Layer_1-2" data-name="Layer 1">
    <g>
      <path class="cls-1" d="M173.84,61.71c-1.45-.17-2.65-1.22-2.99-2.64-1.45-6.2-7.9-18.05-8.58-19.3-.04-.07-.08-.15-.11-.22-3.14-7.01-9.31-6.62-9.31-6.62h-16.78c-1.93,0-3.5-1.57-3.5-3.5V11.36C132.58,.22,122.07,.22,122.07,.22h-47.87L9.35,0c-.32,0-.63,.04-.94,.13C6.52,.65,0,3.01,0,10.25V104.73c0,7.25,6.53,9.6,8.41,10.12,.3,.08,.61,.13,.93,.13H44.24c.94,0,1.86-.37,2.5-1.05,1.61-1.72,.93-3.05,.07-3.85-.62-.59-1.47-.89-2.33-.89H11.59c-3.51,0-4.81-3.05-5.2-4.34-.1-.32-.14-.66-.14-1V11.13c0-.34,.05-.67,.14-1,.39-1.29,1.69-4.34,5.2-4.34l66.4,.45h42.78c5.79,0,5.35,5.35,5.35,5.35V105.69c0,1.93-1.57,3.5-3.5,3.5h-13.88c-1.18,0-2.32,.57-2.93,1.58-.57,.95-.43,1.8-.06,2.5,.59,1.09,1.77,1.71,3.01,1.71h20.92c2.01,0,2.68-1.56,2.84-3.12,.19-1.79,1.75-3.12,3.55-3.12h6.13c1.7,0,3.17-1.23,3.45-2.91,2.77-17.11,13.92-21.76,22.32-22.76,7.1-.84,14.3,1.07,19.87,5.55,6.95,5.59,8.87,12.85,9.39,16.88,.22,1.73,1.72,3.02,3.46,3.02h4.37c1.86,0,3.41-1.46,3.5-3.32,1.69-36.33-25.85-42.45-34.73-43.49Zm-33.46,.24v-20.34h8.99s7.09,8.3,10.86,20.34h-19.85Z"/>
      <path class="cls-1" d="M171.58,88.46c-11.69,0-21.17,9.48-21.17,21.17s9.48,21.17,21.17,21.17,21.17-9.48,21.17-21.17-9.48-21.17-21.17-21.17Zm0,29.41c-4.55,0-8.24-3.69-8.24-8.24s3.69-8.24,8.24-8.24,8.24,3.69,8.24,8.24-3.69,8.24-8.24,8.24Z"/>
      <path class="cls-1" d="M75.76,88.46c-11.69,0-21.17,9.48-21.17,21.17s9.48,21.17,21.17,21.17,21.17-9.48,21.17-21.17-9.48-21.17-21.17-21.17Zm0,29.41c-4.55,0-8.24-3.69-8.24-8.24s3.69-8.24,8.24-8.24,8.24,3.69,8.24,8.24-3.69,8.24-8.24,8.24Z"/>
      <g>
        <path class="cls-1" d="M64.06,40.13h-7.6l-1.06,3.58h-6.83l8.14-21.66h7.3l8.14,21.66h-7.01l-1.08-3.58Zm-1.39-4.68l-2.39-7.79-2.37,7.79h4.76Z"/>
        <path class="cls-1" d="M74.54,22.05h6.71v21.66h-6.71V22.05Z"/>
        <path class="cls-1" d="M8.4,66.8l6.37-.4c.14,1.03,.42,1.82,.84,2.36,.69,.88,1.67,1.32,2.96,1.32,.96,0,1.69-.22,2.21-.67,.52-.45,.78-.97,.78-1.56s-.25-1.06-.74-1.51c-.49-.44-1.63-.86-3.43-1.26-2.94-.66-5.03-1.54-6.28-2.63-1.26-1.09-1.89-2.49-1.89-4.18,0-1.11,.32-2.16,.97-3.15,.65-.99,1.62-1.77,2.91-2.33,1.29-.57,3.07-.85,5.33-.85,2.77,0,4.88,.51,6.33,1.54s2.32,2.67,2.59,4.91l-6.31,.37c-.17-.98-.52-1.68-1.06-2.13s-1.28-.67-2.22-.67c-.78,0-1.36,.17-1.76,.5-.39,.33-.59,.73-.59,1.2,0,.34,.16,.66,.49,.93,.32,.29,1.06,.55,2.25,.8,2.92,.63,5.02,1.27,6.29,1.91,1.27,.64,2.19,1.45,2.76,2.4,.58,.96,.86,2.02,.86,3.21,0,1.39-.38,2.67-1.15,3.84-.77,1.17-1.84,2.06-3.22,2.67-1.38,.61-3.12,.91-5.22,.91-3.68,0-6.23-.71-7.65-2.13-1.42-1.42-2.22-3.22-2.41-5.41Z"/>
        <path class="cls-1" d="M29.9,52.31h20.34v5.35h-6.83v16.31h-6.69v-16.31h-6.83v-5.35Z"/>
        <path class="cls-1" d="M53.26,52.31h17.94v4.62h-11.23v3.44h10.42v4.42h-10.42v4.27h11.55v4.91h-18.26v-21.66Z"/>
        <path class="cls-1" d="M88.44,70.39h-7.6l-1.06,3.58h-6.83l8.14-21.66h7.3l8.14,21.66h-7.01l-1.08-3.58Zm-1.39-4.68l-2.39-7.79-2.37,7.79h4.76Z"/>
        <path class="cls-1" d="M98.59,52.31h8.8l3.39,13.18,3.37-13.18h8.8v21.66h-5.48v-16.52l-4.22,16.52h-4.96l-4.22-16.52v16.52h-5.48v-21.66Z"/>
      </g>
    </g>
  </g>
</svg>