<?xml version="1.0" encoding="UTF-8"?>
<svg id="Layer_2" data-name="Layer 2" xmlns="http://www.w3.org/2000/svg" xmlns:xlink="http://www.w3.org/1999/xlink" viewBox="0 0 682.42 416.42">
  <defs>
    <style>
      .cls-1 {
        fill: url(#linear-gradient);
      }

      .cls-2, .cls-3 {
        fill: #fff;
      }

      .cls-4 {
        fill: #e40000;
      }

      .cls-5 {
        fill: #247eb3;
      }

      .cls-6 {
        fill: #424242;
      }

      .cls-7 {
        fill: #606060;
        stroke-linecap: round;
        stroke-linejoin: round;
      }

      .cls-7, .cls-3 {
        stroke: #000;
        stroke-width: 1.42px;
      }

      .cls-3 {
        stroke-miterlimit: 10;
      }
    </style>
    <linearGradient id="linear-gradient" x1="343.23" y1="360.17" x2="343.23" y2="429.4" gradientUnits="userSpaceOnUse">
      <stop offset="0" stop-color="#fff"/>
      <stop offset=".09" stop-color="#f1f1f1"/>
      <stop offset=".26" stop-color="#cdcdcd"/>
      <stop offset=".49" stop-color="#949494"/>
      <stop offset=".77" stop-color="#464646"/>
      <stop offset="1" stop-color="#000"/>
    </linearGradient>
  </defs>
  <g id="Layer_2-2" data-name="Layer 2">
    <g>
      <rect class="cls-3" x=".71" y=".71" width="681" height="415" rx="56.49" ry="56.49"/>
      <g>
        <path d="M622.48,4.2H59.94C29.69,4.2,5.18,28.71,5.18,58.96V356.49c0,30.24,24.52,54.76,54.76,54.76h16.96s0-54.08,59.48-54.08h411.47c62.28-1.15,62.03,54.08,62.03,54.08h12.6c30.24,0,54.76-24.52,54.76-54.76V58.96c0-30.24-24.52-54.76-54.76-54.76ZM71.78,195.64c-32.31,0-58.5-26.19-58.5-58.5s26.19-58.5,58.5-58.5,58.5,26.19,58.5,58.5-26.19,58.5-58.5,58.5Zm427.05,87.78H183.59c-1.16,0-2.1-.95-2.1-2.13V38.27c0-1.18,.94-2.13,2.1-2.13H498.83c1.16,0,2.1,.95,2.1,2.13v243.01c0,1.18-.94,2.13-2.1,2.13Zm133.7-74.49c-13.06,0-22.86-5.71-27.95-10.8l-56.81-60.78c-6.91-7.59-12.34-17.88-12.34-28.95,0-23.6,17.26-39.98,38.64-39.95,12.39,.02,23.55,5.27,31.35,13.7l55.27,59.35c6.45,6.5,11,17.68,11,30.22,0,15.17-12.07,37.22-39.16,37.22Z"/>
        <g>
          <path class="cls-2" d="M405.85,329.63c-.42-7.18-.71-14.22-1.34-21.34-3.87,2.27-1.92,4.94-1.75,10.47,.6,19.27-7.72,2.5-18.42-1.09,33.51-1.68,1.64-22.14-7.74-8.14-3.21-2.82-3.9-7.53-7.43-10.01,.27,5.66,3.51,10.39,6.43,15.01,3.81,7.17,7.62,14.96,11.48,21.7,.98,2.42,1.49-1.78,1.23-2.71,.31-5.76-5.44-10.05-6.09-15.48,3.4,1.51,6.88,4.13,9.95,6.45,1.73,.64,13.95,13.09,13.69,5.14m-24.37-14.21c-5.24-.39-3.39-7.72,.88-8.19,3.43-1.44,15.14,1.4,13.52,5.65-2.78,2.58-7.21,2.52-10.63,2.96-1.43-.15-2.6-.26-3.77-.42"/>
          <path class="cls-2" d="M379.71,326.79c.83,1.12,.78,2.42,1.12,3.63-.42,1.57-3.49,1.72-3.92,.06-.12-4.08-1.56-7.8-3.75-11.22-3.12-5.86-6.37-11.69-11.17-16.41-1.02-.48-1.03-.59-.52-1.63,1.39-7.94,16.24,22.74,18.23,25.57"/>
          <path class="cls-2" d="M369.46,322.04c-.99-1.62-1.92-3.6-3.01-5.2,.93-.68,2.22,.06,2.94-1-7.63-2.45-10.58-11.35-16.7-16.34-3.77-3.92,3.9-3.08,5.77-4.98-3.2-8.75-24.56,5.7-7.88,2.43,2,.62-.17,3.07-1.17,6.76-2.05,7.57-.14,15.95-2.16,23.49-2.7-2.44-2.01-10.97-6.95-9.26,1.64,3.22,4.41,6.83,3.34,10.54-4.12-2.32-4.38-9.13-8.78-10.74-.04,5.6,3.49,11.65,7.89,15.32,1.82,.37,2.49-3.33,3.2-4.63,1.53,.26,.79,4.33,2.42,3.62,.96-.46,2.35-.41,2.16-1.94,.9-3.37,.56-6.6,.67-10.06-.04-1.42,2.8-1.8,3.9-2.5,2.71-.19,6.34-2.18,8.41,.4,1.72,4.11,6.47,7.43,7.42,11.44-13.01,1.79-25.85,5.04-36.93,12.4-1.38,1.19-4.74,1.89-3.63,4.25,.39,.91-.19,4.57,1.59,3.26,9.63-10.2,23.65-14.14,36.93-17.37,7.06-.02,2.81-6.38,.56-9.89m-18.4-26.54c-7.88,1.17,2.89-3.58,5.53-1.23,0,.08,0,.17,0,.25-1.78,.62-3.68,.65-5.52,.97m9.85,18.64c-.03,.14-.48,.18-.74,.26-10.55,1.14-9.21,7.46-7.44-11.73,3.6,2.87,6.43,7.29,8.19,11.47m-3.81,20.26s0-.01,.01-.01c0,0,0,0,.01,0,0,0,0,0,.01,0,.09-.04,.17-.08,.26-.12-.09,.04-.17,.08-.26,.12h-.03Z"/>
          <path class="cls-2" d="M336.77,332.98c1.18-9.54-8.51-21.24-9.95-22.72-2.19-2.25-4.56-5.11-4.76-.52-.02,1.74,2.85,3.02,3.73,4.72,.03-.07,1.22,1.53,1.22,1.53,5.61,7.54,4.15,5.04-3.48,6.22-5.45,1.75,.74,5.58-2.79,6.61-12.13,5.7-9.52,13.56-16.8-3.11,.72-3.06,12.34-2.72,15.15-3.23-1.01-3.31-13.16-.71-15.96,.34-1.52-4.21-3.05-8.28-5.29-11.97,8.06,.06,15.15,4.82,23.16,3.89-7.26-5.24-17.84-6.65-26.7-7.92-2.47,.3-17.77-.57-13.5,3.95,1.14,1.06,1.63-.99,2.9-.69,3.87,.65,8.78-.53,12.16,1.21,1.27,3.77,2.63,7.5,4.01,11.22,1.07,1.55-.75,1.84-.66,3.35,3.97,1.58,3.51,10.43,8.24,14.02,.23,3.04,1.67,1.27,2.88-.2,13.56-15.89,10.81-6.89,26.45-6.72m-3.48-2.22c-1.87-.73-7.34-.61-7.11-2.87,.51-.49,.91-1.06,.66-1.8-4.63,3.47-3.96-2.08-.87-2.99,4.56-1.33,7.98,3.44,8.45,6.7,.01,.93-.22,1.14-1.13,.95"/>
          <path class="cls-2" d="M404.18,329.19c-.42-7.18-.71-14.22-1.34-21.34-3.87,2.27-1.92,4.94-1.75,10.47,.6,19.27-7.72,2.5-18.42-1.09,33.51-1.68,1.64-22.14-7.74-8.14-3.21-2.82-3.9-7.53-7.43-10.01,.27,5.66,3.51,10.39,6.43,15.01,3.81,7.17,7.62,14.96,11.48,21.7,.98,2.42,1.49-1.78,1.23-2.71,.31-5.76-5.44-10.05-6.09-15.48,3.4,1.51,6.88,4.13,9.95,6.45,1.73,.64,13.95,13.09,13.69,5.14m-24.37-14.21c-5.24-.39-3.39-7.72,.88-8.19,3.43-1.44,15.14,1.4,13.52,5.65-2.78,2.58-7.21,2.52-10.63,2.96-1.43-.15-2.6-.26-3.77-.42"/>
          <path class="cls-2" d="M378.04,326.34c.83,1.12,.78,2.42,1.12,3.63-.42,1.57-3.49,1.72-3.92,.06-.12-4.08-1.56-7.8-3.75-11.22-3.12-5.86-6.37-11.69-11.17-16.41-1.02-.48-1.03-.59-.52-1.63,1.39-7.94,16.24,22.74,18.23,25.57"/>
          <path class="cls-2" d="M367.78,321.6c-.99-1.62-1.92-3.6-3.01-5.2,.93-.68,2.22,.06,2.94-1-7.63-2.45-10.58-11.35-16.7-16.34-3.77-3.92,3.9-3.08,5.77-4.98-3.2-8.75-24.56,5.7-7.88,2.43,2,.62-.17,3.07-1.17,6.76-2.05,7.57-.14,15.95-2.16,23.49-2.7-2.44-2.01-10.97-6.95-9.26,1.64,3.22,4.41,6.83,3.34,10.54-4.12-2.32-4.38-9.13-8.78-10.74-.04,5.6,3.49,11.65,7.89,15.32,1.82,.37,2.49-3.33,3.2-4.63,1.53,.26,.79,4.33,2.42,3.62,.96-.46,2.35-.41,2.16-1.94,.9-3.37,.56-6.6,.67-10.06-.04-1.42,2.8-1.8,3.9-2.5,2.71-.19,6.34-2.18,8.41,.4,1.72,4.11,6.47,7.43,7.42,11.44-13.01,1.79-25.85,5.04-36.93,12.4-1.38,1.19-4.74,1.89-3.63,4.25,.39,.91-.19,4.57,1.59,3.26,9.63-10.2,23.65-14.14,36.93-17.37,7.06-.02,2.81-6.38,.56-9.89m-18.4-26.54c-7.88,1.17,2.89-3.58,5.53-1.23,0,.08,0,.17,0,.25-1.78,.62-3.68,.65-5.52,.97m9.85,18.64c-.03,.14-.48,.18-.74,.26-10.55,1.14-9.21,7.46-7.44-11.73,3.6,2.87,6.43,7.29,8.19,11.47m-3.81,20.26s0-.01,.01-.01c0,0,0,0,.01,0,0,0,0,0,.01,0,.09-.04,.17-.08,.26-.12-.09,.04-.17,.08-.26,.12h-.03Z"/>
          <path class="cls-2" d="M335.09,332.54c1.18-9.54-8.51-21.24-9.95-22.72-2.19-2.25-4.56-5.11-4.76-.52-.02,1.74,2.85,3.02,3.73,4.72,.03-.07,1.22,1.53,1.22,1.53,5.61,7.54,4.15,5.04-3.48,6.22-5.45,1.75,.74,5.58-2.79,6.61-12.13,5.7-9.52,13.56-16.8-3.11,.72-3.06,12.34-2.72,15.15-3.23-1.01-3.31-13.16-.71-15.96,.34-1.52-4.21-3.05-8.28-5.29-11.97,8.06,.06,15.15,4.82,23.16,3.89-7.26-5.24-17.84-6.65-26.7-7.92-2.47,.3-17.77-.57-13.5,3.95,1.14,1.06,1.63-.99,2.9-.69,3.87,.65,8.78-.53,12.16,1.21,1.27,3.77,2.63,7.5,4.01,11.22,1.07,1.55-.75,1.84-.66,3.35,3.97,1.58,3.51,10.43,8.24,14.02,.23,3.04,1.67,1.27,2.88-.2,13.56-15.89,10.81-6.89,26.45-6.72m-3.48-2.22c-1.87-.73-7.34-.61-7.11-2.87,.51-.49,.91-1.06,.66-1.8-4.63,3.47-3.96-2.08-.87-2.99,4.56-1.33,7.98,3.44,8.45,6.7,.01,.93-.22,1.14-1.13,.95"/>
        </g>
      </g>
      <g>
        <rect class="cls-5" x="550.6" y="82.71" width="50" height="50" rx="20.04" ry="20.04"/>
        <rect class="cls-4" x="608.6" y="144.71" width="50" height="50" rx="20.04" ry="20.04"/>
      </g>
      <path class="cls-1" d="M547.67,357.56c66.43,0,62.03,57.65,62.03,57.65H76.72s-2.62-57.65,59.48-57.65h0"/>
    </g>
    <g>
      <polygon class="cls-6" points="96.69 87.64 102.44 94.21 102.44 106.21 116.44 106.21 120.84 111.4 96.69 125.97 80.94 98.71 96.69 87.64"/>
      <polygon class="cls-6" points="47.19 87.64 41.44 94.21 41.44 106.21 27.44 106.21 23.04 111.4 47.19 125.97 62.94 98.71 47.19 87.64"/>
      <polygon class="cls-6" points="47.19 185.78 41.44 179.21 41.44 167.21 27.44 167.21 23.04 162.02 47.19 147.45 62.94 174.71 47.19 185.78"/>
      <polygon class="cls-6" points="96.69 185.78 102.44 179.21 102.44 167.21 116.44 167.21 120.84 162.02 96.69 147.45 80.94 174.71 96.69 185.78"/>
      <path class="cls-7" d="M96.69,87.64c-15.68-7.91-34.32-7.91-50,0v24.57H22.12c-7.91,15.68-7.91,34.32,0,50h24.77v24.67c15.64,7.81,34.19,7.78,49.8-.1v-24.97h24.77c7.84-15.86,7.64-34.7-.62-50.41h-23.9l-.25-23.76Z"/>
    </g>
    <polyline points="62.62 95.21 71.69 86.14 80.76 95.21"/>
    <polyline points="80.76 181.21 71.69 190.28 62.62 181.21"/>
    <polyline points="114.69 128.14 123.76 137.21 114.69 146.28"/>
    <polyline points="28.69 146.28 19.62 137.21 28.69 128.14"/>
  </g>
</svg>