<?xml version="1.0" encoding="utf-8"?>
<!-- Generator: Adobe Illustrator 24.0.1, SVG Export Plug-In . SVG Version: 6.00 Build 0)  -->
<svg version="1.1" id="圖層_1" xmlns="http://www.w3.org/2000/svg" xmlns:xlink="http://www.w3.org/1999/xlink" x="0px" y="0px"
	 viewBox="0 0 2473 603" style="enable-background:new 0 0 2473 603;" xml:space="preserve">
<style type="text/css">
	.st0{fill:none;}
	.st1{fill:none;stroke:#BFBFBF;stroke-width:6.875;stroke-miterlimit:8;}
	.st2{fill:none;stroke:#7030A0;stroke-width:6.875;stroke-miterlimit:8;}
	.st3{fill-rule:evenodd;clip-rule:evenodd;fill:#7030A0;}
	.st4{enable-background:new    ;}
	.st5{fill:#7030A0;}
	.st6{fill:#A6A6A6;}
	.st7{fill:none;stroke:#7030A0;stroke-width:6.875;stroke-miterlimit:8;stroke-dasharray:27.5,20.625;}
</style>
<rect y="0" class="st0" width="2473" height="603"/>
<path class="st1" d="M642.5,71.5c-28.7,0-52,23.3-52,52"/>
<path class="st1" d="M590.5,211.2l0-88.7"/>
<path class="st1" d="M722,71.5h-79.5"/>
<path class="st2" d="M260.5,231.5H1529"/>
<path class="st3" d="M241,234.5c0-10.8,8.5-19.5,19-19.5s19,8.7,19,19.5s-8.5,19.5-19,19.5S241,245.3,241,234.5z"/>
<path class="st1" d="M312.5,520.5c-28.7,0-52-23.3-52-52"/>
<path class="st1" d="M260.5,380.5v88.3"/>
<path class="st1" d="M392,520.5l-79.5,0"/>
<g class="st4">
	<path class="st5" d="M83.6,352.9l22.7,48.5l-7.4,3.5l-19-40.5c-0.9,2.1-2.1,4.1-3.6,6.1c-1.5,2-3,3.7-4.5,5l-3.3-7
		C73,364.5,76.5,360,79,355L83.6,352.9z"/>
	<path class="st5" d="M124.8,335.1l3,65.8l-6.5,3.1l-3.1-65.7L124.8,335.1z"/>
	<path class="st5" d="M176.1,360.6l3.1,6.7l-29.1,13.6l-1.3-2.7c-1.5-3.1-2-6.4-1.7-9.9c0.3-3.5,1.5-7.2,3.7-11.3
		c2.5-4.9,4.2-8.4,4.9-10.5c0.7-2.1,1.1-4,1.1-5.6s-0.3-3.2-1-4.6c-1.1-2.3-2.7-3.7-5-4.3s-4.8-0.2-7.8,1.2
		c-3.7,1.7-6.6,4.6-8.8,8.4l-2.9-6.2c2.7-4.2,6.4-7.4,11-9.6c4.4-2,8.3-2.5,12-1.3c3.6,1.2,6.4,3.7,8.3,7.7c1.1,2.3,1.7,4.5,1.8,6.7
		c0.1,2.2-0.2,4.5-0.8,6.7c-0.6,2.3-2.1,5.5-4.4,9.8c-1.9,3.5-3.2,6-3.7,7.5c-0.6,1.5-0.9,2.8-1.1,4.1c-0.2,1.3,0,2.4,0.5,3.4
		L176.1,360.6z"/>
	<path class="st5" d="M175.6,341.2c-3.9-8.3-5.4-15.3-4.6-20.9c0.8-5.6,3.9-9.7,9.3-12.2c10.3-4.8,19.2,0.8,26.7,17
		c3.7,7.9,5.1,14.6,4.3,20.2c-0.8,5.6-3.9,9.6-9.2,12.1c-5.1,2.4-10,2.2-14.5-0.6C183.2,354.1,179.1,348.8,175.6,341.2z
		 M182.7,337.5c5.6,12,11.4,16.7,17.2,14c5.8-2.7,5.8-10.2,0-22.5c-5.9-12.6-11.7-17.6-17.3-15C176.7,316.9,176.7,324.7,182.7,337.5
		z"/>
	<path class="st5" d="M250.5,325.7l3.1,6.7L224.6,346l-1.3-2.7c-1.5-3.1-2-6.4-1.7-9.9c0.3-3.5,1.5-7.2,3.7-11.3
		c2.5-4.9,4.2-8.4,4.9-10.5s1.1-4,1.1-5.6s-0.3-3.2-1-4.6c-1.1-2.3-2.7-3.7-5-4.3c-2.2-0.6-4.8-0.2-7.8,1.2
		c-3.7,1.7-6.6,4.6-8.8,8.4l-2.9-6.2c2.7-4.2,6.4-7.4,11-9.6c4.4-2,8.3-2.5,12-1.3c3.6,1.2,6.4,3.7,8.3,7.7c1.1,2.3,1.7,4.5,1.8,6.7
		c0.1,2.2-0.2,4.5-0.8,6.7c-0.6,2.3-2.1,5.5-4.4,9.8c-1.9,3.5-3.2,6-3.7,7.5c-0.6,1.5-0.9,2.8-1.1,4.1c-0.2,1.3,0,2.4,0.5,3.4
		L250.5,325.7z"/>
	<path class="st5" d="M260,270.2l22.7,48.5l-7.4,3.5l-19-40.5c-0.9,2.1-2.1,4.1-3.6,6.1s-3,3.7-4.5,5l-3.3-7
		c4.4-4.1,7.9-8.6,10.5-13.5L260,270.2z"/>
</g>
<g class="st4">
	<path class="st6" d="M441.8,499.5c-0.7,6.1-2.5,9.1-5.3,9.1c-2.8,0-5.3-2.8-7.5-8.4c-3.2,3.3-6.6,6.2-10.3,8.7l-2.9-3
		c5-3.2,8.9-6.5,11.7-9.8c-1.4-5.3-2.3-10.8-2.7-16.7h-15.7v5h12.2c-0.1,3.8-0.3,6.7-0.5,8.9c-0.2,2.1-0.4,3.8-0.5,4.9
		c-0.1,1.1-0.5,2.1-1.2,2.9c-0.6,0.8-1.4,1.3-2.3,1.5c-0.9,0.2-2.1,0.3-3.5,0.3c-0.7,0-1.5,0-2.2-0.1l-1.1-3.8
		c0.9,0,1.7,0.1,2.4,0.1c2.2,0,3.4-0.2,3.7-0.7c0.3-0.5,0.5-1.9,0.8-4.1s0.4-4.2,0.4-5.8h-8.1c-0.2,8.8-1.9,15.6-4.9,20.5l-3.2-3
		c2.8-4.6,4.1-11.5,4.1-20.6v-9.8h19.5c-0.1-2.5-0.1-4.9-0.1-7.3h4.2c0,0.8-0.1,1.6-0.1,2.4c0,1.5,0.1,3.1,0.2,4.9h12v3.9h-11.8
		c0.2,4.2,0.7,8.4,1.7,12.6c1.8-2.7,3.4-6.1,4.9-10.2l3.7,1.3c-2,5.5-4.4,10-7.2,13.6c0.5,1.8,1.2,3.4,2,4.9
		c0.8,1.4,1.3,2.2,1.5,2.4c0.2,0.1,0.4,0.2,0.7,0.2c0.3,0,0.5-0.1,0.6-0.3c0.2-0.2,0.4-0.9,0.7-2.3c0.3-1.3,0.5-2.6,0.5-3.9
		L441.8,499.5z M439.6,471.9l-2.3,3c-1.7-1.2-3.9-2.4-6.6-3.4l2.3-3.1C435.5,469.4,437.7,470.5,439.6,471.9z"/>
	<path class="st6" d="M464.9,497.6c-5.8,3-11.4,5.3-16.7,6.9l-0.9-3.9c2.5-0.8,4.7-1.6,6.8-2.4v-21.6h-5.7v-4h15.5v4h-5.7v19.7
		c1.8-0.7,3.9-1.6,6.1-2.8L464.9,497.6z M486.7,476.7c-0.1,7.4-0.3,13.9-0.7,19.3c-0.4,5.5-0.8,8.7-1.2,9.7s-1.1,1.7-2,2.1
		c-0.9,0.4-2.6,0.6-4.9,0.6c-1.4,0-2.4,0-2.9-0.1l-1.4-4.1c1.5,0.2,2.9,0.2,4.2,0.2c1.5,0,2.4-0.1,2.7-0.2s0.6-0.3,0.7-0.5
		c0.1-0.2,0.3-1.7,0.6-4.3c0.3-2.6,0.5-5.6,0.6-8.9s0.3-6.5,0.3-9.7h-7.2c-0.4,8.3-1.8,14.4-4.1,18.1c-2.3,3.8-5,7-7.9,9.8l-3.1-3
		c3.2-2.7,5.7-5.9,7.7-9.6c2-3.7,3.1-8.8,3.3-15.4h-6.2v-4.1h6.4l0.2-8.5h4c0.1,1.5,0,4.3-0.2,8.5H486.7z"/>
	<path class="st6" d="M509.2,473.4H503c-0.4,2.8-1.2,6.1-2.5,9.9h7.8v22.8h-3.9v-2h-3.4v3.1h-4v-16.7c-0.5,1-1.1,1.7-1.6,2.3l-2.3-4
		c2.7-4,4.7-9.2,5.8-15.4h-5.1v-4h15.3V473.4z M504.5,500.2v-12.8h-3.4v12.8H504.5z M533.6,488h-5.3v20.2h-4.2V488h-5.4
		c0.2,8.6-1.9,15.4-6.4,20.4l-3-3.1c1.8-1.6,3.1-3.7,4-6.1s1.3-6.2,1.2-11.2h-4.7v-4h4.7v-10.7H511v-3.9h22v3.9h-4.6V484h5.3V488z
		 M524.2,484v-10.7h-5.4V484H524.2z"/>
	<path class="st6" d="M558.6,472.4c-2.3,3.3-5.8,6.3-10.4,8.8h8.3v10.4h-9.1l-0.5,4h10.1c-0.1,4.1-0.3,7-0.8,8.7
		c-0.4,1.7-1.2,2.7-2.2,3.2c-1,0.5-3,0.7-6,0.7c-1,0-2.2,0-3.7,0l-1.4-3.8c1.6,0.1,4.1,0.2,7.7,0.2c1.4,0,2.2-1.8,2.2-5.5h-10.4
		l1.3-10.9h8.7v-3.5H545v-1.9c-1,0.5-2.2,1-3.8,1.5l-1.9-3.3c2.4-0.7,4.6-1.7,6.8-2.8c-1.1-0.7-2.4-1.4-4-2.1l2.7-2.9
		c1.3,0.5,2.9,1.4,5,2.6c1.5-1,2.8-2.2,3.9-3.4h-10.4v-3.6h15.2V472.4z M580.1,481l-2.1,3.2c-1.6-0.7-3-1.4-4.2-2.2v4.6
		c0,0.5,0.3,0.7,0.8,0.7h4.1v3.5h-5.4c-2.2,0-3.3-1.1-3.3-3.4v-2.8h-4.5c0,3.2-1.8,5.7-5.3,7.4l-2.5-3c1.2-0.5,2.2-1.2,2.9-2.1
		c0.7-0.9,1.1-2.3,1.1-4.2v-1.7h10.6c-5.7-3.5-9.6-7.6-11.7-12.2l3.6-1.1c0.4,1,1.2,2.3,2.3,3.7c1.3-1.1,2.5-2.3,3.5-3.7l3.3,2.1
		c-1.5,1.8-2.9,3.2-4.3,4.3c0.4,0.4,1.1,1,2.1,1.8c1.7-1.4,3.2-2.9,4.5-4.3l3.2,2c-1.5,1.8-3,3.2-4.6,4.4
		C575.6,479,577.6,480,580.1,481z M579.2,506l-2.9,2.6c-1.9-1.5-4.2-2.9-6.8-4.5c-2.6,1.9-5.9,3.5-9.8,4.6l-2-3.4
		c3.6-0.9,6.3-2,8.2-3.3c-2.4-1.4-4.5-2.5-6.2-3.4l2.4-2.4h-2.7v-3.5h17.2v3.5c-1.3,1.9-2.6,3.6-4,5.2
		C574.8,503,577.1,504.5,579.2,506z M571.8,496.3h-8.6c2.1,1,4.1,2.1,6,3.2C570.4,498.3,571.2,497.2,571.8,496.3z"/>
</g>
<g class="st4">
	<path class="st6" d="M439.4,550h-15.8v13.3h-4.2V550h-15.7v-19.4h15.7v-7.4h4.2v7.4h15.8V550z M419.4,546v-11.3H408V546H419.4z
		 M435.2,546v-11.3h-11.5V546H435.2z"/>
	<path class="st6" d="M487.6,556.4h-17.7v2.9c0,1-0.2,1.8-0.7,2.4s-1.1,1-1.8,1.2c-0.7,0.2-2.1,0.3-4.1,0.3c-0.9,0-2,0-3.2-0.1
		l-1.3-3.7c1,0,3.1,0,6.1,0c0.6,0,0.8-0.3,0.8-0.8v-2.3h-18.2v-3.3h18.2v-2c2.3-0.5,4.4-1.1,6.4-1.8H455v-2.9h24.5v2.9
		c-2.5,1.2-5.7,2.4-9.6,3.5v0.3h17.7V556.4z M486.9,549.6H483v-5.2h-30.8v5.2h-4.1v-8.4h2.9l-0.8-16.5c3-0.1,6-0.7,9-1.8l1.9,3.2
		c-2.1,0.7-4.4,1.1-6.8,1.4l0.1,2.4h6v3h-5.8l0.1,2.6h5.8v3h-5.6l0.1,2.7h25.3l0.1-2.7h-6.2v-3h6.4l0.1-2.6h-6.5v-3h6.6l0.1-2.4h-7
		v-3.2h11l-0.7,16.9h2.8V549.6z M472.9,524.3c-0.7,1-1.7,1.9-3,2.9c0.7,0.7,1.4,1.3,2.1,2l-2.4,2.2c-0.8-0.9-1.5-1.7-2.3-2.3
		c-1.6,0.9-3.1,1.7-4.6,2.3l-1.9-2.6c1.3-0.5,2.6-1.1,3.9-1.8c-0.4-0.4-1.3-1-2.5-1.9l2.2-2.2l3.1,2.2c1-0.7,1.8-1.5,2.4-2.2
		L472.9,524.3z M473.1,538.7l-2.4,2.1c-1.2-1.3-2.2-2.3-3.1-2.9c-1.6,1-3.2,1.9-4.7,2.6L461,538c1.1-0.5,2.4-1.2,4-2.1
		c-0.8-0.7-1.8-1.4-3-2.1l2.2-2.3c0.8,0.5,2,1.3,3.6,2.4c1.3-1.1,2.1-1.9,2.6-2.4l2.8,1.7c-0.9,1-1.8,1.9-2.9,2.7
		C471.3,536.8,472.2,537.7,473.1,538.7z"/>
</g>
<g class="st4">
	<path class="st6" d="M522.6,561h-5.9l-3.3-9.1h-13.9l-3.1,9.1h-5.9l13.1-34.8h6L522.6,561z M512,547.5l-4.9-13.7
		c-0.2-0.5-0.4-1.4-0.5-2.6h-0.2c-0.1,1-0.3,1.9-0.6,2.6l-4.8,13.8H512z"/>
	<path class="st6" d="M532.9,530.6L532.9,530.6v26v0v4.4h-5.4v-4.4v0v-25.9v0v-4.4h5.4V530.6z"/>
</g>
<g class="st4">
	<path class="st6" d="M562,525.8c-1.6,3-3.4,5.8-5.5,8.4h3.4v3.6h-6.5c-0.7,0.8-1.9,2-3.7,3.5h8v3.4c-1.5,1.4-3.5,3-5.8,4.8v0.7
		c2.9-0.4,5.7-1,8.2-1.5l0,3.8c-1.4,0.3-4.1,0.7-8.2,1.3v5.1c0,1.4-0.3,2.5-1,3.2c-0.7,0.7-2.1,1.1-4.3,1.1c-0.8,0-1.7,0-2.7-0.1
		l-1.2-4c1.3,0.1,2.4,0.1,3.2,0.1c1.4,0,2.1-0.3,2.1-0.9v-3.9c-4.3,0.6-7.4,0.9-9.3,1.1l-0.7-3.8c3.5-0.2,6.9-0.5,10-1v-2.8
		c1.6-1.1,3-2.1,4.3-3.1H545c-1,0.8-2.8,1.8-5.2,3l-2.1-3.1c3.8-1.8,7.4-4.1,10.6-7h-10.1v-3.6h8.4v-4h-6.6v-3.5h6.6v-3.7h4v3.7h4.6
		v3.2c1.6-2.3,2.7-4.2,3.4-5.8L562,525.8z M554.9,530.3h-4.4v4h1.3C552.6,533.4,553.7,532.1,554.9,530.3z M578.6,560.3l-2.4,3.2
		c-3.2-2-5.9-4.3-7.9-6.9c-2.5,2.7-5.5,4.9-9.1,6.8l-2.8-3c4.2-2.1,7.4-4.4,9.7-7.1c-1.2-1.9-2.2-5-3.1-9.3l3.5-1.6
		c0.5,2.8,1.1,5.1,2,7.1c1.8-4,2.8-9.3,3-16h-4.9c-1.2,3.9-2.9,7.7-5,11.3l-2.6-3.1c3.1-5.4,5.1-11.6,5.8-18.8l3.7,0.7
		c-0.3,2.1-0.6,4.1-1,6.1h10.5v3.8h-2.8c-0.4,9-2,15.7-4.7,20.1C572.6,556.1,575.2,558.4,578.6,560.3z"/>
	<path class="st6" d="M624.2,556.4h-17.7v2.9c0,1-0.2,1.8-0.7,2.4s-1.1,1-1.8,1.2c-0.7,0.2-2.1,0.3-4.1,0.3c-0.9,0-2,0-3.2-0.1
		l-1.3-3.7c1,0,3.1,0,6.1,0c0.6,0,0.8-0.3,0.8-0.8v-2.3h-18.2v-3.3h18.2v-2c2.3-0.5,4.4-1.1,6.4-1.8h-17.1v-2.9h24.5v2.9
		c-2.5,1.2-5.7,2.4-9.6,3.5v0.3h17.7V556.4z M623.5,549.6h-3.9v-5.2h-30.8v5.2h-4.1v-8.4h2.9l-0.8-16.5c3-0.1,6-0.7,9-1.8l1.9,3.2
		c-2.1,0.7-4.4,1.1-6.8,1.4l0.1,2.4h6v3h-5.8l0.1,2.6h5.8v3h-5.6l0.1,2.7h25.3l0.1-2.7h-6.2v-3h6.4l0.1-2.6h-6.5v-3h6.6l0.1-2.4h-7
		v-3.2h11l-0.7,16.9h2.8V549.6z M609.5,524.3c-0.7,1-1.7,1.9-3,2.9c0.7,0.7,1.4,1.3,2.1,2l-2.4,2.2c-0.8-0.9-1.5-1.7-2.3-2.3
		c-1.6,0.9-3.1,1.7-4.6,2.3l-1.9-2.6c1.3-0.5,2.6-1.1,3.9-1.8c-0.4-0.4-1.3-1-2.5-1.9l2.2-2.2l3.1,2.2c1-0.7,1.8-1.5,2.4-2.2
		L609.5,524.3z M609.8,538.7l-2.4,2.1c-1.2-1.3-2.2-2.3-3.1-2.9c-1.6,1-3.2,1.9-4.7,2.6l-1.9-2.5c1.1-0.5,2.4-1.2,4-2.1
		c-0.8-0.7-1.8-1.4-3-2.1l2.2-2.3c0.8,0.5,2,1.3,3.6,2.4c1.3-1.1,2.1-1.9,2.6-2.4l2.8,1.7c-0.9,1-1.8,1.9-2.9,2.7
		C607.9,536.8,608.9,537.7,609.8,538.7z"/>
	<path class="st6" d="M670.8,536.8l-2,3.5c-1.3-0.5-2.9-1.1-4.5-1.9l-2.3-1.2h-19.3v2.6h20.3v3.1h-20.3v2.6h20.3v3.1h-20.3v2.6h26.1
		v3.2h-22.9c-1.3,1.7-3,3.5-5,5.2c6.8-0.3,12.8-0.8,18.1-1.5l-2.1-1.3l3.7-1.9c3.5,2.1,6.2,4.2,8.2,6.5l-3.2,2.1
		c-1-1-1.9-1.8-2.7-2.5c-8.4,1.1-17.8,1.9-28,2.4l-0.4-3.1c2.3-1.4,4.4-3.3,6.3-5.8h-9v-3.2h6.8v-13.9c-2.5,1.2-4.7,2.2-6.7,3
		l-2.1-3.4c5.7-1.8,10-4.1,12.9-6.9h-12v-3.5h15c0.7-1,1.5-2.2,2.2-3.6l4,0.8c-0.5,1.2-1,2.1-1.5,2.8h19.2v3.5h-11.6
		C660.5,532.5,664.7,534.8,670.8,536.8z M656.9,533.9c-1.5-1.2-2.7-2.5-3.6-3.8h-5.2c-1.6,1.7-3,3-4,3.8H656.9z"/>
	<path class="st6" d="M688.9,523.8c-0.5,1.6-1.3,3.7-2.4,6.1l-1.6,3.5v29.9h-4.2v-22.5c-0.8,1.1-1.8,2.3-2.9,3.6l-2.2-4.6
		c3.5-4.1,6.5-9.7,9.1-16.9L688.9,523.8z M716.1,549.7h-11.9v13.8h-4.2v-13.8h-13v-4h13v-10.2h-6.3c-1.3,3.1-2.6,5.6-3.9,7.5
		c-0.8-0.5-2-1.4-3.5-2.6c2.7-4.1,4.8-9.4,6.5-15.9l4.3,0.8c-0.4,1.4-1,3.5-1.8,6.3h4.9v-8.4h4.2v8.4h10.9v3.9h-10.9v10.2h11.9
		V549.7z"/>
</g>
<g class="st4">
	<path class="st6" d="M722.5,527.6c0-0.9,0.3-1.6,0.9-2.2c0.6-0.6,1.4-0.9,2.3-0.9c0.9,0,1.7,0.3,2.3,0.9c0.6,0.6,0.9,1.3,0.9,2.2
		s-0.3,1.6-0.9,2.2c-0.6,0.6-1.4,0.9-2.3,0.9c-0.9,0-1.7-0.3-2.3-0.9C722.9,529.2,722.5,528.5,722.5,527.6z M723.1,561v-24.8h5.3
		V561H723.1z"/>
	<path class="st6" d="M760.5,559.6c-2.6,1.3-5.8,2-9.7,2c-5,0-9.1-1.6-12.1-4.8c-3-3.2-4.5-7.3-4.5-12.5c0-5.4,1.7-9.9,5-13.4
		c3.4-3.5,7.7-5.3,13-5.3c3.3,0,6.1,0.5,8.3,1.4v5.5c-2.5-1.4-5.2-2.1-8.2-2.1c-3.8,0-6.8,1.2-9.1,3.7c-2.3,2.5-3.4,5.8-3.4,9.8
		c0,3.8,1.1,7,3.2,9.3c2.1,2.4,5,3.6,8.6,3.6c3.4,0,6.3-0.8,8.8-2.3V559.6z"/>
	<path class="st6" d="M767.2,537.8c2.5-1.5,5.5-2.2,8.8-2.2c6.3,0,9.4,3.2,9.4,9.7V561h-5.1v-3.8h-0.1c-1.7,2.9-4.2,4.4-7.5,4.4
		c-2.4,0-4.4-0.7-5.8-2c-1.4-1.3-2.1-3.1-2.1-5.3c0-4.7,2.8-7.4,8.3-8.2l7.2-1c0-3.7-1.6-5.5-4.9-5.5c-3,0-5.7,1-8.2,2.9V537.8z
		 M774.8,549.5c-1.8,0.2-3.1,0.7-3.8,1.4s-1.1,1.7-1.1,3c0,1.1,0.4,2,1.2,2.7c0.8,0.7,1.8,1,3.1,1c1.8,0,3.2-0.6,4.4-1.9
		c1.2-1.3,1.8-2.8,1.8-4.7v-2.2L774.8,549.5z"/>
	<path class="st6" d="M806.5,541.2c-0.8-0.5-1.8-0.8-3.1-0.8c-1.7,0-3.1,0.7-4.1,2.2s-1.6,3.5-1.6,6V561h-5.3v-24.8h5.3v4.9h0.1
		c1.2-3.6,3.4-5.4,6.5-5.4c0.9,0,1.7,0.1,2.2,0.3V541.2z"/>
</g>
<path class="st3" d="M571,231.5c0-10.8,8.7-19.5,19.5-19.5s19.5,8.7,19.5,19.5s-8.7,19.5-19.5,19.5S571,242.3,571,231.5z"/>
<g class="st4">
	<path class="st5" d="M412.9,403c3.6,0,7-0.7,10.2-2.2c3.2-1.5,5.3-3.5,6.4-5.9c1.1-2.4,1-5-0.3-7.8c-2.7-5.8-7.9-6.8-15.5-3.3
		c-2.4,1.1-4.7,2.4-7.1,3.8c-0.9-2.3-1.8-4.4-2.6-6.5c-0.8-2.1-1.6-4.2-2.4-6.3c-0.8-2.1-1.6-4.2-2.5-6.4c-0.8-2.1-1.7-4.3-2.6-6.6
		l22.6-10.6l3.1,6.6l-17.1,8l5,12.6c2.6-1.5,4.5-2.6,5.9-3.2c4.3-2,8.2-2.3,11.8-1c3.6,1.2,6.4,4,8.4,8.2c2.2,4.7,2.5,9.2,0.8,13.6
		c-1.6,4.4-5.1,7.8-10.3,10.2c-3.9,1.8-7.6,2.8-11,3.1L412.9,403z"/>
	<path class="st5" d="M453.8,335.1l3,65.8l-6.5,3.1l-3.1-65.7L453.8,335.1z"/>
	<path class="st5" d="M505.1,360.6l3.1,6.7l-29.1,13.6l-1.3-2.7c-1.5-3.1-2-6.4-1.7-9.9c0.3-3.5,1.5-7.2,3.7-11.3
		c2.5-4.9,4.2-8.4,4.9-10.5c0.7-2.1,1.1-4,1.1-5.6s-0.3-3.2-1-4.6c-1.1-2.3-2.7-3.7-5-4.3c-2.2-0.6-4.8-0.2-7.8,1.2
		c-3.7,1.7-6.6,4.6-8.8,8.4l-2.9-6.2c2.7-4.2,6.4-7.4,11-9.6c4.4-2,8.3-2.5,12-1.3c3.6,1.2,6.4,3.7,8.3,7.7c1.1,2.3,1.7,4.5,1.8,6.7
		c0.1,2.2-0.2,4.5-0.8,6.7c-0.6,2.3-2.1,5.5-4.4,9.8c-1.9,3.5-3.2,6-3.7,7.5c-0.6,1.5-0.9,2.8-1.1,4.1c-0.2,1.3,0,2.4,0.5,3.4
		L505.1,360.6z"/>
	<path class="st5" d="M504.6,341.2c-3.9-8.3-5.4-15.3-4.6-20.9c0.8-5.6,3.9-9.7,9.3-12.2c10.3-4.8,19.2,0.8,26.7,17
		c3.7,7.9,5.1,14.6,4.3,20.2c-0.8,5.6-3.9,9.6-9.2,12.1c-5.1,2.4-10,2.2-14.5-0.6C512.2,354.1,508.2,348.8,504.6,341.2z
		 M511.8,337.5c5.6,12,11.4,16.7,17.2,14c5.8-2.7,5.8-10.2,0-22.5c-5.9-12.6-11.7-17.6-17.3-15C505.7,316.9,505.8,324.7,511.8,337.5
		z"/>
	<path class="st5" d="M579.6,325.7l3.1,6.7L553.6,346l-1.3-2.7c-1.5-3.1-2-6.4-1.7-9.9s1.5-7.2,3.7-11.3c2.5-4.9,4.2-8.4,4.9-10.5
		c0.7-2.1,1.1-4,1.1-5.6s-0.3-3.2-1-4.6c-1.1-2.3-2.7-3.7-5-4.3c-2.2-0.6-4.8-0.2-7.8,1.2c-3.7,1.7-6.6,4.6-8.8,8.4l-2.9-6.2
		c2.7-4.2,6.4-7.4,11-9.6c4.4-2,8.3-2.5,12-1.3c3.6,1.2,6.4,3.7,8.3,7.7c1.1,2.3,1.7,4.5,1.8,6.7c0.1,2.2-0.2,4.5-0.8,6.7
		c-0.6,2.3-2.1,5.5-4.4,9.8c-1.9,3.5-3.2,6-3.7,7.5c-0.6,1.5-0.9,2.8-1.1,4.1c-0.2,1.3,0,2.4,0.5,3.4L579.6,325.7z"/>
	<path class="st5" d="M589.1,270.2l22.7,48.5l-7.4,3.5l-19-40.5c-0.9,2.1-2.1,4.1-3.6,6.1c-1.5,2-3,3.7-4.5,5l-3.3-7
		c4.4-4.1,7.9-8.6,10.5-13.5L589.1,270.2z"/>
</g>
<g class="st4">
	<path class="st6" d="M743.5,22c-1,2.4-2.3,4.9-3.9,7.4c1.8,4.4,2.8,10.2,2.8,17.3c0,6.3-0.4,10.3-1.2,12c-0.8,1.7-2.9,2.6-6.1,2.6
		c-0.8,0-1.5,0-2.1-0.1l-1.3-4c1.3,0.1,2.6,0.2,3.6,0.2c1.3,0,2.1-0.4,2.5-1.2c0.4-0.8,0.6-3.3,0.6-7.6c0-1.7-0.1-3.4-0.2-5.3
		c-1.9,3.2-3.9,5.8-6,7.9l-2.1-3.5c2.8-2.5,5.4-6,7.7-10.5c-0.3-1.6-0.5-3-0.9-4c-1.5,1.8-3.1,3.4-4.7,4.6l-2-3.5
		c2.2-1.9,3.8-3.7,4.9-5.4c-1.3-2.2-2.9-4.2-4.8-6l3-2.3c1.1,0.9,2.5,2.4,4,4.7c0.8-1.4,1.6-3,2.3-4.6L743.5,22z M771.5,58l-1.7,3.5
		c-4.9-0.6-9.1-1.6-12.8-3c-4.3,1.4-8.7,2.4-13.3,3.2l-1.7-3.5c4.3-0.4,7.8-1.1,10.4-1.9c-2.4-1.5-4.3-3-5.6-4.7h-2v-3.2h24.6v3.2
		c-2.1,1.9-4.4,3.5-7.2,4.9C764.2,57,767.3,57.6,771.5,58z M770.7,46.6h-25.1v-7.9c-0.4,0.5-1,1.1-1.7,1.6l-1.8-3.7
		c2.1-2.2,4.1-5.1,6-8.8l3.6,1.1c-0.1,0.5-0.3,0.9-0.6,1.3h4.9c-0.1-0.4-0.4-0.9-0.9-1.5l3.7-1.2c0.5,0.8,1,1.7,1.5,2.8h9.7v3h-9.7
		v1.6h9v2.7h-9v1.6h9v2.7h-9v1.7h10.4V46.6z M755,21.1V28h-3.9v-1.8h-7.4V23h7.4v-1.8H755z M756.4,34.9v-1.6h-6.9v1.6H756.4z
		 M756.4,39.3v-1.6h-6.9v1.6H756.4z M756.4,43.6v-1.7h-6.9v1.7H756.4z M763.6,51.5h-12c1.2,1,3.1,2.1,5.6,3.3
		C759.3,54.1,761.4,53.1,763.6,51.5z M770.6,26.3h-7.2V28h-4v-6.9h4V23h7.2V26.3z"/>
	<path class="st6" d="M817.5,41.5l-2,3.3c-1.9-1.1-3.2-1.8-4-2.1v18.5h-4.2v-2h-21.1v2h-4.1V43c-1.1,0.5-2.2,1-3.5,1.4l-2.4-3.4
		c6.8-2.4,11.9-5,15.4-7.9h-14.4v-3.5h17.5v-3.1c-4.8,0.3-9.4,0.4-14,0.4l-1.3-3.6c2,0.1,3.9,0.1,5.8,0.1c9.3,0,17.9-0.9,25.6-2.7
		l2.2,3c-3.8,1-8.5,1.7-14.2,2.3v3.5h17.6v3.5H799v0.5C805.7,35.8,811.8,38.4,817.5,41.5z M794.7,41.8v-6.3c-2.3,2-5.6,4.1-9.8,6.3
		H794.7z M807.4,48.6v-3.4h-21.1v3.4H807.4z M807.4,55.5v-3.4h-21.1v3.4H807.4z M809.8,41.8c-3.1-1.5-6.7-2.9-10.8-4.4v4.4H809.8z"
		/>
	<path class="st6" d="M831.7,48.3c-1.5,4.3-3.4,8.6-5.8,13l-3.6-2.6c2.4-4.1,4.3-8.4,5.8-13L831.7,48.3z M832,37.7l-2.5,3.4
		c-2.2-2-4.6-3.7-7.1-5.2l2.2-3.5C827.4,33.9,829.9,35.7,832,37.7z M832.3,27.3l-2.7,3.1c-2-2.6-4.1-4.7-6.4-6.4L826,21
		C828.8,23.1,830.9,25.2,832.3,27.3z M863.3,44.9l-2,3.5c-2-1-3.9-2.3-5.8-4v8.4h-15v2.9c0,0.3,0.2,0.6,0.5,0.9
		c0.3,0.3,0.6,0.4,0.9,0.4c8.9,0,13.7-0.1,14.4-0.2s1.2-1.3,1.5-3.5l3.8,1.2c-0.1,1.7-0.6,3.1-1.4,4.4s-2.4,1.9-4.7,1.9h-13.9
		c-3.4,0-5.1-1.6-5.1-4.9v-9.7c-1.1,0.8-2.2,1.5-3.3,2.2l-2.3-3.5c4.2-2.2,7.2-4.6,9-7.3h-7.3v-3.7h6.7v-4.3h-6.2v-3.6h6.2v-4.6h4
		v4.6h8v-4.6h4.2v4.6h6.1v3.6h-6.1v4.3h6.5v3.7h-7.5C856.8,40.9,859.7,43.3,863.3,44.9z M851.5,49.2v-3.8h-11v3.8H851.5z
		 M852.9,41.7c-1-1.2-1.8-2.6-2.5-4.1h-5.9c-0.8,1.5-1.8,2.9-2.8,4.1H852.9z M851.4,33.9v-4.3h-8v4.3H851.4z"/>
	<path class="st6" d="M906.5,48h-15.8v13.3h-4.2V48h-15.7V28.6h15.7v-7.4h4.2v7.4h15.8V48z M886.5,44V32.6h-11.5V44H886.5z
		 M902.3,44V32.6h-11.5V44H902.3z"/>
	<path class="st6" d="M954.9,58l-2.5,3.6c-7-2.6-12.9-5.7-17.7-9.5c-5.2,4.1-11.2,7.2-18.1,9.2l-2.3-3.7c7.4-2.4,13.1-5.1,17.1-8.3
		c-3.5-3.7-6.5-8.6-8.9-15l4-1.6c2.2,6.1,5,10.7,8.2,13.7c3.3-3.2,6-8.1,8-14.6h-28v-4.1h17.6c-0.9-2-2-4-3.3-5.8l4.3-1.4
		c1.6,2.6,2.8,5,3.6,7.2h17.7v4.1h-7.4c-2.3,7.5-5.4,13.3-9.2,17.4C942,52.5,947.6,55.4,954.9,58z"/>
	<path class="st6" d="M1000.9,58.3l-2.5,3.3c-9.1-5.8-15-13.5-17.7-23.1c-2.9,9.3-8.8,16.9-17.9,22.8l-2.4-3.6
		c9.4-6.1,15.1-13.6,17.2-22.5h-16.2l0-4.1h16.8c0.3-3.2,0.5-6.5,0.6-9.8h4.1c0,4-0.2,7.3-0.4,9.8h18v4.1h-16.7
		C985.9,45.1,991.7,52.8,1000.9,58.3z"/>
	<path class="st6" d="M1046.7,54.4H1029v2.9c0,1-0.2,1.8-0.7,2.4s-1.1,1-1.8,1.2c-0.7,0.2-2.1,0.3-4.1,0.3c-0.9,0-2,0-3.2-0.1
		l-1.3-3.7c1,0,3.1,0,6.1,0c0.6,0,0.8-0.3,0.8-0.8v-2.3h-18.2v-3.3h18.2v-2c2.3-0.5,4.4-1.1,6.4-1.8h-17.1v-2.9h24.5v2.9
		c-2.5,1.2-5.7,2.4-9.6,3.5v0.3h17.7V54.4z M1046,47.6h-3.9v-5.2h-30.8v5.2h-4.1v-8.4h2.9l-0.8-16.5c3-0.1,6-0.7,9-1.8l1.9,3.2
		c-2.1,0.7-4.4,1.1-6.8,1.4l0.1,2.4h6v3h-5.8l0.1,2.6h5.8v3h-5.6l0.1,2.7h25.3l0.1-2.7h-6.2v-3h6.4l0.1-2.6h-6.5v-3h6.6l0.1-2.4h-7
		v-3.2h11l-0.7,16.9h2.8V47.6z M1032,22.3c-0.7,1-1.7,1.9-3,2.9c0.7,0.7,1.4,1.3,2.1,2l-2.4,2.2c-0.8-0.9-1.5-1.7-2.3-2.3
		c-1.6,0.9-3.1,1.7-4.6,2.3l-1.9-2.6c1.3-0.5,2.6-1.1,3.9-1.8c-0.4-0.4-1.3-1-2.5-1.9l2.2-2.2l3.1,2.2c1-0.7,1.8-1.5,2.4-2.2
		L1032,22.3z M1032.2,36.7l-2.4,2.1c-1.2-1.3-2.2-2.3-3.1-2.9c-1.6,1-3.2,1.9-4.7,2.6l-1.9-2.5c1.1-0.5,2.4-1.2,4-2.1
		c-0.8-0.7-1.8-1.4-3-2.1l2.2-2.3c0.8,0.5,2,1.3,3.6,2.4c1.3-1.1,2.1-1.9,2.6-2.4l2.8,1.7c-0.9,1-1.8,1.9-2.9,2.7
		C1030.4,34.8,1031.3,35.7,1032.2,36.7z"/>
</g>
<g class="st4">
	<path class="st6" d="M745.3,99l-2.7,3.4c-0.7-1.5-1.5-2.9-2.4-4.2v18.1h-3.9v-16.3c-1.1,2.7-2.2,5-3.5,7.1l-2.6-4c3-4.3,5-8.3,6-12
		h-5.7v-3.8h5.8v-5.8c-1.9,0.4-3.3,0.6-4.2,0.7l-1.4-3.7c4.8-0.5,8.8-1.4,11.9-2.8l2.1,3.4c-1.9,0.7-3.3,1.2-4.4,1.4v6.8h4v3.8h-4
		v0.7C741.9,94,743.6,96.4,745.3,99z M770.7,115.6h-26.5V112h11.5v-2.8h-10.2V106h10.2v-2.5h-9.2V88.9h9.2v-2.6h-10.9v-3.2h10.9
		v-2.3c-2.5,0.2-5.5,0.3-9.1,0.4l-1.1-3.2c7.6,0.2,14.9-0.5,22-2.2l1.6,3.1c-2.9,0.7-6.1,1.2-9.7,1.5v2.7h10.9v3.2h-10.9v2.6h9.1
		v14.6h-9.1v2.5h10.2v3.2h-10.2v2.8h11.3V115.6z M755.7,94.6V92h-5.4v2.6H755.7z M755.7,100.3v-2.6h-5.4v2.6H755.7z M764.8,94.6V92
		h-5.3v2.6H764.8z M764.8,100.3v-2.6h-5.3v2.6H764.8z"/>
	<path class="st6" d="M816.7,98H799v14.2c0,1-0.3,1.8-0.9,2.5c-0.6,0.7-1.2,1.1-1.9,1.3c-0.7,0.2-2.2,0.3-4.4,0.3
		c-1.1,0-2.2,0-3.3-0.1l-1.2-4c1.8,0.1,3.2,0.2,4.2,0.2c1.4,0,2.3-0.1,2.7-0.3s0.6-0.6,0.6-1.2V98h-17.9v-4h17.9v-5.6
		c3.5-1.9,6.9-4.3,10.4-7.3h-23.1v-4h29.7v4c-3.5,3.3-7.8,6.5-12.8,9.7V94h17.8V98z"/>
	<path class="st6" d="M863.4,106.2l-2.3,3.4c-2.4-0.9-4.7-2.3-7.1-4.1v2.7h-9.3v3.7h16.5v3.6h-36.9v-3.6h16.1v-3.7h-8.9v-2.8
		c-2.4,1.9-4.8,3.2-7.1,4.2l-2.2-3.5c3.9-1.3,7-3.2,9.1-5.7h-8.6v-3.6h7.5v-14h-6.5v-3.6h6.5v-3h4v3h16.8v-3h4.1v3h6.6v3.6h-6.6v14
		h7.5v3.6h-8.5C856.4,102.8,859.5,104.7,863.4,106.2z M852.7,104.6c-1.9-1.7-3.3-3-4.1-4.1h-12.5c-1.1,1.6-2.2,3-3.5,4.1h7.9v-2.9
		h4.2v2.9H852.7z M850.9,85.3v-2.4h-16.8v2.4H850.9z M850.9,91v-2.5h-16.8V91H850.9z M850.9,96.8v-2.7h-16.8v2.7H850.9z"/>
	<path class="st6" d="M909.1,89.3l-2,3.6c-2.2-0.9-4.5-2.1-6.9-3.4v2.6h-9.4v4.5h15.5v4h-15.5v10.7h16.6v3.9h-37.2v-3.9h16.4v-10.7
		h-15.2v-4h15.2v-4.5h-9.6v-2.5c-1.7,1-3.8,2.1-6.2,3.2l-2.6-3.5c9.4-4.1,15.9-8.6,19.5-13.5l4.2,1.2c-0.1,0.3-0.3,0.6-0.6,0.9
		C894.8,81.9,900.7,85.7,909.1,89.3z M883.4,109.2l-3.9,1.3c-1.1-2-2.8-4.4-5.2-7.2l3.9-1.6C880.6,104.4,882.3,106.9,883.4,109.2z
		 M898,88.2c-4-2.4-7.1-4.8-9.4-7.1c-2.6,2.6-5.7,4.9-9.2,7.1H898z M903.2,103.2c-1.6,2.9-3.2,5.4-5,7.3l-4-1.8
		c1.8-1.8,3.4-4.2,5-6.9L903.2,103.2z"/>
	<path class="st6" d="M927.2,97c-1.9,1-3.2,1.7-3.9,2v13.8c0,1.2-0.4,2.2-1.1,2.7c-0.7,0.6-2,0.9-3.9,0.9c-0.8,0-1.6,0-2.3-0.1
		l-1.2-4l3.8,0c0.4,0,0.7-0.3,0.7-0.8v-10.6c-1.5,0.7-2.9,1.2-4.3,1.6l-0.9-3.9c1.2-0.4,2.9-1,5.1-2v-9h-4.7v-3.9h4.7v-7.5h4v7.5
		h2.9v3.9h-2.9v7.1c1-0.4,2.1-0.9,3.2-1.6L927.2,97z M939.4,79.8c0,0.5-0.7,1.7-2.1,3.7c-1.4,2-3.2,3.8-5.4,5.3h6.4v10.7H932
		l-0.3,3.8h6.8c-0.1,5.8-0.3,9.1-0.8,10.1s-1.1,1.7-2.1,2.2c-0.9,0.5-3,0.6-6.1,0.6l-1.3-3.9c1.2,0.1,2.8,0.1,4.6,0.1
		c0.6,0,1.1-0.2,1.3-0.7s0.4-2.2,0.5-5.2h-6.9l0.7-10.6h6v-3.8h-5.6v-1.4c-0.3,0.2-0.7,0.4-1.1,0.6l-2.6-2.9c2.1-1,3.8-1.9,5.1-2.9
		c-0.8-0.8-1.8-1.6-3.2-2.4l2.3-2.5c1.4,0.7,2.6,1.6,3.6,2.5c1-0.9,1.9-2,2.6-3.2h-7.7v-3.3h11.7V79.8z M955.2,114.2l-2.9,2.5
		c-1.9-2.3-3.5-4-4.9-5.1c-1.9,1.8-4.2,3.5-6.9,4.9l-2.1-3c2.8-1.4,4.9-2.8,6.3-4.2c-0.9-0.8-2.4-2-4.4-3.3l2.3-2.1h-3v-3.4h13.1
		v3.4c-0.8,1.8-1.8,3.4-2.8,5C952.3,111.1,954.1,112.9,955.2,114.2z M955.2,88.8l-2.4,2.8c-0.5-0.2-1.2-0.6-2.1-1.2v4.4
		c0,0.4,0.2,0.7,0.7,0.7h3v3.3h-4.5c-1.8,0-2.6-0.9-2.6-2.6v-3.9h-2.4c0,3.2-0.9,5.7-2.7,7.5l-3-1.9c1.5-1.4,2.2-3.5,2.2-6.3v-2.7
		h7.1c-3.6-2.9-6.4-6.7-8.3-11.5l3.2-1.5c1,2.1,1.5,3.2,1.6,3.3c1.3-0.9,2.4-1.9,3.4-3.1l2.7,2.1c-1.3,1.5-2.8,2.7-4.4,3.7
		c0.2,0.3,0.6,0.9,1.2,1.6c1.5-0.8,2.9-1.7,4-2.9l2.4,2.1c-0.9,1-2.2,2-3.9,3.1C952,86.9,953.5,87.9,955.2,88.8z M948.8,103.8h-5.4
		c2,1.4,3.3,2.3,3.8,2.7C947.9,105.5,948.4,104.6,948.8,103.8z"/>
	<path class="st6" d="M968.1,104.1c-1.2,4.3-2.7,8-4.5,10.9l-3.3-2.1c1.7-2.5,3.2-5.8,4.4-9.8L968.1,104.1z M983,102.1h-9.1v9.8
		c0,1.4-0.3,2.5-1,3.3c-0.7,0.8-1.9,1.2-3.7,1.2c-0.4,0-1.1,0-2-0.1l-1.2-4c0.2,0,1,0,2.5,0c0.9,0,1.4-0.5,1.4-1.5v-8.8h-9.2v-3.5
		H983V102.1z M982.4,82.8h-8.5v3h7v3.4h-18v-3.4h7v-3h-8.5v-3.5h8.5V76h4v3.3h8.5V82.8z M980.8,95.6h-18v-3.5h18V95.6z M981.5,109.4
		l-3.3,1.8c-0.7-2.1-1.7-4.2-2.9-6.3l3.1-1.6C979.8,105.2,980.8,107.2,981.5,109.4z M1001.4,113.6l-2.7,3.1
		c-4.8-4.1-7.6-8.6-8.5-13.5c-0.9,4.9-3.9,9.4-9,13.3l-2.8-3.1c6.8-4,10.1-11.4,10.1-22.2c0-0.9,0-1.9-0.1-2.9h4
		c-0.1,4.8,0.1,8.5,0.4,11.1s1.2,5,2.5,7.4C996.7,109.1,998.7,111.4,1001.4,113.6z M1000.8,82.2c-0.6,6-1.7,11-3.4,15.2l-3.4-1.8
		c1.2-2.8,2-5.9,2.6-9.5h-8.7c-1.4,3.4-2.7,6-4,7.9l-2.8-2.9c2.4-3.7,4.4-8.8,6.1-15.3l3.7,0.8c-0.5,2.2-1.1,4-1.6,5.5H1000.8z"/>
	<path class="st6" d="M1047.1,90.2l-1.9,3.7c-1.2-0.2-2.5-0.6-4-1.1V110h-19.4l2,2.3c-4.3,2-9.4,3.5-15.3,4.4l-2-3.7
		c4.4-0.5,8.6-1.5,12.6-3h-6.8V92.6h8.7l-1.8-2.5c5.4-1.4,9.4-3.8,12-7.2l4.2,0.9c-0.4,0.8-0.8,1.3-1,1.5
		C1037.6,87.5,1041.8,89.1,1047.1,90.2z M1020.2,88.9h-13.4v-3.8h13.4V88.9z M1019.7,81.6h-12.4v-3.7h12.4V81.6z M1037,97.5v-1.6
		h-20.5v1.6H1037z M1037,102.2v-1.7h-20.5v1.7H1037z M1037,107v-1.8h-20.5v1.8H1037z M1046.3,82.1c-1.4,2-2.8,3.8-4,5.1l-3.5-2.1
		c0.4-0.4,1.2-1.5,2.5-3.1h-14.5c-1.4,1.6-2.8,3-4,4l-3.1-2.7c2.4-1.7,4.7-4.3,6.9-7.8l3.8,1.3c-0.1,0.5-0.4,1.1-0.9,1.6h16.9V82.1z
		 M1040.7,92.6c-3.1-1-6.1-2.5-9-4.4c-1.9,1.7-4.4,3.2-7.5,4.4H1040.7z M1046.8,113.3l-2.2,3.5c-4-1.3-8.5-2.2-13.5-2.8l2.1-3.5
		C1038.1,111.1,1042.6,112,1046.8,113.3z"/>
	<path class="st6" d="M1073.2,109.6c-5,2-11.6,4-19.7,6.1l-1.3-3.9c1.7-0.4,2.7-0.6,3.1-0.7V77.3h15.9v28.9c0.5-0.1,1.1-0.3,1.8-0.6
		L1073.2,109.6z M1067.2,87.2v-6.1h-8v6.1H1067.2z M1067.2,97.8v-6.7h-8v6.7H1067.2z M1067.2,107.6v-6h-8v8.4
		C1062.6,109.1,1065.2,108.3,1067.2,107.6z M1091.6,84.6c0,6.8-0.1,13-0.4,18.6s-0.5,8.9-0.9,9.9c-0.4,1-1,1.8-1.8,2.3
		c-0.8,0.5-2.2,0.8-4,0.8c-0.8,0-1.9,0-3.3-0.1l-1.4-4.2c0.3,0,2.3,0,5.8,0c0.4,0,0.7-0.2,0.9-0.6c0.3-0.4,0.5-2.9,0.7-7.7
		c0.2-4.7,0.3-9.8,0.3-15.2h-4.6c-0.3,7.5-1.2,13.2-2.6,17.1s-3.6,7.6-6.5,11.1l-3.1-2.7c2.5-2.8,4.4-6.1,5.8-9.7
		c1.4-3.6,2.2-8.9,2.3-15.8h-6v-4h6c0.1-2.4,0.1-5.2,0.1-8.5h4c0,2.5,0,5.3-0.1,8.5H1091.6z"/>
</g>
<path class="st3" d="M1155,232.5c0-10.8,8.7-19.5,19.5-19.5s19.5,8.7,19.5,19.5s-8.7,19.5-19.5,19.5S1155,243.3,1155,232.5z"/>
<g class="st4">
	<path class="st5" d="M991.1,402.3c4.4,0.9,8.6,0.5,12.7-1.5c3-1.4,5.1-3.3,6.2-5.6c1.1-2.3,1.1-4.7-0.1-7.3
		c-2.6-5.6-7.9-6.4-16-2.6l-4,1.9l-2.7-5.8l3.8-1.8c7.2-3.4,9.6-7.7,7.2-12.9c-2.3-4.8-6.2-6-11.7-3.4c-3.3,1.5-5.9,4.1-7.8,7.7
		l-3-6.4c2.3-3.2,5.5-5.8,9.8-7.8c4.1-1.9,7.9-2.4,11.4-1.6c3.6,0.8,6.2,3,7.8,6.5c2.9,6.2,1.6,11.6-3.9,16.3l0.1,0.1
		c3.5-1.2,6.7-1.3,9.7-0.2c3,1.1,5.2,3.2,6.6,6.2c2.1,4.4,2.1,8.6,0.1,12.6c-2,4-5.5,7.2-10.6,9.6c-4.6,2.2-8.7,3.1-12.3,2.7
		L991.1,402.3z"/>
	<path class="st5" d="M1033.9,335.1l3,65.8l-6.5,3.1l-3.1-65.7L1033.9,335.1z"/>
	<path class="st5" d="M1085.2,360.6l3.1,6.7l-29.1,13.6l-1.3-2.7c-1.5-3.1-2-6.4-1.7-9.9c0.3-3.5,1.5-7.2,3.7-11.3
		c2.5-4.9,4.2-8.4,4.9-10.5c0.7-2.1,1.1-4,1.1-5.6s-0.3-3.2-1-4.6c-1.1-2.3-2.7-3.7-5-4.3c-2.2-0.6-4.8-0.2-7.8,1.2
		c-3.7,1.7-6.6,4.6-8.8,8.4l-2.9-6.2c2.7-4.2,6.4-7.4,11-9.6c4.4-2,8.3-2.5,12-1.3c3.6,1.2,6.4,3.7,8.3,7.7c1.1,2.3,1.7,4.5,1.8,6.7
		c0.1,2.2-0.2,4.5-0.8,6.7c-0.6,2.3-2.1,5.5-4.4,9.8c-1.9,3.5-3.2,6-3.7,7.5c-0.6,1.5-0.9,2.8-1.1,4.1c-0.2,1.3,0,2.4,0.5,3.4
		L1085.2,360.6z"/>
	<path class="st5" d="M1084.7,341.2c-3.9-8.3-5.4-15.3-4.6-20.9c0.8-5.6,3.9-9.7,9.3-12.2c10.3-4.8,19.2,0.8,26.7,17
		c3.7,7.9,5.1,14.6,4.3,20.2c-0.8,5.6-3.9,9.6-9.2,12.1c-5.1,2.4-10,2.2-14.5-0.6C1092.3,354.1,1088.3,348.8,1084.7,341.2z
		 M1091.9,337.5c5.6,12,11.4,16.7,17.2,14c5.8-2.7,5.8-10.2,0-22.5c-5.9-12.6-11.7-17.6-17.3-15
		C1085.8,316.9,1085.8,324.7,1091.9,337.5z"/>
	<path class="st5" d="M1159.7,325.7l3.1,6.7l-29.1,13.6l-1.3-2.7c-1.5-3.1-2-6.4-1.7-9.9s1.5-7.2,3.7-11.3c2.5-4.9,4.2-8.4,4.9-10.5
		c0.7-2.1,1.1-4,1.1-5.6s-0.3-3.2-1-4.6c-1.1-2.3-2.7-3.7-5-4.3c-2.2-0.6-4.8-0.2-7.8,1.2c-3.7,1.7-6.6,4.6-8.8,8.4l-2.9-6.2
		c2.7-4.2,6.4-7.4,11-9.6c4.4-2,8.3-2.5,12-1.3c3.6,1.2,6.4,3.7,8.3,7.7c1.1,2.3,1.7,4.5,1.8,6.7c0.1,2.2-0.2,4.5-0.8,6.7
		c-0.6,2.3-2.1,5.5-4.4,9.8c-1.9,3.5-3.2,6-3.7,7.5c-0.6,1.5-0.9,2.8-1.1,4.1c-0.2,1.3,0,2.4,0.5,3.4L1159.7,325.7z"/>
	<path class="st5" d="M1196.9,308.3l3.1,6.7l-29.1,13.6l-1.3-2.7c-1.5-3.1-2-6.4-1.7-9.9c0.3-3.5,1.5-7.2,3.7-11.3
		c2.5-4.9,4.2-8.4,4.9-10.5c0.7-2.1,1.1-4,1.1-5.6c0-1.6-0.3-3.2-1-4.6c-1.1-2.3-2.7-3.7-5-4.3c-2.2-0.6-4.8-0.2-7.8,1.2
		c-3.7,1.7-6.6,4.6-8.8,8.4l-2.9-6.2c2.7-4.2,6.4-7.4,11-9.6c4.4-2,8.3-2.5,12-1.3s6.4,3.7,8.3,7.7c1.1,2.3,1.7,4.5,1.8,6.7
		c0.1,2.2-0.2,4.5-0.8,6.7c-0.6,2.3-2.1,5.5-4.4,9.8c-1.9,3.5-3.2,6-3.7,7.5c-0.6,1.5-0.9,2.8-1.1,4.1s0,2.4,0.5,3.4L1196.9,308.3z"
		/>
</g>
<path class="st1" d="M1226.5,520.5c-28.7,0-52-23.3-52-52"/>
<path class="st1" d="M1174.5,381.5v88.3"/>
<path class="st1" d="M1306,520.5l-79.5,0"/>
<g class="st4">
	<path class="st6" d="M1356.2,506l-1.8,3.7c-7.4-0.7-13.7-2-18.9-4c-5.6,1.8-11.8,3.2-18.5,4l-1.8-3.8c5.3-0.4,10.3-1.3,15.1-2.6
		c-1.9-1-3.7-2.1-5.6-3.5c-1.9,1.1-4.1,2.1-6.4,3.1l-2.4-3.2c2.4-0.9,4.2-1.7,5.4-2.5c-0.3-0.2-0.7-0.6-1.3-1.2l2.8-2.4
		c0.7,0.6,1.4,1.2,2.1,1.6c1.6-1,3.2-2.1,4.6-3.4c-1.5-0.4-2.3-1.5-2.3-3v-5.1h4v3.7c0,0.8,0.4,1.2,1.3,1.2c0.9,0,1.9,0,3.2,0
		c2.5,0,3.9-0.1,4.2-0.2c0.4-0.1,0.6-0.4,0.8-0.9c0.2-0.5,0.2-1.2,0.2-2.1l4,1.2c-0.1,1.5-0.4,2.6-0.8,3.3s-1.1,1.3-1.9,1.5
		c-0.8,0.2-3.3,0.3-7.5,0.3c-1,1.1-1.8,1.9-2.4,2.4h16.6v3.3c-3.1,2.5-5.8,4.4-8.1,5.6C1345,504.7,1350.1,505.6,1356.2,506z
		 M1354.6,486.4h-4.1v-4h-29.9v4h-4.2V479h38.1V486.4z M1325.8,485.9c-1.4,2.7-3.4,5.4-6.2,8.2l-3.1-2.2c2.5-2.5,4.6-5.1,6.1-7.8
		L1325.8,485.9z M1352.9,472c-9.7,1.4-21.2,2.1-34.5,2.2l-1.4-3.5c2.7,0.1,5.3,0.1,7.6,0.1c10.7,0,19.4-0.6,26.1-1.9L1352.9,472z
		 M1328.1,477.3l-4.3,1.2c-1.5-1.2-2.8-2.1-4-2.7l4.3-1.4C1325.5,475.2,1326.9,476.1,1328.1,477.3z M1342.5,497.8h-13.9
		c2,1.5,4.3,2.7,6.9,3.8C1338.2,500.6,1340.5,499.3,1342.5,497.8z M1339.5,477.2l-4.2,1.3c-1.1-0.8-2.6-1.8-4.3-2.9l4.2-1.5
		C1336.7,475,1338.2,476,1339.5,477.2z M1339.8,486.4l-3.5,1.8c-0.8-1.1-1.9-2.3-3.3-3.5l3.3-1.8
		C1337.7,484,1338.9,485.2,1339.8,486.4z M1351.5,474.9c-1.4,1.4-3,2.6-4.8,3.6l-4.5-1.5c2-1.2,3.8-2.4,5.3-3.6L1351.5,474.9z
		 M1353.3,491.6l-3.2,2c-1.6-3-3.4-5.7-5.5-8.3l3.2-1.8C1349.8,486,1351.7,488.8,1353.3,491.6z"/>
	<path class="st6" d="M1383.7,479.8h-8.9v2.6h7.9v13.5h-7.9v2.6h7.9v3.2h-7.9v2.9c2.9-0.3,5.6-0.7,8.2-1.2l0.2,3.3
		c-6.6,1.1-13.7,2-21.1,2.8l-0.8-3.3l9.9-1v-3.5h-8v-3.2h8v-2.6h-8v-13.5h8v-2.6h-9.2v-3.4h9.2v-2.6c-2,0.3-4.4,0.5-7.2,0.6l-1-3.2
		c7-0.3,13.2-1,18.7-2.2l1.6,2.9c-2.2,0.5-5,1-8.4,1.4v3h8.9V479.8z M1371.2,487.7v-2.4h-4.3v2.4H1371.2z M1371.2,492.9v-2.3h-4.3
		v2.3H1371.2z M1379,487.7v-2.4h-4.2v2.4H1379z M1379,492.9v-2.3h-4.2v2.3H1379z M1400.7,477.7c0,6.4-0.2,12.6-0.4,18.5
		c-0.3,5.9-0.5,9.4-0.8,10.3s-0.8,1.6-1.5,2.1c-0.8,0.5-2,0.8-3.7,0.8c-0.8,0-1.6,0-2.4-0.1l-1.1-3.9c1.2,0.1,2.1,0.1,2.8,0.1
		c1.3,0,2.1-0.2,2.3-0.5c0.2-0.3,0.5-3.1,0.8-8.2c0.3-5.1,0.4-10.2,0.3-15.3h-4c-0.1,11.2-2.1,20.5-6.1,28l-3.5-1.8
		c4.1-7.4,6-16.1,5.7-26.2h-4v-3.8h4.1c0.1-3.8,0.1-6.6,0-8.4h4c0,2.9,0,5.7-0.1,8.4H1400.7z"/>
	<path class="st6" d="M1429.6,487.4l-2.2,2.9c-2.2-1.7-5-3.4-8.6-5.3c-2.3,3-5.5,5.2-9.5,6.6l-2.5-3.1c4.9-1.8,8-4,9.3-6.4h-8.3
		v-3.5h9.2c0.2-0.9,0.3-2.1,0.3-3.7h-3.6c-1,1-2.1,2-3.3,2.9l-3.1-2.4c2.9-2.3,5.1-4.7,6.8-7l3.8,1.1c-0.4,0.7-0.7,1.3-1.1,1.8h11.5
		v3.5h-6.8l-0.3,3.7h8.2v3.5h-8.8C1423.6,483.6,1426.7,485.4,1429.6,487.4z M1443,509.4h-4.1v-2.3h-23v2.2h-4.1v-18.2h31.2V509.4z
		 M1438.9,497.4v-2.7h-23v2.7H1438.9z M1438.9,503.6v-2.8h-23v2.8H1438.9z M1446.4,488.2H1431v-16.6h15.4V488.2z M1442.5,484.6v-9.3
		h-7.5v9.3H1442.5z"/>
	<path class="st6" d="M1477.2,471.8c-1.6,3-3.4,5.8-5.5,8.4h3.4v3.6h-6.5c-0.7,0.8-1.9,2-3.7,3.5h8v3.4c-1.5,1.4-3.5,3-5.8,4.8v0.7
		c3-0.4,5.7-1,8.2-1.5l0,3.8c-1.4,0.3-4.1,0.7-8.2,1.3v5.1c0,1.4-0.3,2.5-1,3.2c-0.7,0.7-2.1,1.1-4.3,1.1c-0.8,0-1.7,0-2.7-0.1
		l-1.2-4c1.3,0.1,2.4,0.1,3.2,0.1c1.4,0,2.1-0.3,2.1-0.9v-3.9c-4.3,0.6-7.4,0.9-9.3,1.1l-0.7-3.8c3.5-0.2,6.9-0.5,10-1v-2.8
		c1.6-1.1,3-2.1,4.3-3.1h-7.3c-1,0.8-2.8,1.8-5.2,3l-2.1-3.1c3.8-1.8,7.4-4.1,10.6-7h-10.1v-3.6h8.4v-4h-6.6v-3.5h6.6v-3.7h4v3.7
		h4.6v3.2c1.6-2.3,2.7-4.2,3.4-5.8L1477.2,471.8z M1470.2,476.3h-4.4v4h1.3C1467.9,479.4,1468.9,478.1,1470.2,476.3z M1493.8,506.3
		l-2.4,3.2c-3.2-2-5.9-4.3-7.9-6.9c-2.5,2.7-5.5,4.9-9.1,6.8l-2.8-3c4.2-2.1,7.4-4.4,9.7-7.1c-1.2-1.9-2.2-5-3.1-9.3l3.5-1.6
		c0.5,2.8,1.1,5.1,2,7.1c1.8-4,2.8-9.3,3-16h-4.9c-1.2,3.9-2.9,7.7-5,11.3l-2.6-3.1c3.1-5.4,5.1-11.6,5.8-18.8l3.7,0.7
		c-0.3,2.1-0.6,4.1-1,6.1h10.5v3.8h-2.8c-0.4,9-2,15.7-4.7,20.1C1487.8,502.1,1490.5,504.4,1493.8,506.3z"/>
	<path class="st6" d="M1539.5,475.7h-23.8c-2.3,2.1-4.5,3.7-6.6,4.9c5.6,0,11.8-0.3,18.6-0.9c-0.5-0.3-1.3-0.8-2.3-1.4l3.7-2.2
		c4.1,2.4,7.3,4.7,9.5,6.8l-3,2.7c-1.1-1.1-2.3-2-3.5-2.9c-11.6,0.9-21.5,1.4-29.8,1.5l-0.8-3.5c3.1-1.1,5.9-2.8,8.4-5.1h-10.5v-3.6
		h14.4c0.9-1,1.9-2.1,2.9-3.4l4.9,0.9c-0.4,0.6-1.1,1.5-2.1,2.5h20V475.7z M1534.8,505.8c0,0.7-0.2,1.3-0.7,2
		c-0.4,0.6-1,1.1-1.7,1.2c-0.7,0.2-2.1,0.3-4.3,0.3c-1.3,0-2.6,0-3.9-0.1l-1.2-3.9c1.3,0.1,2.6,0.2,3.8,0.2c1.9,0,3-0.1,3.3-0.3
		c0.4-0.2,0.5-0.4,0.5-0.8v-4.4c-6.3,1.4-13.5,2.8-21.4,4.1l-1.3-2.9c-1.1,4-2.7,6.8-4.7,8.4l-3.7-2.3c3.3-2.4,4.9-6.5,4.9-12.1V486
		h30.3V505.8z M1530.7,496.4v-6.7h-22v2.3c7.5,0.3,13.6,0.6,18.4,0.9l-1.2,3.5c-6.1-0.5-11.8-0.8-17.2-0.9c-0.1,1.9-0.2,3.6-0.5,4.9
		C1515.5,499.5,1523,498.1,1530.7,496.4z"/>
	<path class="st6" d="M1560.4,500.1c-3.8,3-8.1,5.4-12.6,7.2l-2.4-3.3c4.4-1.6,8.5-3.8,12-6.5L1560.4,500.1z M1584.9,495.6l-3.4,2.4
		c-1.1-1.5-1.9-2.6-2.5-3.4c-4.3,0.5-8.1,0.9-11.3,1.1v9.4c0.1,1.2-0.3,2.2-1.1,3c-0.8,0.7-3.2,1.1-7.3,1.1l-1.6-4.1
		c1.7,0.1,3.2,0.2,4.7,0.2c0.8,0,1.2-0.4,1.2-1.2v-8c-6.3,0.3-11,0.5-14,0.5l-1-3.5c3.9-1.1,8.4-3,13.6-5.7
		c-5.4,0.3-9.2,0.4-11.5,0.4l-0.7-3c6.3-2,11.9-5.2,16.9-9.6l3.8,2.2c-3,2.7-6.8,5-11.2,6.9l3.6-0.2l5.5-0.4c0.3,0,1.3-0.7,3.1-2
		l3.2-2.4l3.6,2.5c-7.2,5.1-14,8.8-20.3,11c5.4-0.2,11.3-0.7,17.8-1.5c-0.8-0.8-1.7-1.7-2.7-2.6l3.6-2.1
		C1580.3,489.9,1583,492.9,1584.9,495.6z M1570.8,471c-4.6,3.7-11.1,6.7-19.4,9l-2.4-3.5c7.4-1.6,13.5-4.1,18.3-7.7L1570.8,471z
		 M1585.9,504.5l-2.8,3.1c-3.1-2.6-7.1-5.2-12.1-7.6l2.9-2.9C1578.8,499.6,1582.8,502,1585.9,504.5z"/>
	<path class="st6" d="M1597.1,498.6c-0.6,4.6-1.6,8.3-2.9,11.1l-3.5-1.6c1.4-2.6,2.4-6,3-10.1L1597.1,498.6z M1608.3,495.5l-3.6,1.2
		c0-0.2-0.2-1-0.5-2.4c-4,1.2-8.1,2.1-12.2,2.7l-0.7-3.1c2.7-2.1,5.4-5.3,8.3-9.4c-2.4,0.4-4.8,0.6-7.1,0.8l-0.5-2.7
		c3.4-3.8,6.2-8.4,8.2-13.8l3.8,1.3c-1.9,4.5-4.2,8.3-6.6,11.3c1.6-0.1,3-0.3,4.4-0.5c0.9-1.4,1.6-2.7,2.2-4l3.5,1.8
		c-3.2,5.8-6.4,10.3-9.7,13.7c1.9-0.4,3.7-0.9,5.3-1.4c-0.3-0.9-0.6-1.5-0.7-2l3.2-1.4C1606.8,490.4,1607.7,493,1608.3,495.5z
		 M1603.1,507.7l-3.5,0.8c0.1-3-0.3-6.3-1.1-9.9l3.2-0.8C1602.5,501.4,1603,504.8,1603.1,507.7z M1608.4,503.8l-3.1,1.2
		c-0.5-2.6-1.1-4.8-1.8-6.5l3-1.1C1607.4,499.1,1608,501.2,1608.4,503.8z M1631.9,498.5c-0.3,4.8-0.6,7.5-0.8,7.9
		c-0.3,0.5-0.7,1-1.4,1.7c-0.7,0.6-2.2,0.9-4.7,0.9c-2.1,0-3.5-0.3-4.1-0.9c-0.7-0.6-1-1.9-1-3.8v-15.5c-1.5,0.2-2.7,0.4-3.5,0.5
		c0,3.3-0.2,6.1-0.5,8.4s-1.1,4.5-2.3,6.6c-1.2,2.1-2.8,4-4.8,5.6l-2.9-2.8c1.3-0.9,2.6-2.2,3.7-3.8s1.9-3.3,2.4-5.2
		c0.5-1.9,0.7-4.7,0.6-8.3l-4,0.4l-0.7-3c2.6-3.2,4.7-6.5,6.4-10.1h-6.8v-3.8h8.4c0.4-0.9,0.9-2.3,1.5-4.2l4.2,0.7
		c-0.5,1.5-1,2.7-1.3,3.6h11.4v3.8h-13.1c-1.3,2.9-3.1,5.9-5.3,9c3.9-0.2,7.5-0.7,10.8-1.3c-0.6-0.9-1.3-1.9-2.4-3l3.3-2.1
		c3.2,3.8,5.4,7,6.8,9.6l-3.4,2.3c-0.8-1.5-1.5-2.7-2.1-3.6l-2.3,0.4v16.1c0,0.7,0.7,1.1,2,1.1c1.1,0,1.8-0.4,2-1.2
		c0.2-0.8,0.4-3.2,0.6-7L1631.9,498.5z"/>
	<path class="st6" d="M1677.5,477.4h-22.3c-0.6,1.2-1.4,2.5-2.4,4h21.6V506c0,1-0.3,1.8-0.8,2.4c-0.5,0.6-1.4,0.8-2.5,0.9
		c-1.1,0-2.2,0-3.3,0c-1.7,0-3.1,0-4.2-0.1l-1.8-4.1c1.9,0.1,4.4,0.1,7.5,0.1c0.6,0,1-0.4,1-1.1V500h-20.5c-0.8,3.2-2.4,6.3-4.8,9.3
		l-3.9-2.2c3.3-3.6,5-7,5-10.2v-7.4c-2,2.1-4,3.8-6,5.1l-2.9-3.1c5.5-3.7,9.9-8.4,13.3-14.1h-12.8v-4h15c1-1.7,1.7-3.2,2.1-4.6
		l4.2,0.7c-0.4,1.2-0.9,2.5-1.6,3.9h20.3V477.4z M1670.2,488.9v-3.6h-20v3.6H1670.2z M1670.2,496.2v-3.6h-20v3.6H1670.2z"/>
	<path class="st6" d="M1694.8,483.2c2.6,3.7,3.8,7.2,3.8,10.5c0,4.3-2.1,6.4-6.3,6.4c-0.4,0-0.9,0-1.5,0l-1.1-4.1
		c0.6,0.1,1.3,0.2,2,0.2c1.1,0,1.8-0.1,2.2-0.4c0.4-0.3,0.6-0.9,0.6-1.8c0-3.4-1.4-6.8-4.1-10.3c0.9-2.1,1.9-5.3,3.2-9.6h-5.1v35.4
		h-4v-39.5h13.3v4.1C1696.9,477.4,1695.9,480.4,1694.8,483.2z M1721.2,489.2h-16.5V504c2.1-0.6,4.4-1.5,6.8-2.7l0.2,4.3
		c-4.1,1.8-7.6,3-10.4,3.7l-1.5-3.4c0.6-0.4,0.9-1,0.9-1.8v-34.1h20.5V489.2z M1717.1,477.8v-4.1h-12.4v4.1H1717.1z M1717.1,485.6
		v-4.1h-12.4v4.1H1717.1z M1723.8,506.3l-2.3,3.4c-6.5-4-10.8-9.8-12.8-17.5l3.7-1.1c0.6,2,1.2,3.7,2,5.2c2-1.4,3.9-3.3,5.8-5.5
		l2.9,2.7c-2.3,2.8-4.5,4.9-6.7,6.5C1718.4,502.3,1720.9,504.5,1723.8,506.3z"/>
	<path class="st6" d="M1746.5,470.3c-3,8.1-7.9,14.9-14.8,20.4l-2.6-3.5c6.2-4.6,10.6-10.7,13.3-18.3L1746.5,470.3z M1767,507.1
		l-3.7,2.5c-0.9-2-1.7-3.7-2.6-5.2c-7.1,1.7-15.7,3.2-26,4.6l-1.2-3.5c3.9-2.8,8.5-10.6,13.8-23.4l4.2,1.2
		c-3.7,8.7-7.6,15.7-11.5,20.9c6.9-0.8,13.1-1.9,18.6-3.3c-0.9-1.6-2.5-3.9-4.8-7l3.4-2.2C1761.1,496.6,1764.3,501.7,1767,507.1z
		 M1770,487.5l-2.4,3.6c-5.7-4-9.9-9.9-12.7-17.6h-3.7v-3.9h6.7C1760.1,477.4,1764.2,483.4,1770,487.5z"/>
	<path class="st6" d="M1814.1,504c0,3.6-1.8,5.4-5.3,5.4c-3.1,0-5.4,0-6.8-0.1l-1.2-4.1c3.4,0.1,5.8,0.1,7.1,0.1c1.3,0,2-0.4,2-1.2
		v-30.3h-34.4V470h38.6V504z M1806.2,481.5h-29.7v-3.7h29.7V481.5z M1803.2,501.3h-24.1v-15.5h24.1V501.3z M1799.1,497.4v-7.9h-15.8
		v7.9H1799.1z"/>
</g>
<g class="st4">
	<path class="st6" d="M1355.4,563.1h-40.1v-3.9h5.7v-23.4h4.2v23.4h8.8v-29.9h-17.6v-4h38v4h-16.3v11.9h14.7v4h-14.7v14h17.3V563.1z
		"/>
	<path class="st6" d="M1401.5,554.5c-0.5,6.7-2.4,10-5.7,10c-2.8,0-5.3-2.7-7.3-8s-3.2-12.3-3.5-21h-23.6v-3.9h23.5
		c-0.2-3.1-0.2-5.6-0.2-7.5h4.1c0,1.8,0,4.3,0.2,7.5h12.4v3.9h-12.2c0.2,8.7,1.1,14.9,2.8,18.9c1.7,3.9,2.9,5.9,3.7,5.9
		c0.9,0,1.5-2.6,1.7-7.9L1401.5,554.5z M1384.5,557.2c-8.5,2.1-15.7,3.5-21.5,4.3l-0.9-3.8c2.7-0.3,5.7-0.8,9-1.4v-12.2h-7.4v-3.9
		h19.5v3.9h-7.9v11.3c3.7-0.8,6.8-1.5,9.1-2.2L1384.5,557.2z M1400.2,528.5l-3,2.6c-1.9-1.8-3.9-3.1-5.8-4l3.1-2.8
		C1396.8,525.6,1398.7,527,1400.2,528.5z"/>
	<path class="st6" d="M1447.7,555.5c-0.7,6.1-2.5,9.1-5.3,9.1c-2.8,0-5.3-2.8-7.5-8.4c-3.2,3.3-6.6,6.2-10.3,8.7l-2.9-3
		c5-3.2,8.9-6.5,11.7-9.8c-1.4-5.3-2.3-10.8-2.7-16.7h-15.7v5h12.2c-0.1,3.8-0.3,6.7-0.5,8.9c-0.2,2.1-0.4,3.8-0.5,4.9
		c-0.2,1.1-0.5,2.1-1.2,2.9c-0.6,0.8-1.4,1.3-2.3,1.5c-0.9,0.2-2.1,0.3-3.5,0.3c-0.7,0-1.5,0-2.2-0.1l-1.1-3.8
		c0.9,0,1.7,0.1,2.4,0.1c2.2,0,3.4-0.2,3.7-0.7c0.3-0.5,0.5-1.9,0.8-4.1s0.4-4.2,0.4-5.8h-8.1c-0.2,8.8-1.9,15.6-4.9,20.5l-3.2-3
		c2.8-4.6,4.1-11.5,4.1-20.6v-9.8h19.5c-0.1-2.5-0.1-4.9-0.1-7.3h4.2c0,0.8-0.1,1.6-0.1,2.4c0,1.5,0.1,3.1,0.2,4.9h12v3.9H1435
		c0.2,4.2,0.7,8.4,1.7,12.6c1.8-2.7,3.4-6.1,4.9-10.2l3.7,1.3c-2,5.5-4.4,10-7.2,13.6c0.5,1.8,1.2,3.4,2,4.9
		c0.8,1.4,1.3,2.2,1.5,2.4c0.2,0.1,0.4,0.2,0.7,0.2c0.3,0,0.5-0.1,0.6-0.3c0.2-0.2,0.4-0.9,0.7-2.3c0.3-1.3,0.5-2.6,0.5-3.9
		L1447.7,555.5z M1445.5,527.9l-2.3,3c-1.7-1.2-3.9-2.4-6.6-3.4l2.3-3.1C1441.4,525.4,1443.6,526.5,1445.5,527.9z"/>
	<path class="st6" d="M1493.3,563.1h-40V559h11.7c-1.4-8.2-3.4-15.3-5.8-21.2l3.2-2.2h-7.5v-4.1h16.7c-0.8-2.2-1.8-4.3-3-6.4
		l4.4-1.5c1.3,2.5,2.5,5.2,3.5,7.9h15.6v4.1h-8.2l3.4,2.2c-0.9,6.2-2.7,13.3-5.5,21.2h11.5V563.1z M1483.4,535.6h-20.3
		c2.6,7,4.7,14.8,6.1,23.4h8.1C1480.4,550.4,1482.4,542.6,1483.4,535.6z"/>
</g>
<path class="st1" d="M1581,70.5c-28.4,0-51.5,23.5-51.5,52.5"/>
<path class="st1" d="M1529.5,211.2l0-88.7"/>
<path class="st1" d="M1661,70.5h-79.5"/>
<path class="st3" d="M1509,230.5c0-10.8,8.7-19.5,19.5-19.5s19.5,8.7,19.5,19.5s-8.7,19.5-19.5,19.5S1509,241.3,1509,230.5z"/>
<g class="st4">
	<path class="st5" d="M1309.4,361.6l22.7,48.5l-7.4,3.5l-19-40.5c-0.9,2.1-2.1,4.1-3.6,6.1c-1.5,2-3,3.7-4.5,5l-3.3-7
		c4.4-4.1,7.9-8.6,10.5-13.5L1309.4,361.6z"/>
	<path class="st5" d="M1336.6,380.3c-3.9-8.3-5.4-15.3-4.6-20.9c0.8-5.6,3.9-9.7,9.3-12.2c10.3-4.8,19.2,0.8,26.7,17
		c3.7,7.9,5.1,14.6,4.3,20.2c-0.8,5.6-3.9,9.6-9.2,12.1c-5.1,2.4-10,2.2-14.5-0.6C1344.2,393.1,1340.2,387.9,1336.6,380.3z
		 M1343.7,376.6c5.6,12,11.4,16.7,17.2,14c5.8-2.7,5.8-10.2,0-22.5c-5.9-12.6-11.7-17.6-17.3-15
		C1337.7,355.9,1337.7,363.8,1343.7,376.6z"/>
	<path class="st5" d="M1387.8,326.4l3,65.8l-6.5,3.1l-3.1-65.7L1387.8,326.4z"/>
	<path class="st5" d="M1439.1,351.9l3.1,6.7l-29.1,13.6l-1.3-2.7c-1.5-3.1-2-6.4-1.7-9.9c0.3-3.5,1.5-7.2,3.7-11.3
		c2.5-4.9,4.2-8.4,4.9-10.5c0.7-2.1,1.1-4,1.1-5.6c0-1.6-0.3-3.2-1-4.6c-1.1-2.3-2.7-3.7-5-4.3c-2.2-0.6-4.8-0.2-7.8,1.2
		c-3.7,1.7-6.6,4.6-8.8,8.4l-2.9-6.2c2.7-4.2,6.4-7.4,11-9.6c4.4-2,8.3-2.5,12-1.3c3.6,1.2,6.4,3.7,8.3,7.7c1.1,2.3,1.7,4.5,1.8,6.7
		c0.1,2.2-0.2,4.5-0.8,6.7c-0.6,2.3-2.1,5.5-4.4,9.8c-1.9,3.5-3.2,6-3.7,7.5c-0.6,1.5-0.9,2.8-1.1,4.1c-0.2,1.3,0,2.4,0.5,3.4
		L1439.1,351.9z"/>
	<path class="st5" d="M1438.6,332.5c-3.9-8.3-5.4-15.3-4.6-20.9s3.9-9.7,9.3-12.2c10.3-4.8,19.2,0.8,26.7,17
		c3.7,7.9,5.1,14.6,4.3,20.2c-0.8,5.6-3.9,9.6-9.2,12.1c-5.1,2.4-10,2.2-14.5-0.6C1446.2,345.3,1442.2,340.1,1438.6,332.5z
		 M1445.8,328.8c5.6,12,11.4,16.7,17.2,14c5.8-2.7,5.8-10.2,0-22.5c-5.9-12.6-11.7-17.6-17.3-15
		C1439.7,308.1,1439.7,316,1445.8,328.8z"/>
	<path class="st5" d="M1513.6,317l3.1,6.7l-29.1,13.6l-1.3-2.7c-1.5-3.1-2-6.4-1.7-9.9c0.3-3.5,1.5-7.2,3.7-11.3
		c2.5-4.9,4.2-8.4,4.9-10.5c0.7-2.1,1.1-4,1.1-5.6s-0.3-3.2-1-4.6c-1.1-2.3-2.7-3.7-5-4.3c-2.2-0.6-4.8-0.2-7.8,1.2
		c-3.7,1.7-6.6,4.6-8.8,8.4l-2.9-6.2c2.7-4.2,6.4-7.4,11-9.6c4.4-2,8.3-2.5,12-1.3c3.6,1.2,6.4,3.7,8.3,7.7c1.1,2.3,1.7,4.5,1.8,6.7
		c0.1,2.2-0.2,4.5-0.8,6.7c-0.6,2.3-2.1,5.5-4.4,9.8c-1.9,3.5-3.2,6-3.7,7.5c-0.6,1.5-0.9,2.8-1.1,4.1c-0.2,1.3,0,2.4,0.5,3.4
		L1513.6,317z"/>
	<path class="st5" d="M1550.8,299.5l3.1,6.7l-29.1,13.6l-1.3-2.7c-1.5-3.1-2-6.4-1.7-9.9c0.3-3.5,1.5-7.2,3.7-11.3
		c2.5-4.9,4.2-8.4,4.9-10.5s1.1-4,1.1-5.6c0-1.6-0.3-3.2-1-4.6c-1.1-2.3-2.7-3.7-5-4.3c-2.2-0.6-4.8-0.2-7.8,1.2
		c-3.7,1.7-6.6,4.6-8.8,8.4l-2.9-6.2c2.7-4.2,6.4-7.4,11-9.6c4.4-2,8.3-2.5,12-1.3s6.4,3.7,8.3,7.7c1.1,2.3,1.7,4.5,1.8,6.7
		c0.1,2.2-0.2,4.5-0.8,6.7s-2.1,5.5-4.4,9.8c-1.9,3.5-3.2,6-3.7,7.5c-0.6,1.5-0.9,2.8-1.1,4.1c-0.2,1.3,0,2.4,0.5,3.4L1550.8,299.5z
		"/>
</g>
<g class="st4">
	<path class="st6" d="M1684.7,55.1c-3.6,2.6-8.2,4.8-13.7,6.8l-2.4-3.4c5.1-1.7,9.3-3.6,12.6-5.8L1684.7,55.1z M1708.8,51.9h-40
		v-3.8h3.1l-0.5-24.1c3-0.7,6-1.7,8.8-3l2.1,3.4c-1.9,0.9-4.2,1.7-6.8,2.5l0,4.2h5.3v3.7h-5.1l0,4.6h5.1v3.7h-5.1l0.1,5h25.6l0.2-5
		h-4.8v-3.7h4.8l0.1-4.6h-5v-3.7h5.1l0.1-4.6h-5.2v-3.8h9.4l-0.6,25.4h3.2V51.9z M1687.7,36.4c-0.7,3.9-1.8,7.3-3.4,10.2l-3.2-2.1
		c1.5-3.1,2.5-6,3-8.8L1687.7,36.4z M1695.1,27.4h-7.4l-0.4,3.3h7.9c0,2.6-0.1,5.4-0.2,8.5c-0.2,3.1-0.5,5-0.9,5.7
		c-0.4,0.7-1,1.2-1.7,1.5s-2,0.4-4,0.3l-1.3-3.8c0.6,0.1,1.2,0.2,1.9,0.2c0.7,0,1.2-0.1,1.4-0.2c0.2-0.1,0.3-0.3,0.4-0.5
		s0.2-1.2,0.3-3c0.1-1.8,0.2-3.5,0.2-5.1h-8.3l1.7-13h4l-0.3,2.6h6.9V27.4z M1709,58.4l-2.6,3.4c-4.4-2.5-8.8-4.4-13.2-5.8l2.5-3.4
		C1700.5,54.1,1704.9,56.1,1709,58.4z"/>
	<path class="st6" d="M1752.6,48h-15.8v13.3h-4.2V48h-15.7V28.6h15.7v-7.4h4.2v7.4h15.8V48z M1732.6,44V32.6h-11.5V44H1732.6z
		 M1748.4,44V32.6h-11.5V44H1748.4z"/>
	<path class="st6" d="M1801,58.3l-2.5,3.3c-9.1-5.8-15-13.5-17.7-23.1c-2.9,9.3-8.8,16.9-17.9,22.8l-2.4-3.6
		c9.4-6.1,15.1-13.6,17.2-22.5h-16.2l0-4.1h16.8c0.3-3.2,0.5-6.5,0.6-9.8h4.1c0,4-0.2,7.3-0.4,9.8h18v4.1h-16.7
		C1786,45.1,1791.7,52.8,1801,58.3z"/>
	<path class="st6" d="M1847.1,44l-1.4,3.4c-1.4-0.4-3.5-1.2-6.2-2.4v11.4h-18l1.5,2.1c-4.6,1.7-9.4,2.8-14.4,3.5l-1.8-3.3
		c4.1-0.4,8.1-1.1,11.9-2.3h-4.5V45.5c-2.3,1-4.3,1.8-6,2.3l-1.8-3.4c4.3-1,7.7-2.6,10.4-4.8h-9.4v-2.9h11.4V35h-5.1v-2.3h5.1v-1.7
		h-5.8v-2.6h5.8v-1.9h-6.9v4.2h-4v-7.5h16.3c-0.1-0.3-0.4-0.8-0.7-1.4l3.9-1.1c0.5,0.8,1,1.7,1.4,2.5h16.8v7.4h-4v-4.1h-7.2v1.9h5.9
		v2.6h-5.9v1.7h5.5V35h-5.5v1.8h12.1v2.9h-9C1840.3,41.5,1843.5,43,1847.1,44z M1835.5,45.6v-1.5h-17.2v1.5H1835.5z M1835.5,49.6
		v-1.6h-17.2v1.6H1835.5z M1835.5,53.7v-1.8h-17.2v1.8H1835.5z M1833.7,41.3l-1.8-1.7h-9.8c-0.4,0.5-1,1.1-1.7,1.7H1833.7z
		 M1830.5,28.5v-1.9h-7.5v1.9H1830.5z M1830.5,32.7v-1.7h-7.5v1.7H1830.5z M1830.5,36.8V35h-7.5v1.8H1830.5z M1846.5,58.6l-1.5,2.9
		c-5.3-0.9-9.9-1.5-14-1.5l1.5-3C1837.2,57.2,1841.8,57.7,1846.5,58.6z"/>
	<path class="st6" d="M1861.4,48.5c-1.6,5-3.5,8.9-5.7,11.9l-3.5-2.3c2.2-2.7,4-6.3,5.4-10.9L1861.4,48.5z M1891.9,42.4
		c-0.1,3.7-0.4,7.3-0.8,10.8c-0.4,3.5-0.9,5.4-1.3,6c-0.4,0.5-0.8,0.9-1.3,1.3c-0.4,0.3-1.6,0.5-3.4,0.6c-1.8,0.1-3.4,0.1-4.9,0.1
		l-1.4-3.9l6.1,0.1c0.6,0,1-0.2,1.3-0.5c0.3-0.4,0.6-1.9,0.9-4.6c0.3-2.7,0.4-4.7,0.4-6.1h-31.2V21.8h35.3v3.7h-15v3.3h13.3v3.4
		h-13.3v3.5h13.3v3.5h-13.3v3.3H1891.9z M1872.7,28.8v-3.3h-12.2v3.3H1872.7z M1872.7,35.6v-3.5h-12.2v3.5H1872.7z M1872.7,42.4
		v-3.3h-12.2v3.3H1872.7z M1868.8,59l-3.8,0.7c0-3.5-0.6-7.2-1.6-11l3.8-0.5C1868.1,51.7,1868.7,55.2,1868.8,59z M1877.5,57.4
		l-3.6,1.2c-0.7-3.5-1.6-6.9-2.9-10l3.6-0.8C1875.9,50.7,1876.9,53.9,1877.5,57.4z M1884.8,54.7l-3.4,1.2c-0.8-3.1-1.8-5.6-3-7.8
		l3.7-1C1883.3,49.9,1884.2,52.4,1884.8,54.7z"/>
	<path class="st6" d="M1939.5,29.2l-1.6,3.6c-3.8-0.9-7.6-2.2-11.4-3.8v1.7h-15V29c-3.5,1.6-7.3,2.9-11.3,4l-2-3.3
		c9.1-2.3,15.7-5.3,20.1-9l4.5,1.1c-0.3,0.4-0.6,0.7-0.8,0.9C1926.1,25.3,1932,27.5,1939.5,29.2z M1935.3,44.5h-32.8V32.6h32.8V44.5
		z M1933.3,61.2h-4v-1.6h-20.6v1.6h-4.2V46.5h28.8V61.2z M1916.8,41.3v-5.4h-10.4v5.4H1916.8z M1914.8,39l-2.9,1.8
		c-1.1-0.9-2.4-1.8-3.8-2.7l2.9-1.9C1911.8,36.7,1913.1,37.7,1914.8,39z M1929.2,51.5v-1.9h-20.6v1.9H1929.2z M1929.2,56.4v-2h-20.6
		v2H1929.2z M1923.2,27.6c-2.5-1.4-4-2.2-4.5-2.6c-1.3,0.9-2.7,1.8-4.3,2.6H1923.2z M1931.2,41.3v-5.4h-10.4v5.4H1931.2z
		 M1929.5,38.1c-1,0.9-2.3,1.7-3.9,2.7l-2.9-1.9c1.8-1.1,3.1-2,3.8-2.5L1929.5,38.1z"/>
	<path class="st6" d="M1978.6,24.9h-10v16.8h-4V21.1h13.9V24.9z"/>
	<path class="st6" d="M2012.9,39.4l-2.2,2.9c-2.2-1.7-5-3.4-8.6-5.3c-2.3,3-5.5,5.2-9.5,6.6l-2.5-3.1c4.9-1.8,8-4,9.3-6.4h-8.3v-3.5
		h9.2c0.2-0.9,0.3-2.1,0.3-3.7h-3.6c-1,1-2.1,2-3.3,2.9l-3.1-2.4c2.9-2.3,5.1-4.7,6.8-7l3.8,1.1c-0.4,0.7-0.7,1.3-1.1,1.8h11.5v3.5
		h-6.8l-0.3,3.7h8.2v3.5h-8.8C2006.9,35.6,2010,37.4,2012.9,39.4z M2026.3,61.4h-4.1v-2.3h-23v2.2h-4.1V43.1h31.2V61.4z
		 M2022.2,49.4v-2.7h-23v2.7H2022.2z M2022.2,55.6v-2.8h-23v2.8H2022.2z M2029.7,40.2h-15.4V23.6h15.4V40.2z M2025.8,36.6v-9.3h-7.5
		v9.3H2025.8z"/>
	<path class="st6" d="M2056.5,61.7h-14v-3.8h10V41h4V61.7z"/>
	<path class="st6" d="M2121.9,43.1c-0.1,6.3-0.4,10.6-0.8,12.7c-0.4,2.2-1,3.6-2,4.3s-2.5,1-4.7,1c-1,0-1.9,0-2.7-0.1l-1.2-4
		c0.6,0.1,2.2,0.1,4.8,0.1c0.7,0,1.1-0.3,1.4-0.9c0.3-0.6,0.6-3.7,0.9-9.4h-25.9c-2.4,3.2-4.7,5.5-6.9,6.8l-2.7-3.2
		c5.9-4.1,10.2-10.6,12.9-19.5h-11.4v-3.9h7c-1-1.3-2.4-2.6-4.2-4l3.2-2.5c1.6,1.1,3.1,2.5,4.5,4.2l-2.8,2.3h4.8
		c0.5-2.3,1-4.4,1.3-6.5l4,0.7c-0.3,2.2-0.7,4.1-1.1,5.8h17.5c-0.5,2.8-1,5.4-1.7,7.9h3.9c-0.3,2.1-0.7,4.8-1.4,8H2121.9z
		 M2095.5,49.8c-1.1,4.3-2.7,8.2-4.9,11.7l-3.4-2.1c1.7-2.9,3.2-6.4,4.6-10.7L2095.5,49.8z M2115.3,38.9h-18.5
		c-0.6,1.3-1.3,2.7-2.2,4.2h19.9L2115.3,38.9z M2102.3,59.9l-3.9,0.8c0-3.8-0.4-7.4-1.3-10.9l3.8-0.4
		C2101.9,53.2,2102.3,56.7,2102.3,59.9z M2112.8,31.1h-13.3c-0.5,2-1,3.3-1.3,4h13.7C2112.2,33.9,2112.5,32.6,2112.8,31.1z
		 M2109.6,57.9l-4,1.2c-0.3-2.4-1-5.5-2.2-9.4l3.7-0.6C2108.3,52.4,2109.2,55.3,2109.6,57.9z M2115.7,55.2l-3.7,1.3
		c-0.7-3.1-1.5-5.5-2.4-7.1l3.6-1.1C2114.4,50.5,2115.2,52.8,2115.7,55.2z"/>
	<path class="st6" d="M2169,55.7l-2.6,3.4c-7.1-4-12.3-9.2-15.7-15.5v17.7h-4.3V43.5c-3.5,6.1-8.8,11.2-15.7,15.3l-2.7-3.5
		c6.5-3.6,11.5-8.3,14.9-14h-14v-4.1h17.4v-7.2h-15.7v-4h15.7v-5h4.3v5h15.8v4h-15.8v7.2h17.3v4.1h-14
		C2156.8,46.8,2161.8,51.6,2169,55.7z"/>
	<path class="st6" d="M2215.4,56l-2.4,3.3c-6.5-3.4-11.8-7.9-16.1-13.6v15.7h-4.2V45.7c-4.3,5.8-9.6,10.4-15.9,13.7l-2.6-3.3
		c8.1-4.1,14.3-9.6,18.5-16.6v-10h-17.3v-4h17.3v-4.3h4.2v4.3h17.1v4h-17.1v10.4C2201.1,46.5,2207.2,51.8,2215.4,56z M2189.4,41.9
		l-2.9,2.9c-1-2.1-2.1-4-3.5-5.8c-1.6,2.7-3.3,5-5.1,6.9l-3.1-2.6c3.1-3,5.7-7.3,7.8-12.8l3.9,0.9c-0.4,1.5-1,2.8-1.6,3.9
		C2186.7,37.8,2188.3,40,2189.4,41.9z M2214.1,42.8l-2.9,2.9c-1.2-2-2.9-4.1-5-6.4c-1.1,2-2.3,3.7-3.7,5.3l-2.7-2.9
		c2.3-2.4,4.2-6,5.8-10.8l3.8,0.6c-0.4,1.5-0.8,3-1.4,4.3C2210.7,38.4,2212.7,40.8,2214.1,42.8z"/>
	<path class="st6" d="M2239.8,29h-19.1v-3.6h7.6c-0.5-1.3-1.1-2.5-1.7-3.7l4.3-0.8c0.7,1.2,1.4,2.7,2,4.5h6.9V29z M2237.6,35.8
		h-15.3v-3.7h15.3V35.8z M2237.6,42.4h-15.3v-3.6h15.3V42.4z M2237.7,60.7h-4v-2.3h-7.1v2.9h-4V45.5h15.2V60.7z M2233.7,54.7v-5.5
		h-7.1v5.5H2233.7z M2260.8,37.9h-8.4v23.4h-4.2V37.9h-8.2v-4h8.2V21.2h4.2v12.6h8.4V37.9z"/>
	<path class="st6" d="M2293.7,30.3h-2.9v4.3h-9v1.9h9.7v2.6h-9.7v2.1h10.7v2.7H2267v-2.7h11v-2.1h-9.7v-2.7h9.7v-1.8h-8.7v-2.4h8.7
		v-1.9h-11.4v-2.7h11.4v-1.8h-8.7v-2.5h8.7v-2.1h3.9v2.1h9v4.4h2.9V30.3z M2293.1,60.6h-26.5v-2.9h26.5V60.6z M2291,55.8h-22.1v-10
		h22.1V55.8z M2278.1,49.5v-1.5h-5.4v1.5H2278.1z M2278.1,53.4v-1.5h-5.4v1.5H2278.1z M2287.2,49.5v-1.5h-5.3v1.5H2287.2z
		 M2287.2,53.4v-1.5h-5.3v1.5H2287.2z M2287,27.6v-1.8h-5.1v1.8H2287z M2287,32.1v-1.9h-5.1v1.9H2287z M2298.8,52.8h-3.9V24.3h3.9
		V52.8z M2306,57.5c0,1.3-0.4,2.3-1.3,2.9c-0.9,0.6-3.4,0.9-7.6,0.9l-0.8-4.1c1.2,0.1,2.3,0.1,3.4,0.1c1.1,0,1.7-0.1,2-0.3
		c0.3-0.2,0.4-0.5,0.4-0.9V21.1h3.9V57.5z"/>
	<path class="st6" d="M2353.6,33.9l-2.4,3.5c-7.2-3.3-13.3-7.1-18.4-11.3c-4.6,3.7-10.5,7.4-17.7,11.1l-2.8-3.3
		c8.7-4,15.2-8.3,19.7-13l4.4,1.6c-0.3,0.3-0.5,0.6-0.7,0.8C2340.1,27,2346,30.6,2353.6,33.9z M2347.9,61.4h-4.3v-2.4h-21.5v2.4
		h-4.4V42.8h30.1V61.4z M2343.6,55v-8.3h-21.5V55H2343.6z M2343.4,37.9h-21v-4h21V37.9z"/>
	<path class="st6" d="M2371.6,21.7c-0.7,1.9-1.3,3.5-1.9,5l-2,4.6v29.9h-4.2V38.3c-1.2,1.6-2.2,2.9-3.1,3.8l-1.9-4.3
		c3.8-4.7,6.8-10.4,8.9-17.1L2371.6,21.7z M2398.8,30.8h-14.3v6.8h13.3v3.8h-13.3V48h13.3v3.8h-13.3v9.5h-4.1V30.8h-1.6
		c-2.2,4.3-4.4,7.7-6.6,10.2l-3-2.9c4-4.8,7-10.5,9-17.2l4.1,0.9c-0.2,0.9-0.8,2.7-1.8,5.3h18.3V30.8z"/>
	<path class="st6" d="M2423.4,46.4c-1.2-0.5-1.9-1.5-1.9-2.9c0-0.8,0.3-1.5,1-2.1c0.6-0.5,1.3-0.8,2.1-0.8c0.9,0,1.6,0.3,2.1,0.9
		s0.8,1.4,0.8,2.3c0,1.7-1.3,3.6-4,5.6l-1.4-1.1C2422.8,47.6,2423.2,46.9,2423.4,46.4z"/>
</g>
<g class="st4">
	<path class="st6" d="M1708.5,115.1h-39.9v-4h18.6v-10h-13.9v-4h13.9v-8.8h-10.3c-1.7,2.9-3.6,5.5-5.6,7.5l-3.1-3
		c4.2-4.3,7-9.5,8.4-15.8l4.1,1c-0.5,2-1.2,4-1.9,6.2h8.4v-8.1h4.2v8.1h16.5v4h-16.5V97h14.6v4h-14.6v10h17.1V115.1z"/>
	<path class="st6" d="M1754.7,95.8h-32.8v7.5c0,5.7-1.4,10.1-4.2,13.2l-3.3-2.9c1-0.9,1.8-2.3,2.5-4.2s1-4.8,1-8.9v-8.5h36.8V95.8z
		 M1753.5,82.8h-6.9c-1.2,1.3-2.6,2.4-4,3.3c3.6,0.8,6.9,1.7,9.9,2.7l-1.5,2.8c-3.8-1.3-7.9-2.3-12.3-3.2c-5.8,2.2-11.6,3.2-17.6,3
		l-1.2-3.1c3.9,0,7.7-0.3,11.5-1.1c-2.7-0.5-5.7-0.9-9-1.1l1.8-2.7c4.3,0.4,8.9,1,13.8,1.9c1.4-0.8,2.6-1.6,3.6-2.5h-25.7v-3.7h17.1
		c-0.4-0.7-0.8-1.5-1.3-2.3l4.2-0.9c0.6,1,1.2,2.1,1.8,3.2h16V82.8z M1754.8,115.4h-33V112h14.7v-3h-9.3v-3.3h9.3V103h-8.1
		c-1.2,1.8-2.4,3.2-3.7,4.3l-2.5-3.2c2.2-1.8,3.9-4.2,5.1-7.3l3.8,1.1c-0.2,0.7-0.4,1.3-0.7,1.7h6.1v-2.8h4.2v2.8h12.1v3.4h-12.1
		v2.7h11v3.3h-11v3h14.1V115.4z"/>
	<path class="st6" d="M1800.8,115.5h-40.1v-3.9h13.3V88.1h-12.2v-3.9h38v3.9h-12.2v23.6h13.2V115.5z M1772.2,107.2l-4,1.5
		c-1.1-4.7-3-10.2-5.8-16.6l3.7-1.5C1769.3,97.5,1771.3,103,1772.2,107.2z M1778.7,81l-4.6,1.6c-2.4-2.1-4.6-3.6-6.6-4.6l4.5-1.7
		C1774.1,77.3,1776.3,78.9,1778.7,81z M1783.3,111.7V88.1h-5.2v23.6H1783.3z M1794.7,78.1c-2.6,2.1-4.8,3.6-6.9,4.5L1783,81
		c2.2-0.9,4.6-2.5,7.1-4.6L1794.7,78.1z M1798.6,92c-1.2,6-3.1,11.6-5.7,16.6l-4-1.5c2.4-4.4,4.3-9.9,5.8-16.5L1798.6,92z"/>
	<path class="st6" d="M1820.1,87.5h-4v6.4c0.9-0.4,1.9-0.9,2.8-1.5l0.4,3.9c-0.9,0.6-2,1.2-3.2,1.8v13.3c0,1.5-0.3,2.7-1,3.6
		c-0.7,0.9-2.1,1.4-4.2,1.4c-0.8,0-1.6,0-2.4-0.1l-1.2-3.9c0.8,0,1.5,0,2,0c1.4,0,2.2-0.1,2.5-0.3c0.3-0.2,0.5-0.5,0.5-1V100
		c-1.6,0.8-3.2,1.5-4.7,2.1l-1.1-3.6c2.3-0.9,4.2-1.8,5.8-2.6v-8.4h-5.5v-4h5.5v-7.4h3.9v7.4h4V87.5z M1847.2,112l-1.3,3.9
		c-7.1,0.1-12-0.2-14.6-0.8c-2.6-0.7-4.8-2-6.5-4.1c-0.7,1.7-1.7,3.6-3.1,5.6l-3.5-2.3c2.7-3.4,4.4-7.8,5.1-13.3l3.9,0.7
		c-0.3,2.1-0.7,3.9-1.1,5.3c1.4,2,3.3,3.3,5.7,4.1V99.3h-11.3v-3.7h26.2v3.7h-11v3.9h9v3.7h-9v5.1c1.8,0.1,4,0.2,6.7,0.2
		C1844,112.1,1845.6,112.1,1847.2,112z M1844,92.8h-21.6v-16h21.6V92.8z M1840,83v-2.6h-13.6V83H1840z M1840,89.2v-2.9h-13.6v2.9
		H1840z"/>
	<path class="st6" d="M1864.8,76.6c-0.5,1.7-1.2,3.8-2.2,6.2l-1.4,3.4v30h-4.1V93.9c-0.7,1-1.5,2-2.5,3.3l-2.3-4.5
		c3.3-3.9,6.1-9.6,8.4-16.9L1864.8,76.6z M1875.7,105.9c-3,4.5-6.1,8-9.4,10.6l-3.2-2.9c3-2.3,6-5.5,8.9-9.7L1875.7,105.9z
		 M1892.7,102.9h-29.4V99h6.2V88.6h-5.2v-4h5.2v-8.4h4.2v8.4h8.4v-8.4h4.2v8.4h5.3v4h-5.3V99h6.4V102.9z M1882.1,99V88.6h-8.4V99
		H1882.1z M1893,114.1l-3.4,2.5c-2.5-3.5-5.6-6.9-9.1-10l3.2-2.5C1887.7,107.5,1890.8,110.8,1893,114.1z"/>
</g>
<g class="st4">
	<path class="st6" d="M1897.9,80.6c0-0.9,0.3-1.6,0.9-2.2c0.6-0.6,1.4-0.9,2.3-0.9c0.9,0,1.7,0.3,2.3,0.9c0.6,0.6,0.9,1.3,0.9,2.2
		s-0.3,1.6-0.9,2.2c-0.6,0.6-1.4,0.9-2.3,0.9c-0.9,0-1.7-0.3-2.3-0.9C1898.2,82.2,1897.9,81.5,1897.9,80.6z M1898.4,114V89.2h5.3
		V114H1898.4z"/>
	<path class="st6" d="M1935.9,112.6c-2.6,1.3-5.8,2-9.7,2c-5,0-9.1-1.6-12.1-4.8c-3-3.2-4.5-7.3-4.5-12.5c0-5.4,1.7-9.9,5-13.4
		c3.4-3.5,7.7-5.3,13-5.3c3.3,0,6.1,0.5,8.3,1.4v5.5c-2.5-1.4-5.2-2.1-8.2-2.1c-3.8,0-6.8,1.2-9.1,3.7c-2.3,2.5-3.4,5.8-3.4,9.8
		c0,3.8,1.1,7,3.2,9.3s5,3.6,8.6,3.6c3.4,0,6.3-0.8,8.8-2.3V112.6z"/>
	<path class="st6" d="M1942.6,90.8c2.5-1.5,5.5-2.2,8.8-2.2c6.3,0,9.4,3.2,9.4,9.7V114h-5.1v-3.8h-0.1c-1.7,2.9-4.2,4.4-7.5,4.4
		c-2.4,0-4.4-0.7-5.8-2c-1.4-1.3-2.1-3.1-2.1-5.3c0-4.7,2.8-7.4,8.3-8.2l7.2-1c0-3.7-1.6-5.5-4.9-5.5c-3,0-5.7,1-8.2,2.9V90.8z
		 M1950.2,102.5c-1.8,0.2-3.1,0.7-3.8,1.4c-0.7,0.7-1.1,1.7-1.1,3c0,1.1,0.4,2,1.2,2.7c0.8,0.7,1.8,1,3.1,1c1.8,0,3.2-0.6,4.4-1.9
		c1.2-1.3,1.8-2.8,1.8-4.7v-2.2L1950.2,102.5z"/>
	<path class="st6" d="M1981.9,94.2c-0.8-0.5-1.8-0.8-3.1-0.8c-1.7,0-3.1,0.7-4.1,2.2c-1.1,1.5-1.6,3.5-1.6,6V114h-5.3V89.2h5.3v4.9
		h0.1c1.2-3.6,3.4-5.4,6.5-5.4c0.9,0,1.7,0.1,2.2,0.3V94.2z"/>
</g>
<g class="st4">
	<path class="st6" d="M2027.9,115.2h-40v-4h18v-6.5h-15.2v-4h15.2v-5h4.1v5h15.1v4H2010v6.5h17.9V115.2z M2027.4,81.2h-19.7
		c-3,4.4-6.2,7.7-9.4,9.8c6.7-0.1,13.1-0.6,19.1-1.4c-1.4-1.7-2.9-3.3-4.6-4.8l3.5-2.3c4.1,4,7.6,8.2,10.6,12.7l-3.4,2.3
		c-0.8-1.2-1.9-2.6-3.2-4.5c-10.5,1.1-19.9,1.8-28.3,2.1l-0.9-3.8c4.3-1.9,8-5.3,11.2-10.2h-13.9v-4h38.9V81.2z"/>
</g>
<g class="st4">
	<path class="st6" d="M2054.7,109.1v4.9h-21.4v-2c0-2.3,0.6-4.5,1.8-6.5c1.2-2,3-3.9,5.4-5.8c2.9-2.2,4.9-3.9,5.9-4.9
		c1-1.1,1.8-2.1,2.3-3c0.5-1,0.7-2,0.7-3c0-1.7-0.6-3-1.8-4s-2.9-1.5-5-1.5c-2.7,0-5.3,0.9-7.7,2.6v-4.6c2.8-1.8,6-2.7,9.4-2.7
		c3.2,0,5.7,0.9,7.6,2.6s2.8,4.1,2.8,7c0,1.7-0.3,3.2-0.8,4.6c-0.6,1.4-1.4,2.6-2.4,3.8s-2.8,2.7-5.4,4.7c-2.2,1.6-3.6,2.7-4.4,3.5
		c-0.8,0.7-1.4,1.4-1.8,2.2s-0.7,1.4-0.7,2.2H2054.7z"/>
	<path class="st6" d="M2061.3,107.6c2.4,1.8,5.1,2.7,8.1,2.7c2.2,0,4-0.5,5.3-1.6c1.3-1.1,2-2.6,2-4.4c0-4.1-3-6.1-8.9-6.1h-3v-4.2
		h2.8c5.3,0,8-1.9,8-5.7c0-3.6-2-5.3-6.1-5.3c-2.4,0-4.7,0.8-6.9,2.4v-4.7c2.3-1.3,5-2,8.1-2c3,0,5.4,0.8,7.4,2.3
		c1.9,1.5,2.9,3.6,2.9,6.1c0,4.6-2.3,7.5-7,8.7v0.1c2.5,0.2,4.4,1.1,5.9,2.6c1.5,1.5,2.2,3.4,2.2,5.6c0,3.2-1.2,5.8-3.5,7.7
		s-5.4,2.8-9.2,2.8c-3.4,0-6.1-0.6-8.2-1.8V107.6z"/>
	<path class="st6" d="M2087.6,104.9c0-2.6,0.6-4.6,1.8-5.9s3.1-2.4,5.5-3.2c-2.1-1.1-3.6-2.2-4.6-3.3c-1-1.1-1.5-2.8-1.5-5
		c0-1.7,0.4-3.2,1.3-4.6s2.1-2.4,3.7-3.2s3.3-1.1,5.2-1.1c2,0,3.7,0.4,5.3,1.2c1.6,0.8,2.8,1.8,3.7,3.2s1.3,2.9,1.3,4.5
		c0,2.2-0.5,3.8-1.6,5c-1,1.1-2.7,2.2-4.8,3.2c2.5,0.9,4.3,2,5.6,3.3s1.9,3.3,1.9,6c0,2.8-1.1,5.2-3.2,7c-2.1,1.8-4.9,2.7-8.3,2.7
		c-3.4,0-6.2-0.9-8.3-2.7C2088.7,110.1,2087.6,107.8,2087.6,104.9z M2093,104.3c0,1.9,0.6,3.5,1.7,4.6s2.6,1.7,4.4,1.7
		c1.8,0,3.3-0.6,4.4-1.7c1.1-1.2,1.7-2.7,1.7-4.5c0-1.8-0.6-3.3-1.7-4.5c-1.2-1.2-2.6-1.8-4.4-1.8c-1.8,0-3.3,0.6-4.4,1.8
		C2093.6,101,2093,102.5,2093,104.3z M2094.1,88.3c0,1.6,0.5,2.9,1.5,3.9s2.2,1.6,3.7,1.6c1.5,0,2.7-0.5,3.7-1.6
		c1-1.1,1.5-2.4,1.5-3.9c0-1.6-0.5-2.9-1.5-4c-1-1.1-2.2-1.6-3.7-1.6c-1.5,0-2.7,0.5-3.7,1.6C2094.6,85.3,2094.1,86.7,2094.1,88.3z"
		/>
</g>
<g class="st4">
	<path class="st6" d="M2134.7,92h-13.2v24.3h-4v-39h17.3V92z M2130.6,83v-2.1h-9.2V83H2130.6z M2130.6,88.5v-2.3h-9.2v2.3H2130.6z
		 M2145.7,112.1h-19V94.2h19V112.1z M2141.8,101.3v-3.5h-11.1v3.5H2141.8z M2141.8,108.5v-3.8h-11.1v3.8H2141.8z M2154.9,112.2
		c0,1.4-0.4,2.4-1.1,3c-0.7,0.6-1.6,1-2.7,1c-1.3,0-2.2,0-2.8,0l-1.4-4c1,0,1.7,0.1,2.3,0.1c0.7,0,1.2,0,1.3-0.1
		c0.2-0.1,0.3-0.3,0.3-0.6V92h-13V77.3h17V112.2z M2150.8,83v-2.1h-9V83H2150.8z M2150.8,88.5v-2.3h-9v2.3H2150.8z"/>
	<path class="st6" d="M2200.1,103h-15.8v13.3h-4.2V103h-15.7V83.6h15.7v-7.4h4.2v7.4h15.8V103z M2180.1,99V87.6h-11.5V99H2180.1z
		 M2195.8,99V87.6h-11.5V99H2195.8z"/>
	<path class="st6" d="M2248.2,109.4h-17.7v2.9c0,1-0.2,1.8-0.7,2.4s-1.1,1-1.8,1.2c-0.7,0.2-2.1,0.3-4.1,0.3c-0.9,0-2,0-3.2-0.1
		l-1.3-3.7c1,0,3.1,0,6.1,0c0.6,0,0.8-0.3,0.8-0.8v-2.3h-18.2v-3.3h18.2v-2c2.3-0.5,4.4-1.1,6.4-1.8h-17.1v-2.9h24.5v2.9
		c-2.5,1.2-5.7,2.4-9.6,3.5v0.3h17.7V109.4z M2247.5,102.6h-3.9v-5.2h-30.8v5.2h-4.1v-8.4h2.9l-0.8-16.5c3-0.1,6-0.7,9-1.8l1.9,3.2
		c-2.1,0.7-4.4,1.1-6.8,1.4l0.1,2.4h6v3h-5.8l0.1,2.6h5.8v3h-5.6l0.1,2.7h25.3l0.1-2.7h-6.2v-3h6.4l0.1-2.6h-6.5v-3h6.6l0.1-2.4h-7
		v-3.2h11l-0.7,16.9h2.8V102.6z M2233.5,77.3c-0.7,1-1.7,1.9-3,2.9c0.7,0.7,1.4,1.3,2.1,2l-2.4,2.2c-0.8-0.9-1.5-1.7-2.3-2.3
		c-1.6,0.9-3.1,1.7-4.6,2.3l-1.9-2.6c1.3-0.5,2.6-1.1,3.9-1.8c-0.4-0.4-1.3-1-2.5-1.9l2.2-2.2l3.1,2.2c1-0.7,1.8-1.5,2.4-2.2
		L2233.5,77.3z M2233.7,91.7l-2.4,2.1c-1.2-1.3-2.2-2.3-3.1-2.9c-1.6,1-3.2,1.9-4.7,2.6l-1.9-2.5c1.1-0.5,2.4-1.2,4-2.1
		c-0.8-0.7-1.8-1.4-3-2.1l2.2-2.3c0.8,0.5,2,1.3,3.6,2.4c1.3-1.1,2.1-1.9,2.6-2.4l2.8,1.7c-0.9,1-1.8,1.9-2.9,2.7
		C2231.9,89.8,2232.8,90.7,2233.7,91.7z"/>
</g>
<path class="st7" d="M1529.5,231.5h420.4"/>
</svg>
