<?xml version="1.0" encoding="UTF-8"?>
<svg id="Layer_2" data-name="Layer 2" xmlns="http://www.w3.org/2000/svg" viewBox="0 0 86.36 83.94">
  <defs>
    <style>
      .cls-1 {
        fill: #fff;
      }
    </style>
  </defs>
  <g id="Layer_2-2" data-name="Layer 2">
    <path class="cls-1" d="M48.44,30.6v27.3h37.92V30.6H48.44Zm34.92,6.98l-15.96,9.14-15.96-9.14v-1.74l15.91,9.14,16.01-9.14v1.74Z"/>
    <path class="cls-1" d="M32.78,48.01s.75,2,.33,2.55l-3.41,4.04s-1.22,1.01-.34,2.42c0,0,3.66,8.87,16.46,14.58,0,0,1.72,.46,2.62-.75l3.55-4.57s.77-1.46,2.78-.8c0,0,6.27,2.52,9.77,4.39,0,0,1.82,1.11,1.85,5.45,0,0-.49,4.55-4.11,6.66,0,0-5.76,3.98-14.8,.57,0,0-9.33-3.02-14.37-7.68,0,0-13.71-12.27-15.69-22.2,0,0-2.19-8.09,4.32-14.01,0,0,1.17-.93,3.7-.79,0,0,2.84-.31,3.56,1.17l3.8,8.98Z"/>
    <path class="cls-1" d="M0,16.11c0,8.9,10.07,16.11,22.49,16.11,3.28,0,6.4-.5,9.21-1.41l11.17,4.98-3.71-8.87c3.62-2.86,5.82-6.65,5.82-10.81C44.99,7.21,34.92,0,22.49,0,10.07,0,0,7.21,0,16.11Zm29.4-.12c0-1.31,1.06-2.37,2.37-2.37s2.37,1.06,2.37,2.37-1.06,2.37-2.37,2.37-2.37-1.06-2.37-2.37Zm-9.28,0c0-1.31,1.06-2.37,2.37-2.37s2.37,1.06,2.37,2.37-1.06,2.37-2.37,2.37-2.37-1.06-2.37-2.37Zm-9.17,0c0-1.31,1.06-2.37,2.37-2.37s2.37,1.06,2.37,2.37-1.06,2.37-2.37,2.37-2.37-1.06-2.37-2.37Z"/>
  </g>
</svg>