<?xml version="1.0" encoding="UTF-8"?>
<svg id="Layer_2" data-name="Layer 2" xmlns="http://www.w3.org/2000/svg" viewBox="0 0 91.13 21.28">
  <defs>
    <style>
      .cls-1 {
        fill: #f2deaf;
      }

      .cls-2 {
        fill: #e5a923;
      }

      .cls-3 {
        fill: #231f20;
      }

      .cls-4 {
        fill: #6e1e6f;
      }
    </style>
  </defs>
  <g id="Layer_2-2" data-name="Layer 2">
    <g id="CUHK_Logo" data-name="CUHK Logo">
      <g>
        <path class="cls-3" d="M28.91,12.13s-.06-.06-.06-.06c-.07-.07-.14-.11-.2-.11-.08,0-.24,.02-.47,.08-.2,.04-.34,.07-.43,.08,0-.07,0-.42,0-.49,.18,0,.38-.02,.6-.05,.37-.06,.38-.07,.39-.09,0,0,.02-.05,.02-.05,0-.05-.04-.1-.11-.13-.06-.04-.13-.05-.21-.05-.08,0-.18,.02-.3,.07l-.24,.08s-.09,.02-.15,.03c0-.04,0-.08,0-.12,0-.1,0-.22-.01-.34,.12,0,.24-.01,.36-.04,.33-.07,.56-.11,.67-.11,.04,0,.08,.01,.1,.03,.03,.02,.04,.05,.04,.08l.02,.3,.02,.44c0,.28-.01,.4-.03,.46m.3-1.56c-.16-.07-.27-.1-.35-.1-.01,0-.29,.1-.29,.1-.21,.06-.42,.11-.59,.14l-.29,.04-.1-.02-.17-.03c-.11,0-.12,.06-.12,.09,0,.02,.08,.2,.08,.2,.02,.06,.04,.15,.05,.27l.02,.43c0,.17-.01,.29-.03,.36l-.03,.2c0,.12,.02,.23,.07,.34,.06,.13,.1,.18,.14,.18,.05,0,.09-.04,.13-.44,.03,0,.07,0,.07,0l.39-.04,.34-.04s.08,.01,.11,.04c.04,.04,.07,.08,.09,.15l.09,.24,.08,.21h.02s.08,.02,.08,.02h.01c.22-.2,.34-.51,.34-.95l-.02-.65c0-.28,.03-.37,.05-.39,.06-.08,.07-.11,.07-.13,0-.07-.08-.13-.25-.2m1.85-.14s-.05-.03-.09-.03c-.51-.06-.95-.18-1.3-.35-.33-.16-.67-.4-1.03-.7,.21-.02,.46-.04,.76-.04,.46,0,.56-.02,.59-.03,.08-.02,.1-.07,.1-.1,0-.08-.04-.14-.13-.19-.08-.04-.17-.07-.26-.07-.07,0-.23,.03-.47,.09,0,0-.52,.1-.69,.14,.01-.08,.04-.25,.04-.25,0,0,.02-.04,.02-.04l.03-.08c0-.07-.07-.13-.22-.19,.35-.08,.66-.15,.91-.19,.07,0,.08-.05,.08-.06,0-.03-.02-.08-.23-.24-.15-.11-.26-.16-.34-.16-.01,0-.05,0-.07,.03,0,0-.03,.09-.04,.13-.13,.12-.55,.32-1.24,.59l-.05,.02,.06,.08h.02c.21-.01,.43-.05,.65-.11h0s.05,.27,.05,.27c.02,.09,.03,.18,.03,.26h0c-.06,.02-.74,.12-.74,.12-.35,.06-.64,.1-.87,.12h-.09s.07,.07,.07,.07c.13,.13,.25,.19,.35,.19,.03,0,.09,0,.36-.07,0,0,.35-.07,.53-.11-.43,.6-1.04,1.09-1.83,1.45h-.02v.07s0,.05,.07,.05c.13,0,.3-.04,.51-.13,.21-.08,.39-.18,.55-.29,.16-.11,.31-.23,.45-.36,.14-.13,.28-.27,.4-.42,0,0,.17-.23,.28-.37,0,.16-.03,.31-.06,.43-.05,.17-.07,.27-.07,.32,0,.09,.04,.2,.11,.31h0s.01,.01,.01,.01h.01s.06,.03,.06,.03c.05,0,.09-.06,.14-.22,.04-.13,.06-.29,.06-.47,0,0-.01-.3-.02-.47,.11,.13,.32,.35,.64,.65,.4,.38,.67,.56,.82,.56s.51-.05,1.08-.17h.02s0-.03,0-.03c0,0,0-.02,0-.02,0-.02,0-.03-.01-.04"/>
        <path class="cls-3" d="M33.85,10.23c.07,0,.18-.03,.18-.22,0-.12-.04-.22-.13-.31-.09-.08-.28-.14-.57-.17h-.07s.03,.06,.03,.06c.2,.43,.39,.64,.57,.64m.5-1.04c.06,0,.16-.03,.16-.2,0-.14-.06-.25-.19-.34-.12-.08-.28-.13-.47-.13l-.19,.02,.05,.06c.39,.52,.55,.58,.63,.58m1.11,.57c0-.08,0-.45,0-.5,.06,0,.53-.1,.63-.12-.02,.09-.11,.49-.12,.53-.04,0-.42,.08-.5,.09m-.2,1.17c.07,0,.18-.01,.32-.04l.31-.05s.02,0,.02,.02c0,0,.01,.12,.01,.12v.18s-.05,.11-.05,.11c0,0-.02,.03-.15,.06l-.25,.06s-.14,.02-.21,.03v-.48Zm-1.43,.83s.02-.02,.04-.03c0,0,0,0,0,0h0s-.05,.03-.05,.03Zm4.36-.67c-.57-.17-.98-.33-1.22-.47-.22-.13-.54-.37-.93-.71,.27-.04,.53-.07,.78-.08l.51-.02c.1,0,.12-.05,.12-.09,0-.05-.04-.1-.12-.17-.08-.07-.17-.1-.26-.1-.18,0-.48,.06-.87,.16,.03-.1,.14-.49,.16-.53,.04,0,.16-.02,.16-.02,0,0,.3-.03,.3-.03,.11,0,.26-.03,.26-.14,0-.07-.04-.16-.26-.16-.07,0-.18,.02-.34,.06,.05-.12,.25-.56,.25-.56h0c-.02-.07-.1-.13-.24-.19-.13-.06-.23-.09-.3-.09h-.03s-.04,.08-.04,.1l.04,.14c.03,.06,.04,.13,.04,.22,0,.06-.02,.21-.07,.46-.04,0-.6,.12-.69,.13,0-.06,.01-.22,.01-.22l.02-.32h-.02c-.15-.12-.3-.17-.45-.17-.1,0-.11,.06-.11,.08,0,.01,0,.02,.08,.17,.05,.09,.09,.2,.11,.32,0,0,.03,.13,.05,.21-.07,.01-.61,.12-.61,.12l.06,.05c.09,.08,.19,.12,.3,.12,.06,0,.15-.02,.26-.05,0,.07,.06,.42,.07,.48-.36,.07-.7,.12-1.01,.15h-.07s.04,.06,.04,.06c.08,.11,.21,.17,.37,.17,.09,0,.2-.02,.31-.05,0,0,.11-.03,.18-.04-.2,.57-.63,1.11-1.29,1.6h-.02s.04-.11,.08-.19l.51-1.08h-.12s-.35,.45-.35,.45c-.16,.21-.27,.34-.33,.4-.06,.05-.12,.07-.18,.08-.09,0-.14,.04-.14,.09,0,.08,.03,.21,.09,.41,.07,.22,.14,.32,.22,.32,.11,0,.14-.16,.15-.21,.01-.06,.03-.14,.06-.23l.07,.05h.02c.45-.14,.82-.42,1.1-.83,.03,.14,.04,.3,.04,.49l-.02,.46c0,.17,.06,.33,.18,.47,.13,.15,.38,.22,.79,.22,.25,0,.5-.03,.73-.08,.25-.06,.37-.15,.37-.26,0-.06-.04-.1-.12-.14l-.17-.05s-.1,.02-.16,.05c-.05,.03-.15,.06-.29,.09-.14,.03-.3,.04-.47,.04-.18,0-.32-.02-.4-.05-.08-.03-.12-.1-.14-.22,0,0-.02-.23-.02-.33,.05,0,.11,0,.11,0,.05,0,.2-.02,.45-.06,.38-.07,.41-.1,.42-.12l.04-.1c0-.07-.07-.11-.12-.13,.03-.05,.09-.21,.09-.21,.02-.05,.06-.09,.11-.12,.07-.05,.1-.08,.1-.12,0-.06-.07-.12-.21-.2-.13-.08-.22-.11-.28-.11-.02,0-.25,.1-.25,.1l-.26,.09c-.1,.03-.19,.04-.27,.04,0,0-.04,0-.08-.01,.06-.07,.19-.23,.19-.23,.2-.25,.2-.26,.2-.28,0-.03-.03-.08-.14-.16,.12-.03,.42-.08,.45-.09,.03,.03,.55,.61,.55,.61,.19,.22,.36,.39,.51,.52,.15,.14,.26,.21,.31,.23,0,0,.18,.03,.18,.03,.06,0,.21-.02,.47-.06,.4-.06,.42-.09,.42-.13,0-.02,0-.04-.05-.06"/>
        <path class="cls-3" d="M42.3,9.46v.95c-.06,0-.8,.08-.87,.08,0-.35-.02-.66-.06-.91,.07,0,.85-.12,.93-.13m1.43,.03c0,.07-.02,.2-.07,.41-.04,.19-.1,.31-.19,.35-.09,.04-.37,.09-.82,.13,0-.08,0-.9,0-.97,.42-.07,.72-.1,.89-.1,.11,0,.14,.02,.15,.04,.02,.03,.04,.07,.04,.14m.45-.34c-.18-.13-.31-.2-.4-.2-.02,0-.05,0-.21,.07-.1,.04-.41,.09-.91,.16,.01-.39,.04-.67,.08-.81l.03-.13c0-.08-.06-.16-.18-.22-.11-.07-.25-.11-.4-.13h-.01s0,0,0,0c-.09,.03-.11,.09-.11,.13v.05c.08,.11,.14,.24,.18,.39,.04,.15,.06,.41,.06,.77-.38,.06-.66,.09-.81,.09l-.36-.04-.38-.04h0s-.04,.04-.04,.09l.02,.08c.08,.08,.14,.17,.19,.29,.05,.11,.09,.36,.13,.73,.04,.41,.13,.61,.27,.61,.07,0,.1-.09,.12-.32,.06,0,.79-.07,.87-.08,0,.08-.02,.82-.02,.82l-.03,.85c0,.07,.02,.21,.07,.43,.06,.31,.1,.36,.15,.36h.01l.03-.02c.06-.06,.14-.21,.14-.93,0,0-.02-1.35-.02-1.54,.51-.04,.89-.06,1.12-.06,.07,0,.21,0,.21-.08,0-.08-.04-.17-.18-.21,.24-.36,.4-.59,.5-.66,.14-.1,.17-.15,.17-.18,0-.03-.02-.08-.28-.27"/>
        <path class="cls-3" d="M52.05,12.1c-.63-.06-1.14-.18-1.51-.35-.36-.17-.69-.41-.99-.7,.06-.12,.12-.3,.18-.52l.13-.46c.02-.06,.05-.1,.07-.13l.06-.11s-.04-.09-.14-.17c-.05-.04-.11-.07-.17-.09,.43-.08,.89-.14,1.37-.19,.1-.06,.14-.12,.14-.17,0-.06-.05-.12-.17-.17-.1-.04-.21-.07-.33-.07-.18,0-.37,.05-.55,.15-.65,.28-1.47,.42-2.43,.44h-.08l.04,.06c.1,.15,.26,.22,.47,.22,.22,0,.66-.08,1.28-.23,0,.01-.02,.02-.02,.04,0,0,.02,.2,.02,.2,0,.19-.06,.5-.18,.89-.07-.08-.28-.32-.28-.32-.15-.19-.26-.31-.35-.36-.08-.05-.17-.08-.26-.08-.06,0-.24,0-.24,.12l.02,.07h.02c.32,.15,.65,.43,.98,.85-.33,.43-.96,.72-1.88,.85v.08c.15,.04,.29,.07,.42,.07,.17,0,.45-.06,.81-.16,.35-.11,.65-.3,.89-.56,.28,.32,.55,.58,.81,.79,.27,.22,.47,.33,.6,.33,.1,0,.31-.04,.63-.11l.64-.13v-.08Zm-2.85-3.49c.25,.2,.43,.3,.55,.3,.08,0,.17-.05,.17-.28,0-.09-.05-.18-.16-.27-.1-.08-.21-.13-.33-.14-.11-.02-.29-.03-.55-.04h-.04s0,.05,0,.05c0,.04,.03,.11,.37,.38"/>
        <path class="cls-3" d="M58.34,11.98c-.24-.06-.47-.16-.68-.3-.21-.14-.42-.33-.62-.56-.19-.23-.38-.5-.57-.8,0-.02,.01-.22,.01-.27,.22-.04,.52-.08,.92-.12l.73-.08c.12-.02,.14-.08,.14-.12,0-.07-.06-.13-.19-.2-.12-.06-.26-.1-.42-.1-.01,0-.04,0-.4,.13-.22,.08-.47,.14-.76,.17,.01-.52,.04-.87,.08-1.01,.05-.17,.08-.27,.08-.32,0-.08-.03-.14-.09-.18-.05-.04-.14-.08-.25-.11-.11-.04-.23-.05-.34-.05-.07,0-.11,.04-.11,.1,0,.03,.02,.06,.05,.09,.15,.18,.23,.5,.23,.96,0,0-.01,.53-.02,.59-.06,0-1.42,.2-1.42,.2l.04,.05c.1,.13,.26,.2,.47,.2,.12,0,.29-.03,.51-.08,0,0,.27-.06,.39-.08-.09,1.03-.61,1.75-1.57,2.12v.08c.32,.02,.68-.12,1.06-.41,.36-.27,.62-.69,.79-1.23,.23,.41,.48,.8,.77,1.16,.42,.53,.59,.59,.68,.59,.3,0,.74-.05,1.31-.16v-.08s-.82-.19-.82-.19Z"/>
        <path class="cls-3" d="M65.34,11.07c-.11-.07-.23-.11-.38-.11-.11,0-.26,.02-.48,.07-.21,.04-.36,.07-.45,.07,0,0-.1,0-.1,0-.01,0-.02,0-.03-.02,.18-.16,.37-.3,.56-.41,.12-.05,.15-.12,.15-.17,0,0,0-.02,0-.03h0s-.01-.02-.01-.02c-.2-.16-.38-.24-.54-.24-.01,0-.42,.13-.42,.13l-.43,.1c-.15,.02-.3,.03-.45,.03h-.09s.06,.07,.06,.07c.12,.13,.26,.2,.42,.19,0,0,.78-.24,.81-.25h.07s.01,.03,.01,.05c0,.02-.03,.12-.26,.41-.09-.06-.18-.1-.28-.1s-.1,.05-.1,.08c0,.03,.02,.06,.11,.14,.04,.03,.06,.06,.08,.08-.84,.11-1.44,.17-1.79,.19h-.04s0,.05,0,.05c0,.03,.02,.08,.16,.17,.1,.07,.19,.1,.26,.1,.04,0,.14-.01,.67-.13,.36-.08,.63-.13,.82-.14,.02,.14,.04,.3,.04,.46,0,.41-.08,.63-.24,.63-.07,0-.25-.03-.53-.09l-.03,.07c.29,.19,.48,.36,.55,.52l.02,.04,.04-.02c.34-.14,.51-.5,.51-1.05,0-.16-.02-.36-.05-.59,.08,0,.65-.02,.65-.02l.77,.03c.11,0,.13-.07,.13-.1,0-.06-.06-.13-.17-.21m.56-1.23c-.12-.13-.23-.19-.33-.19l-.25,.05c-.12,.03-.27,.04-.46,.05,.02-.09,.15-.68,.15-.68,.07-.3,.11-.41,.13-.45,.03-.05,.06-.09,.1-.12,.06-.04,.08-.07,.08-.1,0-.03-.02-.07-.22-.2-.2-.12-.24-.13-.26-.13-.01,0-.02,0-.19,.07-.1,.04-.24,.08-.43,.12l-.09,.02,.07,.05c.09,.07,.18,.1,.26,.1l.15-.02,.13-.02s.06,0,.06,.11c0,.06-.02,.13-.04,.2-.14,0-.34,.02-.57,.05h-.07s.04,.06,.04,.06c.06,.08,.15,.12,.26,.12l.28-.02s.01,0,.02,0c-.01,.06-.05,.24-.06,.28-.05,0-.57,.05-.57,.05v.05c.03,.07,.09,.15,.25,.15l.18-.02s.06,0,.1-.01c-.01,.08-.05,.31-.06,.35-.06,0-1.6,.18-1.67,.19,0-.06-.04-.27-.04-.32,.05-.01,.17-.04,.17-.04l.2-.05,.02-.02h.02s.04-.05,.04-.08c0-.01,0-.02,0-.04h0s0-.01,0-.01c-.04-.04-.09-.05-.15-.05-.05,0-.11,.02-.2,.05-.07,.03-.1,.04-.13,.04,0-.05-.04-.22-.05-.27,.05-.01,.19-.06,.19-.06,.09-.03,.22-.08,.22-.17,0-.04-.01-.12-.14-.12-.06,0-.13,.02-.21,.06,0,0-.07,.02-.11,.04,0-.05-.02-.12-.02-.12,0,0,0-.12-.01-.16,.04-.02,.44-.26,.44-.26v-.03c0-.07-.05-.12-.14-.17-.07-.04-.15-.07-.21-.07-.1,0-.11,.06-.11,.08,0,.12-.05,.23-.14,.33-.24,0-.33,.03-.33,.11l.06,.09c.14,.12,.28,.55,.4,1.27-.07,.01-.5,.1-.55,.11-.08-.14-.16-.22-.25-.24h-.05s0,.04,0,.04c0,.21-.02,.37-.1,.48-.08,.13-.12,.23-.12,.3,0,.19,.1,.22,.15,.22,.08,0,.17-.07,.27-.2,.08-.12,.13-.26,.13-.41,.19-.05,.69-.12,1.51-.21,.85-.1,1.36-.14,1.52-.14h.2s.04,.01,.04,.01c0,.01-.02,.08-.25,.3l.04,.07,.42-.12,.18-.02c.14,0,.3-.01,.3-.12,0-.03-.01-.07-.18-.24m-2.8,.04l.12-.02c.14-.03,.31-.15,.52-.35,.04,.04,.21,.21,.21,.21l.12,.03v-.03s.02-.09,.02-.09c0-.09-.07-.19-.19-.31,.02-.03,.06-.08,.06-.08,.04-.06,.07-.12,.07-.17,0,0,0-.02,0-.03v-.02s-.02,0-.02,0c-.07-.05-.13-.08-.17-.08s-.1,.03-.13,.16c0,.06-.02,.08-.03,.1-.09-.06-.18-.09-.26-.09l-.18,.02,.09,.06c.1,.07,.17,.13,.21,.19-.04,.04-.16,.19-.16,.19l-.29,.33Zm.29-1.44c.07,.05,.11,.08,.13,.12-.03,.04-.35,.45-.35,.45l.12-.03c.16-.04,.3-.13,.43-.27,.03,.03,.09,.1,.09,.1,.07,.08,.13,.13,.19,.14h.02s.02,0,.02,0c.05-.04,.08-.09,.08-.14,0-.09-.07-.2-.21-.32,.03-.03,.1-.12,.1-.12,.08-.08,.11-.17,.11-.25s-.1-.13-.32-.17h-.05s0,.05,0,.05c0,.02,0,.04,0,.06,0,.1-.04,.2-.1,.3-.04-.02-.14-.07-.14-.07-.1-.05-.18-.08-.26-.07h-.07s.04,.06,.04,.06c.03,.04,.08,.09,.17,.16"/>
        <path class="cls-3" d="M26.99,16.88c0,.16,0,.27-.04,.31-.03,.04-.08,.06-.18,.06h-.2v.14c.21,0,.41-.01,.62-.01,.19,0,.39,0,.6,.01v-.13s-.2-.01-.2-.01c-.1,0-.15-.02-.17-.06-.03-.04-.04-.15-.04-.31v-1.76c0-.16,0-.29,.02-.42h.65c.13,0,.16,.04,.17,.14l.02,.33h.13c0-.23,0-.46,.03-.67-.15,0-.3,0-.45,0-.15,0-.3,0-.45,0h-.6c-.3,0-.6-.01-.9-.01,.02,.22,.03,.45,.03,.67h.13s.02-.33,.02-.33c0-.1,.04-.14,.17-.14h.64c.01,.12,.02,.26,.02,.42v1.76Z"/>
        <path class="cls-3" d="M28.58,16.96c0,.11,0,.2-.02,.24-.02,.04-.06,.06-.13,.06h-.19v.14c.15,0,.31-.01,.52-.01s.37,0,.52,.01v-.13s-.19-.01-.19-.01c-.07,0-.12-.02-.13-.06-.02-.04-.02-.13-.02-.24v-.88c0-.17,.26-.39,.51-.39,.28,0,.48,.18,.48,.53v1.18c.1,0,.22-.01,.33-.01s.24,0,.34,.01v-.13s-.17-.01-.17-.01c-.07,0-.12-.02-.13-.06-.02-.04-.02-.13-.02-.24v-.8c0-.45-.2-.72-.69-.72-.17,0-.25,.02-.34,.1l-.31,.26h0v-1.41s-.04-.03-.04-.03c-.21,.08-.43,.12-.65,.15v.12h.23c.09,0,.1,.08,.1,.17v2.16Z"/>
        <path class="cls-3" d="M31.59,15.43c-.14,0-.26,.04-.41,.11-.09,.04-.18,.1-.26,.17-.19,.15-.3,.39-.3,.8,0,.56,.33,.97,.96,.97,.28,0,.64-.18,.67-.24l.08-.14-.05-.04c-.16,.09-.32,.2-.52,.2-.51,0-.75-.34-.75-.82h.61c.25,0,.51-.02,.76-.06,0-.06,0-.12,0-.17,0-.47-.34-.76-.79-.76m-.02,.14c.3,0,.44,.32,.44,.7-.3,.02-.65,.03-.99-.01-.02-.46,.23-.69,.55-.69"/>
        <path class="cls-3" d="M35.97,17.03l-.04-.04c-.19,.14-.55,.25-.85,.25-.82,0-1.37-.53-1.37-1.36,0-.71,.41-1.28,1.2-1.28,.15,0,.33,.03,.47,.07,.19,.07,.36,.14,.36,.26v.3s.13,0,.13,0c0-.22,.04-.44,.08-.63-.2-.07-.58-.17-.96-.17-.47,0-.89,.14-1.2,.4-.32,.26-.51,.64-.51,1.12,0,.95,.68,1.52,1.68,1.52,.25,0,.67-.08,.91-.23l.12-.21Z"/>
        <path class="cls-3" d="M36.37,16.96c0,.11,0,.2-.02,.24-.02,.04-.06,.06-.13,.06h-.19v.14c.15,0,.31-.01,.52-.01s.37,0,.52,.01v-.13s-.19-.01-.19-.01c-.07,0-.12-.02-.13-.06-.02-.04-.02-.13-.02-.24v-.88c0-.17,.26-.39,.51-.39,.28,0,.48,.18,.48,.53v1.18c.1,0,.22-.01,.34-.01s.24,0,.34,.01v-.13h-.17c-.07-.02-.12-.03-.13-.07-.02-.04-.02-.13-.02-.24v-.8c0-.45-.2-.72-.69-.72-.17,0-.25,.02-.34,.1l-.31,.26h0v-1.41s-.04-.03-.04-.03c-.21,.08-.43,.12-.65,.15v.12h.23c.09,0,.1,.08,.1,.17v2.16Z"/>
        <path class="cls-3" d="M38.89,14.52c-.12,0-.23,.11-.23,.23,0,.12,.11,.23,.23,.23s.23-.11,.23-.23c0-.12-.11-.23-.23-.23m.2,.93l-.04-.02c-.16,.07-.41,.14-.65,.17v.12s.15,0,.15,0c.09,0,.13,.01,.16,.05,.02,.03,.03,.12,.03,.26v.94c0,.11,0,.2-.02,.24-.02,.04-.06,.05-.13,.06h-.19v.14c.15,0,.32-.01,.52-.01s.37,0,.52,.01v-.13s-.19-.01-.19-.01c-.07,0-.12-.02-.13-.06-.02-.05-.02-.13-.02-.24v-1.51Z"/>
        <path class="cls-3" d="M40.11,16.07c0-.17,.26-.39,.51-.39,.28,0,.48,.18,.48,.53v1.18c.1,0,.22-.01,.33-.01s.24,0,.34,.01v-.13s-.17-.01-.17-.01c-.07,0-.12-.02-.13-.06-.02-.05-.02-.13-.02-.24v-.8c0-.46-.2-.72-.69-.72-.17,0-.25,.03-.34,.1l-.31,.26h0v-.35s-.04-.02-.04-.02c-.16,.07-.4,.14-.65,.17v.12s.15,0,.15,0c.09,0,.13,.01,.15,.05,.02,.03,.03,.12,.03,.26v.93c0,.11,0,.2-.02,.24-.02,.04-.06,.05-.13,.06h-.19v.14c.14,0,.31-.01,.52-.01s.37,0,.52,.01v-.13s-.19-.01-.19-.01c-.07,0-.12-.02-.13-.06-.02-.05-.02-.13-.02-.24v-.88Z"/>
        <path class="cls-3" d="M42.77,15.43c-.14,0-.26,.04-.41,.11-.09,.04-.18,.1-.26,.17-.19,.15-.3,.39-.3,.8,0,.56,.33,.97,.96,.97,.28,0,.64-.18,.67-.24l.08-.14-.05-.04c-.16,.09-.32,.2-.52,.2-.51,0-.76-.34-.76-.82h.61c.25,0,.5-.02,.75-.06,0-.06,0-.12,0-.17,0-.47-.34-.76-.79-.76m-.02,.14c.3,0,.44,.32,.44,.7-.3,.02-.65,.03-.99-.01-.02-.46,.23-.69,.55-.69"/>
        <path class="cls-3" d="M43.73,16.79c0,.2,0,.4-.05,.58,.2,.07,.38,.1,.58,.1,.46,0,.92-.24,.92-.7,0-.33-.23-.45-.73-.53-.32-.05-.45-.15-.45-.33,0-.14,.05-.34,.41-.34,.24,0,.48,.13,.48,.34v.1s.12,0,.12,0c0-.17,0-.32,.02-.47-.16-.06-.34-.1-.54-.1-.39,0-.78,.16-.78,.61,0,.25,.15,.38,.35,.45,.2,.08,.43,.12,.61,.17,.13,.03,.2,.14,.2,.27,0,.22-.23,.38-.49,.38-.24,0-.54-.1-.54-.35v-.17s-.12,0-.12,0Z"/>
        <path class="cls-3" d="M46.28,15.43c-.14,0-.26,.04-.41,.11-.09,.04-.18,.1-.26,.17-.19,.15-.3,.39-.3,.8,0,.56,.33,.97,.96,.97,.28,0,.64-.18,.67-.24l.08-.14-.05-.04c-.16,.09-.32,.2-.52,.2-.51,0-.75-.34-.75-.82h.61c.25,0,.51-.02,.76-.06,0-.06,0-.12,0-.17,0-.47-.34-.76-.79-.76m-.02,.14c.3,0,.44,.32,.44,.7-.3,.02-.65,.03-.99-.01-.02-.46,.23-.69,.55-.69"/>
        <path class="cls-3" d="M48.29,16.49c0,.76,.42,.98,1.13,.98,.84,0,1.18-.36,1.18-1.25v-1.2c0-.16,0-.27,.04-.31,.02-.04,.07-.05,.17-.06h.18v-.14c-.18,0-.33,.01-.5,.01-.15,0-.32,0-.48-.01v.13s.18,.01,.18,.01c.1,0,.15,.02,.17,.06,.03,.05,.04,.16,.04,.31v1.33c0,.69-.41,.86-.86,.86-.55,0-.86-.17-.86-.76v-1.43c0-.16,0-.27,.04-.31,.03-.04,.08-.06,.18-.06h.2v-.14c-.22,0-.41,.01-.6,.01-.2,0-.4,0-.62-.01v.13s.2,.01,.2,.01c.1,0,.15,.02,.17,.06,.03,.05,.04,.16,.04,.31v1.48Z"/>
        <path class="cls-3" d="M51.53,16.07c0-.17,.26-.39,.51-.39,.28,0,.48,.18,.48,.53v1.18c.1,0,.22-.01,.33-.01s.24,0,.34,.01v-.13s-.17-.01-.17-.01c-.07,0-.12-.02-.13-.06-.02-.05-.02-.13-.02-.24v-.8c0-.46-.2-.72-.69-.72-.17,0-.24,.03-.34,.1l-.31,.26h0v-.35s-.04-.02-.04-.02c-.15,.07-.4,.14-.65,.17v.12s.15,0,.15,0c.09,0,.13,.01,.15,.05,.02,.03,.03,.12,.03,.26v.93c0,.11,0,.2-.02,.24-.02,.04-.06,.05-.13,.06h-.19v.14c.14,0,.31-.01,.52-.01s.37,0,.52,.01v-.13h-.19c-.07-.02-.12-.03-.13-.07-.02-.05-.02-.13-.02-.24v-.88Z"/>
        <path class="cls-3" d="M53.7,14.52c-.12,0-.23,.11-.23,.23,0,.12,.11,.23,.23,.23s.23-.11,.23-.23-.11-.23-.23-.23m.2,.93l-.04-.02c-.15,.07-.41,.14-.65,.17v.12s.15,0,.15,0c.09,0,.13,.01,.16,.05,.02,.03,.03,.12,.03,.26v.94c0,.11,0,.2-.02,.24-.02,.04-.06,.05-.13,.06h-.19v.14c.15,0,.32-.01,.52-.01s.37,0,.52,.01v-.13s-.19-.01-.19-.01c-.07,0-.12-.02-.13-.06-.02-.05-.02-.13-.02-.24v-1.51Z"/>
        <path class="cls-3" d="M56.04,15.87c.06-.13,.13-.27,.23-.28h.13v-.13c-.13,0-.26,.01-.39,.01s-.26,0-.39-.01v.12s.17,0,.17,0c.13,0,.13,.13,.02,.41l-.18,.44c-.08,.19-.17,.39-.26,.58l-.5-1.2c-.07-.17-.04-.23,.07-.24h.21v-.13c-.16,0-.32,.01-.48,.01s-.32,0-.49-.01v.12s.14,0,.14,0c.08,0,.1,.08,.13,.14l.72,1.68h.21c.06-.14,.1-.3,.17-.45l.49-1.08Z"/>
        <path class="cls-3" d="M57.41,15.43c-.14,0-.26,.04-.41,.11-.09,.04-.18,.1-.26,.17-.19,.15-.3,.39-.3,.8,0,.56,.33,.97,.96,.97,.28,0,.64-.18,.67-.24l.08-.14-.05-.04c-.16,.09-.32,.2-.52,.2-.51,0-.75-.34-.75-.82h.61c.25,0,.51-.02,.76-.06,0-.06,0-.12,0-.17,0-.47-.34-.76-.79-.76m-.02,.14c.3,0,.44,.32,.44,.7-.3,.02-.65,.03-.99-.01-.02-.46,.23-.69,.55-.69"/>
        <path class="cls-3" d="M58.64,16.96c0,.11,0,.2-.02,.24-.02,.04-.06,.06-.13,.06h-.19v.14c.15,0,.32-.01,.52-.01s.37,0,.59,.01v-.13s-.22-.01-.22-.01c-.1,0-.16-.02-.17-.06-.02-.04-.02-.13-.02-.24v-.72c0-.27,.18-.46,.37-.46,.15,0,.24,.09,.28,.19h.09s.04-.51,.04-.51c-.03-.02-.12-.04-.19-.04-.11,0-.25,.05-.35,.17l-.22,.27h0v-.42s-.04-.02-.04-.02c-.15,.07-.4,.14-.65,.17v.12s.15,0,.15,0c.09,0,.13,.01,.15,.04,.02,.03,.03,.13,.03,.26v.94Z"/>
        <path class="cls-3" d="M59.89,16.79c0,.2,0,.4-.05,.58,.21,.07,.38,.1,.58,.1,.46,0,.92-.24,.92-.7,0-.33-.23-.45-.73-.53-.32-.05-.45-.15-.45-.33,0-.14,.05-.34,.41-.34,.24,0,.48,.13,.48,.34v.1s.12,0,.12,0c0-.17,0-.32,.02-.47-.16-.06-.34-.1-.54-.1-.39,0-.78,.16-.78,.61,0,.25,.15,.38,.35,.45,.2,.08,.43,.12,.61,.17,.13,.03,.2,.14,.2,.27,0,.22-.22,.38-.49,.38-.24,0-.54-.1-.54-.35v-.17s-.13,0-.13,0Z"/>
        <path class="cls-3" d="M61.95,14.52c-.12,0-.23,.11-.23,.23s.11,.23,.23,.23,.23-.11,.23-.23-.11-.23-.23-.23m.2,.93l-.04-.02c-.15,.07-.4,.14-.65,.17v.12s.15,0,.15,0c.09,0,.13,.01,.15,.05,.02,.03,.03,.12,.03,.26v.94c0,.11,0,.2-.02,.24-.02,.04-.06,.05-.13,.06h-.19v.14c.15,0,.32-.01,.52-.01s.37,0,.52,.01v-.13s-.19-.01-.19-.01c-.07,0-.12-.02-.13-.06-.02-.05-.02-.13-.02-.24v-1.51Z"/>
        <path class="cls-3" d="M62.86,15.79v1.2c0,.34,.19,.44,.41,.44,.09,0,.23,0,.27-.05l.2-.22-.05-.07c-.06,.03-.14,.08-.25,.08-.17,0-.23-.09-.23-.29v-1.09h.53s.04-.22,.04-.22l-.57,.02v-.16c0-.17,.02-.41,.05-.59l-.05-.05c-.07,.05-.21,.11-.35,.16,.01,.11,.02,.22,.02,.33v.29l-.32,.15v.09s.32-.02,.32-.02Z"/>
        <path class="cls-3" d="M64.92,17.02l-.48-1.16c-.09-.22-.02-.27,.1-.27h.16v-.12c-.16,0-.32,.01-.48,.01s-.32,0-.48-.01v.12s.08,0,.08,0c.09,0,.15,.05,.22,.2l.69,1.69-.1,.25c-.08,.19-.21,.53-.45,.55-.06,0-.16-.05-.21-.1h-.05l-.1,.31s.14,.06,.21,.06c.35,0,.5-.21,.63-.51l.85-1.95c.16-.37,.25-.5,.35-.5h.12v-.12c-.13,0-.26,.01-.4,.01s-.26,0-.4-.01v.12s.11,0,.11,0c.15,.01,.21,.06,.15,.21l-.5,1.22Z"/>
        <path class="cls-3" d="M67.6,15.56c.4,0,.65,.46,.65,1s-.16,.77-.54,.77c-.53,0-.69-.58-.69-1.02,0-.39,.14-.75,.58-.75m-.05,1.9c.64,0,1.09-.45,1.09-1.09,0-.53-.41-.95-.95-.95-.67,0-1.06,.44-1.06,1.06s.39,.99,.92,.98"/>
        <path class="cls-3" d="M70.07,14.39c-.06-.03-.13-.05-.19-.05-.12,0-.27,.05-.38,.18l-.24,.28c-.12,.14-.17,.32-.17,.6v.17l-.29,.13v.09s.29-.02,.29-.02v1.18c0,.11,0,.19-.02,.24-.02,.04-.06,.06-.13,.06h-.19v.14c.15,0,.32-.01,.52-.01s.37,0,.52,.01v-.13s-.19-.01-.19-.01c-.07,0-.12-.02-.13-.06-.02-.05-.02-.13-.02-.24v-1.18h.52s.03-.22,.03-.22l-.55,.02v-.35c0-.47,.05-.6,.3-.6,.11,0,.2,.05,.28,.12l.05-.02v-.32Z"/>
        <path class="cls-3" d="M73.79,15.01c0-.16,0-.27,.04-.31,.02-.04,.07-.06,.17-.06h.2v-.14c-.22,0-.41,.01-.6,.01-.2,0-.4,0-.62-.01v.13s.2,.01,.2,.01c.1,0,.15,.02,.17,.06,.03,.05,.04,.16,.04,.31v.74s-.16,0-.35,0h-.98c-.18,0-.3,0-.34,0v-.74c0-.16,0-.27,.04-.31,.02-.04,.08-.06,.17-.06h.2v-.14c-.22,0-.41,.01-.6,.01-.2,0-.4,0-.62-.01v.13h.2c.1,.02,.15,.03,.17,.07,.03,.05,.04,.16,.04,.31v1.87c0,.16,0,.27-.04,.31-.02,.04-.07,.06-.17,.06h-.2v.14c.22,0,.41-.01,.62-.01,.19,0,.39,0,.6,.01v-.13s-.2-.01-.2-.01c-.1,0-.15-.02-.17-.06-.03-.04-.04-.15-.04-.31v-.93s.16,0,.34,0h.98c.18,0,.3,0,.35,0v.93c0,.16,0,.27-.04,.31-.03,.04-.08,.06-.17,.06h-.2v.14c.22,0,.41-.01,.62-.01,.19,0,.39,0,.6,.01v-.13s-.2-.01-.2-.01c-.1,0-.15-.02-.17-.06-.03-.04-.04-.15-.04-.31v-1.87Z"/>
        <path class="cls-3" d="M75.27,15.56c.4,0,.65,.46,.65,1,0,.39-.16,.77-.54,.77-.53,0-.69-.58-.69-1.02,0-.39,.14-.75,.58-.75m-.05,1.9c.64,0,1.09-.45,1.09-1.09,0-.53-.41-.95-.95-.95-.67,0-1.06,.44-1.06,1.06,0,.58,.39,.99,.92,.98"/>
        <path class="cls-3" d="M77.04,16.07c0-.17,.26-.39,.51-.39,.28,0,.48,.18,.48,.53v1.18c.1,0,.22-.01,.33-.01s.24,0,.34,.01v-.13s-.17-.01-.17-.01c-.07,0-.12-.02-.13-.06-.02-.05-.02-.13-.02-.24v-.8c0-.46-.2-.72-.69-.72-.17,0-.25,.03-.34,.1l-.31,.26h0v-.35s-.04-.02-.04-.02c-.15,.07-.4,.14-.65,.17v.12s.15,0,.15,0c.09,0,.13,.01,.15,.05,.02,.03,.03,.12,.03,.26v.93c0,.11,0,.2-.02,.24-.02,.04-.06,.05-.13,.06h-.19v.14c.15,0,.31-.01,.52-.01s.37,0,.52,.01v-.13s-.19-.01-.19-.01c-.07,0-.12-.02-.13-.06-.02-.05-.02-.13-.02-.24v-.88Z"/>
        <path class="cls-3" d="M79.68,18.43c-.33,0-.61-.18-.61-.54,0-.26,.23-.42,.35-.44,.19-.02,.33-.02,.44-.02,.47,0,.59,.13,.59,.38,0,.33-.31,.62-.77,.62m.42-2.26c0,.25-.18,.44-.42,.44-.27,0-.47-.19-.47-.56,0-.27,.14-.49,.42-.49,.35,0,.48,.3,.48,.6m.69-.37l.1-.17-.02-.05-.59,.02c-.13-.12-.33-.17-.51-.17-.16,0-.41,.05-.6,.18-.19,.12-.32,.3-.32,.57,0,.43,.36,.55,.49,.56h0s-.32,.25-.32,.25c-.04,.05-.06,.11-.06,.17,0,.12,.09,.2,.27,.25l-.36,.2c-.09,.08-.12,.21-.12,.33,0,.37,.39,.63,.9,.63,.7,0,1.13-.45,1.13-.9,0-.21-.12-.52-.49-.52h-.67c-.13,0-.32,0-.32-.17,0-.09,.13-.18,.19-.23,.03,0,.06,0,.09,0,.19,0,.4-.07,.58-.2,.17-.11,.28-.29,.28-.52,0-.08-.01-.16-.05-.23h.38Z"/>
        <path class="cls-3" d="M82.51,16.03l.04-.03,1.45,1.4c.13,0,.23-.01,.33-.01s.2,0,.28,.01v-.13s-.09,0-.09,0c-.08,0-.15-.07-.26-.17l-1.38-1.3,1.11-1c.1-.1,.22-.15,.33-.16h.17v-.14c-.1,0-.22,.01-.33,.01s-.24,0-.37-.01v.12s-.06,.1-.12,.16l-1.16,1.13v-.89c0-.16,0-.27,.04-.31,.03-.04,.08-.06,.18-.06h.2v-.14c-.22,0-.41,.01-.6,.01-.21,0-.4,0-.62-.01v.13s.2,.01,.2,.01c.1,0,.15,.02,.17,.06,.03,.05,.04,.16,.04,.31v1.87c0,.16,0,.27-.04,.31-.03,.04-.08,.06-.17,.06h-.2v.14c.22,0,.41-.01,.62-.01,.19,0,.39,0,.6,.01v-.13s-.2-.01-.2-.01c-.1,0-.15-.02-.18-.06-.03-.04-.04-.16-.04-.31v-.85Z"/>
        <path class="cls-3" d="M85.51,15.56c.4,0,.65,.46,.65,1,0,.39-.16,.77-.54,.77-.53,0-.69-.58-.69-1.02,0-.39,.14-.75,.58-.75m-.05,1.9c.64,0,1.09-.45,1.09-1.09s-.41-.95-.95-.95c-.67,0-1.06,.44-1.06,1.06s.39,.99,.92,.98"/>
        <path class="cls-3" d="M87.28,16.07c0-.17,.26-.39,.51-.39,.28,0,.48,.18,.48,.53v1.18c.1,0,.22-.01,.33-.01s.24,0,.34,.01v-.13s-.17-.01-.17-.01c-.07,0-.12-.02-.13-.06-.02-.05-.02-.13-.02-.24v-.8c0-.46-.2-.72-.69-.72-.17,0-.25,.03-.34,.1l-.31,.26h0v-.35s-.04-.02-.04-.02c-.15,.07-.4,.14-.65,.17v.12s.15,0,.15,0c.09,0,.13,.01,.15,.05,.02,.03,.03,.12,.03,.26v.93c0,.11,0,.2-.02,.24-.02,.04-.06,.05-.13,.06h-.19v.14c.15,0,.31-.01,.52-.01s.37,0,.52,.01v-.13s-.19-.01-.19-.01c-.07,0-.12-.02-.13-.06-.02-.05-.02-.13-.02-.24v-.88Z"/>
        <path class="cls-3" d="M89.92,18.43c-.33,0-.61-.18-.61-.54,0-.26,.23-.42,.35-.44,.19-.02,.33-.02,.44-.02,.47,0,.59,.13,.59,.38,0,.33-.31,.62-.77,.62m.42-2.26c0,.25-.18,.44-.42,.44-.27,0-.47-.19-.47-.56,0-.27,.14-.49,.42-.49,.35,0,.48,.3,.48,.6m.69-.37l.1-.17-.02-.05-.59,.02c-.13-.12-.32-.17-.51-.17-.16,0-.41,.05-.61,.18-.19,.12-.32,.3-.32,.57,0,.43,.36,.55,.49,.56h0s-.32,.25-.32,.25c-.04,.05-.06,.11-.06,.17,0,.12,.09,.2,.27,.25l-.36,.2c-.09,.08-.12,.21-.12,.33,0,.37,.39,.63,.9,.63,.7,0,1.13-.45,1.13-.9,0-.21-.12-.52-.49-.52h-.67c-.13,0-.32,0-.32-.17,0-.09,.13-.18,.19-.23,.03,0,.06,0,.09,0,.19,0,.4-.07,.58-.2,.17-.11,.28-.29,.28-.52,0-.08-.01-.16-.04-.23h.38Z"/>
        <path class="cls-4" d="M13,18c.15,0,.83-.24,1.09-.38,1.42-.75,2.67-1.77,3.48-3.18,.65-1.13,.69-2.53,.8-3.8,.14-1.64,.13-3.28,.1-4.93,0-.12-2.36-.38-2.6-.4-.95-.09-2.23-.15-2.87-.15s-1.92,.06-2.87,.15c-.24,.02-2.59,.28-2.6,.4-.03,1.65-.04,3.29,.1,4.93,.11,1.27,.15,2.66,.8,3.8,.81,1.41,2.05,2.43,3.48,3.18,.27,.14,.95,.38,1.09,.38"/>
        <path class="cls-2" d="M16.5,11.73h0s.01,0,.02,0c0,0-.01,0-.02,0m.59,.1s.01,0,.02,.01h0s0,0-.02-.01m-.1,.31s.01,0,.02,.01h0s-.01,0-.02-.01m-.22,.73s.01,0,.02,.02h0s-.01-.01-.02-.02m.02-1.38s-.03,0-.04-.01h0s.03,0,.04,.01m-3.66,3.94s-.09,.04-.14,.04h.02s.09-.03,.13-.04m2.72-7.37s-.02,.01-.04,.03c.02-.01,.04-.02,.04-.02h0m.53-1.79h0s0,0-.02,0c0,0,.01,0,.02,0m-.2,.81s-.01,0-.04,.02c.02,0,.03-.02,.04-.02,0,0,0,0,0,0m.73,5.41s.01,0,.02,.01h0s0-.01-.02-.01m-.04-3.28s.03-.02,.04-.03c-.02,0-.03,.02-.05,.03h0Zm-.99,1.23s.01,0,.02,0c0,0-.01,0-.02,0h0Zm1.53-2.22v.14c-.14,1.95-.74,2.66-1.32,3.09l-.02,.02c-.18,.13-.39,.29-.76,.42h-.01c-.07,.03-.29,.09-.35,.19-.05,.09-.07,.1-.08,.1-.02-.01,.02-.14,.04-.17,.04-.08,.11-.12,.25-.19,.26-.12,.29-.28,.29-.36,0-.12-.08-.23-.19-.27-.08-.03-.17-.01-.22,.04,.02,0,.08,.04,.09,.13,.01,.15-.06,.21-.13,.22-.08,0-.18-.05-.19-.16-.03-.21,.08-.34,.15-.38,.08-.06,.14-.08,.2-.1,0,0,.11-.04,.11-.04,.17-.03,.29,.06,.36,.12,.02,.02,.04,.04,.05,.03h0c.02-.06-.01-.26-.05-.37h0s0-.01,0-.01c.16-.02,.24,.08,.29,.15,.02,.02,.03,.04,.04,.04,0,0,0,0,0-.01,.02-.06-.04-.28-.08-.39,0,0,0,0,0,0h0s0,0,0,0c.16-.05,.26,.04,.31,.09,.02,.02,.04,.03,.04,.03h0c.02-.07-.06-.28-.12-.38,0,0,.03-.03,.03-.03,.15-.06,.25,0,.31,.04,.02,.01,.04,.02,.05,.02h0c.01-.07-.06-.26-.12-.35,0,0,.03-.04,.03-.04,.12-.04,.22-.01,.28,0,.02,0,.04,.01,.05,0,0,0,0,0,0-.01,0-.05-.06-.22-.12-.29,0,0,.03-.04,.03-.04,.11-.04,.2-.01,.25,0h.05s0,0,0-.01c0-.07-.07-.23-.11-.27,0,0,0,0,0,0h0c.11-.1,.22-.09,.27-.09h.04s0,0,0-.02c0-.04-.08-.16-.14-.21,.13-.25,.23-.48,.28-.69,.07-.26,.08-.26,.09-.26,.01,0,.01,.05,0,.26m-3.11,4.53h0c-.18,.3-.4,.48-.97,.48h-.34v-.31h.3c.47,0,.78-.06,.92-.18,.06-.05,.08-.05,.09-.05,.02,.01,0,.05,0,.06m-1.31-2.25s.07,0,.11,0c.27,0,.4,.13,.4,.42,0,.21-.06,.42-.51,.44v-.86Zm0-4.62c.28,.1,.43,.33,.41,.62-.02,.28-.21,.53-.41,.56v-1.19Zm4.75,3.26s0-.08,0-.09c.06-.02,.33-.13,.38-.47,0-.05,0-.11,0-.17h-.01c-.05,.06-.21,.21-.3,.2-.02,0-.04-.02-.05-.05,0-.34-.03-.6-.06-.95,.09-.05,.3-.2,.3-.52,0-.04,0-.09-.01-.14l-.02,.02c-.05,.06-.19,.22-.27,.21-.02,0-.04-.01-.05-.04v-.05c-.07-.71-.22-1.06-.51-1.22,0,0-.02,0-.02,0,0,0,.01,.03,.03,.05,.04,.06,.11,.17,.14,.29,.05,.21,.06,.38,.06,.52,0,.16-.02,.28-.05,.38-.04,.07-.09,.11-.16,.13-.16,.04-.34-.14-.41-.28,0,0,0-.01,0-.01-.01,0-.04,.04-.05,.07-.05,.19,.01,.43,.14,.52,.05,.04,.12,.06,.21,0,.05-.03,.08-.04,.11-.04,.01,0,.02,.01,.03,.03-.06,.17-.13,.34-.21,.51-.04,.04-.09,.06-.15,.06-.18,.01-.33-.21-.37-.37,0,0,0-.01,0-.01-.01,0-.04,.03-.06,.06-.09,.19-.07,.45,.04,.57,.04,.04,.12,.09,.23,.04,.06-.03,.09-.03,.12-.02,.01,0,.02,.01,.02,.03-.09,.17-.19,.33-.29,.49-.04,.03-.08,.04-.13,.04-.19,0-.32-.22-.34-.38,0,0,0,0,0-.01-.01,0-.05,.03-.08,.06-.12,.18-.14,.42-.04,.55,.06,.07,.14,.09,.24,.05,.06-.02,.1-.03,.12-.01,0,0,0,.01,0,.02-.1,.14-.21,.28-.33,.41-.08,.05-.15,.07-.23,.06-.2-.03-.33-.32-.33-.52,0,0,0-.01,0-.02-.02,0-.06,.03-.09,.05-.15,.19-.2,.5-.09,.67,.04,.06,.11,.13,.25,.1,.07-.01,.12-.01,.13,0,0,.01,0,.03,0,.05l-.33,.31c-.08,.05-.21,.1-.34,.06-.22-.08-.3-.44-.26-.66,0,0,0-.02,0-.02-.02,0-.08,.02-.11,.04-.22,.19-.33,.53-.25,.74,.03,.08,.1,.17,.26,.17,.09,0,.14,0,.15,.04,0,.02-.01,.05-.06,.09-.04,.03-.1,.06-.14,.11-.1,.12-.14,.22-.16,.34v.12c-.02,.09-.02,.2-.04,.29-.02,.09-.05,.17-.08,.24-.21,.38-.69,.58-1.21,.65v-.71c.62-.02,.89-.29,.89-.9,0-.52-.19-.74-.62-.75-.09,0-.18,.01-.27,.04v-.4c.31-.14,.66-.3,1.03-.39,.84-.21,1.52-.68,1.76-1.18,.03-.07,.06-.14,.07-.22-.04,.03-.61,.39-1.03,.48h-.06c-.06,.02-.12,.03-.15,0-.01-.01-.02-.03-.02-.05,0-.23,.13-.41,.35-.5h.02c.51-.23,.91-.4,1.1-.66,.05-.07,.08-.15,.1-.23-.04,.02-.64,.34-1.02,.39h-.02s-.12,.03-.16-.01c-.02-.02-.03-.06-.01-.11,.04-.17,.12-.28,.25-.35,.15-.09,.31-.16,.47-.23,.26-.12,.5-.22,.62-.36,0,0,.01-.01,.02-.02,0,0,0,0,0,0,.02-.03,.04-.07,.04-.1l-.55,.17-.11,.03c-.16,.05-.32,.1-.38,.05-.02-.02-.02-.05,0-.1,.03-.1,.05-.15,.1-.21,.21-.3,.63-.61,1.14-.52,.08,.02,.13,0,.13,0,0,0-.01-.02-.08-.04-.38-.14-.74-.13-1.06,.04-.59,.3-1.07,1.11-1.43,2.4-.21,.74-.66,1-1.13,1.22v-1.65c.17-.07,.32-.16,.45-.29,.36-.35,.48-.8,.34-1.19-.12-.31-.39-.53-.71-.55-.03,0-.05,0-.08,0v-.24c-.59,0-1.8,.06-2.74,.14-.34,.03-2.48,.28-2.48,.38,0,.56-.01,1.11-.01,1.66,0,1.03,.02,2.05,.11,3.07l.03,.4c.09,1.12,.18,2.28,.73,3.25,.7,1.23,1.82,2.26,3.33,3.06,.09,.05,.53,.27,.89,.35,0,0,0,0,0,0,.02,0,.03,0,.05,0,.03,0,.07,.01,.1,.01v-1.77c.5,0,1.28,.01,1.49-.06,.2-.07,.33-.22,.36-.43,.04-.24-.06-.51-.23-.64-.03-.02-.06-.02-.07,0,0,0,0,.02,0,.04,.02,.03,.05,.09,.05,.2,0,.1-.04,.19-.11,.26-.19,.18-.59,.16-.59,.16h-.46s-.44,0-.44,0c0,0,0,0,.01,0h-.02c.26-.06,.44-.25,.52-.39,.2-.36,.03-.6-.02-.66,0-.01-.01-.02-.01-.02h0s0,0,0,0c.03,0,.06,0,.09,0-.03,0-.06,0-.08,0,0,0,0,0,0,0,.12,0,.22-.01,.32-.03-.07,.02-.15,.02-.23,.03,.95-.05,1.15-.91,1.26-1.38l.02-.08c.03-.14,.12-.38,.33-.45,.13-.04,.22-.09,.29-.13l.08-.04s.03,0,.03,0c.12,0,.12,.1,.12,.17,0,.03,0,.05,0,.06,0,0,.01,0,.03,0,.1-.06,.16-.25,.17-.36,0,0,0-.02,0-.02h0s0,0,0,0c.13,.05,.14,.12,.15,.17,0,.01,0,.02,0,.02,0,0,.02,0,.03-.02,.09-.08,.12-.25,.12-.35h0c.16,0,.18,.09,.18,.14,0,0,0,.02,0,.02,0,0,0,0,.03-.02,.08-.09,.08-.27,.08-.36,0,0,0,0,0-.01h0c.1,0,.13,.08,.14,.13,0,.02,0,.03,.02,.03,0,0,0,0,.02-.02,.09-.12,.09-.3,.07-.37,0,0,0-.01,0-.01h0c.11,0,.13,.07,.14,.11,0,.01,0,.02,.01,.03,0,0,.01,0,.03-.02,.08-.1,.07-.28,.05-.38,.14-.17,.23-.3,.25-.41,.02-.08,.03-.09,.04-.09,.01,0,.02,.04,.02,.07-.02,.25-.07,.57-.15,.9,0,0,0,0,0,0s0,0,0,0c0,.04-.02,.09-.03,.14,0,0,0,0,0,0,0,0,0,0,0,0-.05-.04-.17-.06-.19-.03-.01,.01,0,.03,.02,.05,.05,.05,.08,.15,.08,.24,0,.01,0,.03,0,.04h0s0,0,0,0c-.06-.03-.15-.03-.17,0,0,.01,0,.03,.02,.04,.06,.06,.08,.19,.07,.29,0,.02,0,.03,0,.04,0,0,0,0,0,0,0,0,0,0,0,0-.04-.04-.17-.06-.19-.03-.01,.01,0,.03,.02,.05,.05,.05,.07,.2,.05,.3,0,.02,0,.03,0,.04,0,0,0,0,0,0,0,0,0,0,0,0-.05-.05-.14-.08-.17-.06,0,0,0,.03,.01,.05,.07,.1,.05,.28,.03,.35-.31,.68-.65,1.03-1.01,1.03-.3,0-.46-.26-.48-.45-.03-.27,.24-.46,.4-.52,.12-.05,.19,.02,.21,.05,.09,.11,.08,.19,.06,.23-.04,.06-.12,.09-.17,.08-.09-.02-.16,.02-.19,.09-.03,.07,0,.14,.04,.18,.09,.06,.2,.06,.32,.01,.15-.07,.28-.21,.29-.34,.03-.1-.02-.32-.1-.4-.19-.25-.42-.33-.63-.2-.37,.23-.58,.49-.6,.75-.02,.24,.11,.49,.39,.73,.33,.29,.86,.11,1.1-.14,0,0,.03-.02,.03-.02,.06,.02,.35,.11,.62-.15,.03-.03,.06-.07,.09-.11h-.02c-.08,0-.29,.03-.34-.04-.01-.02-.01-.04,0-.07,.15-.21,.29-.47,.41-.79,.06,0,.35-.04,.48-.36,.02-.05,.04-.1,.05-.17h-.02c-.07,.05-.27,.17-.33,.12-.02-.02-.03-.05-.01-.09,.07-.25,.14-.53,.2-.84,.09-.01,.36-.08,.44-.43,0-.04,.02-.09,.02-.14h-.02c-.07,.06-.25,.18-.33,.15-.02,0-.03-.03-.04-.05,.04-.27,.08-.56,.11-.88,.04-.01,.39-.13,.39-.58,0-.02,0-.03,0-.05,0,0-.01,0-.01,0-.06,.06-.22,.2-.3,.18-.02,0-.04-.02-.04-.04l.04-.73v-.11Zm-1.83,3s.02,0,.03,.01c0,0-.02,0-.03-.01h0Zm.31-.2s.01,0,.02,0c0,0,0,0-.02,0Z"/>
        <path class="cls-4" d="M12.54,10.82s0,.07,.03,.08c0,0,.04,0,.06-.04l.02-.06c.06-.14,.11-.26,.34-.29v-.26c-.23,.07-.42,.26-.46,.56m-3.28,1.54h-.03s.03,0,.03,0Zm0,0h.01s-.09-.59-.09-.59c0-.03,0-.05-.01-.06-.02-.01-.05,0-.11,0-.83,.27-.83,.59-.77,1.16,0,.04,.06,.11,.08,.11h0c.01-.06,.04-.13,.05-.15,.24-.43,.66-.47,.82-.47m2.58-2.31c-.1,.13-.15,.45-.15,.94,0,.78,.6,.89,1.25,.89,.03,0,.05,0,.08,0v-.53s-.05,0-.08,0c-.55,0-.76-.04-.76-.48,0-.52,.24-.73,.59-.89l.23-.1s0,0,0,0v-.56c-.06,.03-.12,.05-.18,.08-.36,.16-.73,.32-.99,.67m.42-4.13s-.07,.1-.05,.12c0,0,.02,0,.05-.02,.21-.18,.45-.22,.72-.14,.01,0,.02,0,.04,.01v-.27c-.48-.01-.7,.22-.75,.3m-2.5,5.18c0,.13,.11,.23,.24,.23s.24-.1,.24-.23c0-.12-.11-.22-.24-.22s-.24,.1-.24,.22m.8-3.64h0s0,0,0,0h0Zm-.19,3.64c0,.2-.17,.35-.37,.35s-.37-.16-.37-.35c0-.19,.17-.35,.37-.35s.37,.16,.37,.35m2.47-4.08c-.05-.05-.05-.29-.05-.29,0-.3-.25-.41-.47-.41-.23,0-.47,.12-.47,.33v.77s-.01,.08-.04,.1c-.02,.02-.06,.03-.09,.03-.07,0-.14-.04-.14-.12v-.42c0-.47-.53-.54-.84-.54-.45,0-.93,.2-.93,.57v.21s0,1.7,0,1.7c0,.1-.06,.18-.12,.21-.05,.03-.1,.03-.14,0-.03-.02-.07-.07-.06-.19,0-.01,0-.03-.02-.03-.02,0-.04,0-.06,.05-.05,.14-.05,.27,0,.39,.08,.15,.23,.23,.32,.25v.26h0c-.3,0-.66-.12-.66-.67v-2.63c0-.4-.17-.54-.31-.58-.26-.08-.59,.09-.74,.3-.15,.22-.1,.41-.01,.52,.1,.13,.27,.17,.42,.1,0,0,.03-.02,.03-.04,0-.01-.01-.02-.03-.02-.1-.02-.17-.08-.17-.18,0-.11,.1-.2,.21-.2s.2,.09,.2,.2v.38s0,2.26,0,2.26c-.31,0-.39,.25-.39,.39,0,.23,.16,.32,.17,.32,0,0,.02,0,.03,0,0,0,.01-.02,0-.05-.04-.08-.04-.14,0-.19,.05-.07,.15-.09,.22-.08,.05,0,.08,.03,.09,.05,.11,.32,.41,.48,.89,.49,0,0,.03,.01,.05,.03v.14c-.15,.07-.49,.28-.47,.91,.01,.48,.11,1.15,.2,1.22,0,0,.02,0,.02,0,.41-.11,1.01-.12,1.32,.06,.04,.03,.06,.06,.06,.08,0,.02-.01,.03-.03,.03-.02,0-.03,0-.04-.01-.13-.13-.51-.15-.62-.15-.42,0-1.29,.12-1.54,.66-.15,.31,.15,.93,.31,1.13,0,.01,.03,.01,.04,0,.01,0,.02-.01,.02-.03-.06-.31,.06-.61,.35-.86,.34-.3,.85-.43,1.18-.32,.04,.02,.07,.04,.08,.07,0,.01,0,.03-.01,.03,0,0-.02,0-.03,0-.42-.18-.85,.1-.86,.1,.18,1.1,1.52,1.07,2.49,1.05h.33s.37,.36,.32,.68c-.02,.12-.11,.22-.25,.3-.15,.07-.74,.04-.81-.01-.03-.03-.05-.1-.04-.2,.02-.15,.11-.34,.29-.43,.02,0,.03-.01,.03-.02,0-.02-.07-.04-.11-.04-.34,.04-.58,.21-.67,.47-.02,.06-.03,.08-.03,.14,0,.11-.03,.11-.17,.13h-.08c-.27,.04-.42,.17-.45,.39-.03,.17,.03,.35,.15,.48,.1,.11,.23,.17,.35,.17,0,0,.02,0,.02-.02,0,0,0-.03-.03-.04-.15-.09-.19-.23-.16-.33,.03-.11,.14-.18,.28-.18,0,0,.06,0,.06,.04v.04s.01,.12,.01,.12c.06,.33,.31,.62,.61,.7,.01,0,.03,0,.04-.02,0-.01,0-.03-.05-.05-.16-.12-.22-.36-.22-.54,0-.12,.02-.22,.06-.25,.07-.05,.32-.08,.44,.04,.12,.12,.18,.23,.16,.31-.01,.05-.06,.09-.14,.11,0,0-.02,.02-.01,.03,0,0,0,.03,.04,.02,.33-.05,.44-.3,.44-.51,0,0,0-.01,0-.02,0,0,.02-.01,.04-.01h.24s.08,0,.13,0v-2.75s-.92,0-.92,0c-.21,0-.29,.09-.3,.18,0,.11,.11,.25,.35,.28,.02,0,.05,.03,.05,.04,0,0,0,.01-.05,.02-.16,0-.48,0-.6-.19-.07-.12-.08-.27-.01-.39,.08-.15,.27-.23,.53-.23h.95s0-.37,0-.37c-.48,.07-.98,.03-1.29-.07-.59-.19-1.08-.73-.88-1.39,.03-.09,.09-.19,.2-.29,.13-.13,.26-.13,.3-.13,.02,0,.03,0,.04,0,0-.02-.03-.06-.03-.06-.2-.24-1.06-.32-1.23-.24,0,0,0,0-.01-.01-.07-.13-.09-.93,.21-1.14,.13-.09,.26-.12,.36-.09,.08,.03,.13,.1,.17,.2,.04,.13,0,.27-.08,.33-.06,.04-.14,.03-.22-.04-.02-.02-.03-.04-.04-.07v-.03s-.03-.04-.05-.04c0,0-.01,0-.01,.01-.01,.26,.09,.44,.28,.51,.33,.12,.68,0,.91-.32,.21-.29,.3-.79,.09-.96-.01-.01-.03-.01-.03,0-.02,0,0,.05,0,.06,0,.27-.18,.47-.35,.5-.15,.03-.27-.06-.34-.25,0,0,0-.04,.05-.04,.15,.01,.26-.04,.32-.16,.07-.14,0-.35-.13-.47,0,0-.03,0-.05,0,0,0,0,0,0,.01,.02,.18-.03,.29-.13,.31-.1,.02-.21-.05-.24-.14-.03-.1,.05-.19,.22-.25,0,0,.01,0,.01-.01,0-.01-.01-.03-.01-.03-.22-.07-.45,0-.53,.18-.05,.11,0,.32,.12,.38,0,0,0,0,0,.02-.02,.04-.14,.08-.25,.05-.08-.03-.17-.1-.17-.31v-1.26c0-.13,.14-.2,.28-.21s.3,.03,.32,.16c.03,.16,0,.2-.04,.22-.1,.04-.18-.03-.18-.03,0,0,0,0,0,0h0s0,0,0,0c-.02,.03-.01,.06,0,.09,.04,.07,.13,.12,.24,.14,.11,.02,.19,0,.24-.04,.04-.03,.06-.09,.06-.15v-.21c0-.09,.05-.14,.1-.14,.04,0,.09,.03,.1,.11v.27s0,.45,0,.45c0,.32,.25,.47,.48,.47s.47-.15,.47-.44v-.67c0-.12,.05-.2,.13-.21,.08,0,.19,.06,.21,.19,.03,.15,.02,.17-.02,.25l-.02,.04-.02,.03c-.04,.08-.06,.11-.04,.13,0,.01,.04,.01,.08,0,.16-.02,.3-.06,.44-.11v-.62s0,0,0,0c-.06,0-.12,.01-.17-.04"/>
        <path class="cls-1" d="M23.07,19.08c-.04-.49-.46-.84-2.43-.38,0-.23-.02-.42-.02-.52-.02-.38-.42-.59-1.24-.56-.4,.01-.62,.03-.77,.05-.55-.42-.71-1.1-.68-1.7l.79-.92c.21-.17-.5-.89-1.19-.68l-1.35,1.78s.04-.03,.06-.05c-.33,.42-.3,1.21,.17,1.99-1.11,.18-2.38,.36-3.27,.36-.05,0-.11,0-.16,0-.05,0-.11,0-.16,0-.9,0-2.16-.18-3.27-.36,.47-.78,.49-1.57,.17-1.99,.02,.02,.04,.03,.06,.05l-1.35-1.78c-.69-.21-1.4,.52-1.19,.68l.8,.92c.03,.6-.13,1.28-.68,1.7-.15-.02-.37-.04-.77-.05-.82-.03-1.22,.18-1.24,.56,0,.1-.01,.3-.02,.52-1.97-.46-2.39-.11-2.43,.38-.03,.4-.05,1.19,0,1.48,.04,.29,.48,.51,.95,.59,1.08,.18,3.13-.05,4.71-1.45,.99,.23,2.2,.52,4.27,.52,.05,0,.11,0,.16,0s.1,0,.16,0c2.07,0,3.28-.29,4.27-.52,1.58,1.4,3.63,1.63,4.71,1.45,.47-.08,.9-.3,.95-.59,.05-.29,.03-1.08,0-1.48"/>
        <path class="cls-4" d="M23.03,20.23s-.04-.04-.06-.05c-.31-.25-.94-.16-1.51-.07-.17,.03-.39,.09-.61,.15-.5,.14-1.12,.31-1.35,.15-.05-.04-.08-.09-.08-.17,0-.05,0-.07,.02-.08,.07-.07,.29-.05,.49-.04,.28,.02,.56,.04,.7-.11,.06-.07,.08-.24,.1-.4,.01-.14,.01-.39,0-.85,1.09-.25,1.79-.26,2.09-.05,.11,.08,.17,.2,.19,.37,.02,.29,.04,.79,.03,1.15m-.91,.84c-.88,.15-2.89,.04-4.53-1.33,.59-.14,1.11-.24,1.7-.24-.06,.13-.07,.31-.08,.4,0,.24,.04,.52,.17,.62,0,0,0,0,0,0,0,0,.01,.01,.02,.02,.28,.2,.89,.03,1.48-.13,.22-.06,.43-.12,.59-.15,.57-.1,1.14-.16,1.39,.03,.08,.06,.12,.15,.13,.26-.04,.22-.4,.43-.88,.51m-4.77-1.43c-.67,.16-1.45,.34-2.54,.44,0-.01,.01-.03,0-.04,0,0-.05-.47-.32-.7,.08-.1,.25-.31,.31-.3,.04,0,0,.19,.04,.22,.02,.02,.13,.02,.13-.01,.02-.2-.1-.72-.61-.67v-.09s.01-.03,.01-.03c.81-.08,1.69-.22,2.47-.36-.02,.01-.04,.03-.04,.05,0,.1,.11,.15,.2,.13,.02,0,.02,.05,0,.08-.03,.04-.15,.06-.14,.19,.03,.45,.34,.23,.35,.28,.03,.09-.19,.04-.19,.12,0,.12,.26,0,.27,.02,.04,.13-.31,.04-.3,.17,0,.13,.35,0,.35,.02,.03,.13-.2,.04-.19,.17,0,.05,.09,.04,.13,.03,.09-.03,.19-.06,.26-.12,.03,.03,.05,.08,.06,.12,.02,.06,0,.12,.02,.19,0,0,0,.01,0,.02-.1,.02-.2,.04-.3,.07m-3.06,.47v-.04c.02-.17,.04-.44,.09-.53,.07-.12,.17,.09,.17,.12,.04,.1,.12,.35,.12,.42-.13,.01-.25,.02-.39,.03m-.14,0s0,0,0,0c-.31,.02-.64,.03-1,.03-.05,0-.11,0-.16,0s-.1,0-.16,0c-.68,0-1.27-.03-1.79-.08-.02-.05-.04-.2,.01-.21,.08,0,.18,.09,.22,.03,.1-.15-.1-.26-.22-.35,.03-.04,.08-.1,.09-.09,.21,.13,.57,.17,.61-.12,.03-.27,.2-.57,.05-.85,0,0,0-.01,0-.02,.37,.03,.72,.05,1.02,.05,.05,0,.11,0,.16,0s.11,0,.16,0c.31,0,.65-.02,1.02-.05v.02s.06,.14-.08,.15c-.31,.03-.41,.78-.24,.78,.11,0,.06-.12,.08-.18,.01-.03,.25,.06,.35,.13-.08,.15-.11,.32-.13,.5,0,.06,0,.22,0,.24m-3.14-1.01c.06-.02,.1,.11,.12,.19,.01,.04-.04,.14-.08,.13-.15-.04-.2-.26-.04-.32m-.18,.94c-.92-.1-1.61-.26-2.21-.4-.32-.08-.62-.14-.92-.2,0-.36,.09-.75,.03-1.11,0,0-.08,0-.13,0,.02,.35-.1,.73-.08,1.08-.49-.08-.99-.1-1.6-.01-.22,.03-.4,.06-.54,.16,0-.04,0-.1,0-.18,0-.21,0-.57,.04-1.15v-.04c.02-.43,.64-.5,1.16-.49,.71,.02,.83,.05,1.05,.11,.12,.03,.27,.07,.54,.12,.02,0,.03,.02,.04,.02,.13,.05,.23,.3,.24,.47,0,.35-.17,.71-.02,1.06,0,.01,.06,0,.09,0-.08-.45,.25-.93,0-1.35-.02-.03,0-.12,.02-.14,.72,.12,1.59,.28,2.43,.38-.05,.05-.14,.18-.17,.24-.06,.19,.1,.38-.04,.57-.06,.08,.07,.22,.05,.29-.04,.14-.3,.26-.18,.4,.09,.11,.14-.19,.2-.16,.1,.05,.03,.26-.02,.32m-6.98,1.03c-.48-.08-.84-.29-.88-.51,0-.11,.05-.2,.13-.26,.25-.2,.81-.13,1.39-.03,.17,.03,.37,.09,.59,.15,.59,.16,1.19,.33,1.48,.13,0,0,.01-.01,.02-.02,0,0,0,0,0,0,.14-.1,.18-.38,.17-.62,0-.09-.02-.27-.07-.4,.59,0,1.11,.11,1.7,.24-1.64,1.37-3.65,1.48-4.53,1.33m1.57-1.32c.11-.13,.26-.16,.54-.19,.19-.03,.37-.04,.54-.05,.05,.04,.09,.19,.1,.4,0,.04,0,.08,0,.11-.13-.08-.34-.07-.57-.05-.23,.02-.49,.04-.57-.06-.03-.03-.04-.09-.03-.16m-2.45-.66c.01-.17,.07-.29,.19-.37,.3-.21,1-.2,2.09,.05-.02,.46-.02,.71,0,.85,0,.16,.03,.34,.1,.4,.14,.15,.43,.13,.7,.11,.2-.01,.42-.03,.49,.04,.01,.01,.02,.03,.02,.08,0,.08-.03,.13-.08,.17-.22,.16-.85-.01-1.35-.15-.22-.06-.44-.12-.61-.15-.57-.1-1.2-.18-1.51,.07-.02,.01-.04,.04-.06,.05-.01-.36,0-.86,.03-1.15m5.03-2.22c.07-.22,.11-.46,.11-.68l.35,.4s.04,.03,.07,.03c.02,0,.05-.02,.06-.04,.21-.31,.44-.49,.66-.52,.14-.02,.27,.01,.4,.1,.07,.08,.12,.19,.15,.31,.03,.11,.05,.23,.05,.36,0,.34-.11,.76-.35,1.18-.42-.07-.81-.14-1.16-.2l-.14-.02c-.27-.05-.42-.08-.53-.12-.05-.01-.09-.02-.14-.04,.25-.23,.39-.51,.47-.76m-.7-1.87s0,0-.01-.01c0,0,0,0,0-.02,0-.02,0-.04,.02-.08,.12-.22,.6-.58,1.08-.45,.03,.04,.82,1.08,1.12,1.47-.09-.02-.18-.03-.27-.02-.25,.04-.49,.22-.71,.51-.11-.13-1.22-1.41-1.22-1.41m3.75,3.57s.07,.06,.09,.1c.05,.1-.04,.14-.09,.2-.04-.06-.1-.13-.09-.2,0-.04,.05-.07,.09-.1m.14-.16c.18,.02,.36,.04,.54,.06-.12,.13,.04,.41-.15,.51-.03-.08-.09-.06-.14-.05-.07,.02-.06,.11-.04,.14,.07,.08,.28,.05,.22,.21-.04,.12-.12,.22-.22,.14-.21-.17-.21-.45-.13-.71,0-.02,0-.14-.06-.2-.02-.02-.03-.08-.01-.1m3.05,.48s.09,.01,.11-.01c.04-.04-.02-.16,.04-.16,.19-.01,.27,.09,.32,.15,.01,.02-.27,.25-.35,.38-.1-.07-.26-.1-.38-.14,0,0-.02-.08,.04-.15,.08,.08,.16,.17,.29,.17,.13,0,.3-.25,.24-.3-.09-.07-.16,.25-.33,.14-.06-.04-.16-.17-.05-.18,.04,0,.02,.08,.06,.1m2.85-.23s.09-.02,.11,0c0,.02,.02,.04,0,.05-.01,.02-.07,.03-.09,.03,0,0-.09-.04-.02-.09m-.09-.51s0-.07-.03-.07c.04,0,.08-.01,.12-.02,0,.03,0,.07,0,.09-.02,.02-.06,.02-.08,0m.08,.31h.02s.05-.05,.07-.02c.02,.03,.02,.07,0,.09-.03,.03-.09,.01-.11-.02-.01-.02,0-.04,.02-.05m-.95-1.64c0-.13,.02-.26,.05-.36,.03-.12,.09-.22,.15-.31,.13-.09,.27-.12,.4-.1,.23,.03,.46,.21,.66,.52,.01,.02,.04,.03,.06,.04,.03,0,.05,0,.07-.03l.35-.4c0,.23,.04,.46,.11,.68,.08,.25,.23,.53,.47,.76-.04,.01-.09,.02-.14,.04-.12,.03-.26,.07-.53,.12l-.14,.02c-.16,.03-.33,.06-.5,.09-.03,0-.06,0-.11,.02-.18,.03-.37,.06-.56,.09-.24-.42-.35-.84-.35-1.18m1.47-2.38c.48-.13,.96,.23,1.08,.45,.01,.03,.02,.06,.02,.08,0,.01,0,.02,0,.02,0,0,0,0-.01,.01,0,0-1.1,1.27-1.22,1.41-.22-.3-.46-.48-.71-.51-.09-.01-.18,0-.27,.02,.3-.39,1.08-1.43,1.12-1.47m-.36,3.62s0-.01,0-.03c.04,0,.07-.01,.11-.02,0,.02,0,.03-.02,.04-.03,.02-.07,0-.09,0m.21,.73s.18,.01,.19-.1c0-.02,.03,.02,.08,.04,.05,.02,.2-.05,.29-.04,0,0,.13,.68,.11,.78l-.28,.05c0-.34-.17-.68-.25-.69-.08,0-.16,.03-.14-.04m-.11-.32s-.01-.07,0-.07c0,0,.06-.03,.08-.02,.02,.01,.03,.04,.02,.06-.02,.04-.08,.06-.11,.03m.12,.12s.06,.01,.06,.05c0,.04-.06,.05-.07,.05-.02,0-.06,0-.06-.01-.02-.06,.02-.1,.08-.09m3.08,1.32c-.09,.1-.35,.08-.58,.06-.23-.02-.44-.03-.57,.05,0-.04,0-.07,0-.11,0-.21,.05-.36,.1-.4,.17,0,.35,.02,.54,.05,.28,.04,.43,.07,.54,.19,0,.07,0,.13-.03,.16m-1.13-2.21c.52-.02,1.14,.05,1.16,.49v.04c.03,.59,.04,.94,.04,1.15,0,.08,0,.14,0,.18-.14-.1-.32-.13-.54-.16-.68-.1-1.23-.05-1.8,.04v-.05s-.12-.71-.1-.74c.05-.07,.28,0,.27-.14,0-.12-.2-.07-.29-.08-.04,0-.03,0-.04-.04-.01-.05-.06-.31-.11-.35-.04-.04-.1,0-.11,.05-.02,.08,.1,.39,.05,.39-.13,0-.26,.12-.27,.09-.02-.06-.03-.16-.07-.22-.06-.08-.27-.03-.28-.07,0-.09,.06-.08,.1-.11,.03-.01,.05-.03,.06-.06,0-.04,0-.09-.01-.13,.07-.01,.14-.02,.21-.04l.14-.02c.28-.05,.43-.09,.55-.12,.22-.06,.34-.09,1.05-.11m3.77,1.38c-.02-.21-.1-.37-.25-.48-.34-.25-1.04-.25-2.18,.01,0-.12,0-.24-.02-.38v-.04c-.01-.31-.25-.67-1.32-.64-.37,.01-.59,.03-.74,.05-.28-.23-.44-.51-.53-.77-.09-.26-.12-.55-.11-.82l.77-.89s.1-.12,.02-.28c-.14-.28-.71-.7-1.28-.53-.02,0-.03,.01-.04,.03l-1.35,1.78s-.02,.04-.01,.07c-.04,.08-.08,.16-.11,.25-.04,.13-.06,.27-.06,.42,0,.38,.12,.79,.34,1.19-1.08,.18-2.29,.34-3.15,.34-.05,0-.11,0-.16,0s-.11,0-.16,0c-.87,0-2.07-.17-3.15-.34,.22-.4,.34-.81,.34-1.19,0-.15-.02-.29-.06-.42-.03-.09-.06-.17-.11-.25,0-.02,0-.05-.01-.07l-1.35-1.78s-.03-.02-.04-.03c-.58-.17-1.15,.25-1.29,.53-.08,.16-.02,.25,.02,.28l.77,.89c0,.27-.02,.55-.11,.82-.08,.26-.24,.55-.53,.77-.15-.02-.37-.03-.74-.05-1.07-.03-1.31,.33-1.32,.64v.04c0,.14-.01,.27-.02,.38-1.15-.26-1.84-.26-2.18-.01-.15,.11-.23,.27-.25,.48-.03,.4-.05,1.2,0,1.5,.06,.36,.58,.58,1.01,.65,.92,.16,3.05,.04,4.75-1.44,0,0,.01,0,.02,0,.98,.23,2.2,.51,4.24,.51,.05,0,.11,0,.16,0s.1,0,.16,0c2.04,0,3.26-.28,4.24-.51,0,0,.01,0,.02,0,1.7,1.48,3.82,1.6,4.75,1.44,.43-.07,.96-.29,1.01-.65,.05-.3,.03-1.1,0-1.5m-15.07-.9s.01-.07,0-.08c-.23-.2-.5-.09-.76-.09-.07,0-.04,.08-.05,.13,.03,0,.06,0,.1,0,.25-.03,.47,.09,.71,.04m-.19,.2c.03,.14,0,.81,.1,1.01,.02,.04,.08,0,.09-.04,.04-.33,0-.63-.06-.96,0,0-.08,0-.13,0m-.56,0c-.04,.09-.15,.69-.16,.82,.03,0,.08,0,.08,0,.12-.28,.18-.56,.2-.86-.05,0-.1-.01-.13,.04"/>
      </g>
      <g>
        <path class="cls-3" d="M0,2.51l.02-.5H.16l.1,.48c.13,.07,.25,.09,.41,.09,.35,0,.57-.16,.57-.47,0-.24-.11-.36-.45-.5l-.14-.06C.26,1.39,.05,1.18,.05,.83c0-.42,.34-.64,.79-.64,.25,0,.44,.07,.61,.18l-.02,.48h-.15l-.1-.46c-.1-.05-.19-.08-.31-.08-.3,0-.52,.15-.52,.43,0,.24,.15,.38,.4,.48l.15,.06c.49,.21,.66,.4,.66,.74,0,.42-.33,.68-.86,.68-.27,0-.54-.08-.7-.19Z"/>
        <path class="cls-3" d="M1.86,1.8c0-.56,.39-.91,.83-.91s.69,.3,.69,.69c0,.08,0,.14-.02,.2h-1.17c0,.51,.27,.74,.62,.74,.23,0,.39-.08,.52-.24l.06,.04c-.14,.24-.37,.37-.67,.37-.5,0-.86-.31-.86-.9Zm1.06-.12c.12,0,.16-.06,.16-.21,0-.28-.15-.47-.4-.47s-.46,.24-.48,.68h.72Z"/>
        <path class="cls-3" d="M3.68,1.8c0-.56,.39-.91,.83-.91s.69,.3,.69,.69c0,.08,0,.14-.02,.2h-1.17c0,.51,.26,.74,.62,.74,.23,0,.39-.08,.52-.24l.06,.04c-.14,.24-.37,.37-.67,.37-.5,0-.85-.31-.85-.9Zm1.06-.12c.12,0,.16-.06,.16-.21,0-.28-.15-.47-.4-.47s-.46,.24-.48,.68h.72Z"/>
        <path class="cls-3" d="M6.74,2.45c-.14,.17-.32,.25-.52,.25-.42,0-.73-.35-.73-.88s.34-.92,.77-.92c.17,0,.34,.07,.48,.24V.21s-.29-.02-.29-.02V.11l.56-.11,.05,.03V.53s0,2.01,0,2.01l.29,.02v.09l-.59,.03v-.23Zm-.02-1.22c-.13-.12-.24-.17-.38-.17-.29,0-.53,.21-.53,.75,0,.5,.22,.72,.51,.72,.15,0,.27-.05,.4-.18V1.23Z"/>
        <path class="cls-3" d="M9.97,.37h-.86c0,.32,0,.65,0,1.01h.56s.04-.34,.04-.34h.12v.8h-.12l-.04-.35h-.56c0,.38,0,.7,0,1.03l.37,.03v.1h-1.05v-.1l.33-.03c0-.32,0-.65,0-.98v-.17c0-.33,0-.66,0-.99l-.33-.03v-.1h1.78l.02,.6h-.15l-.1-.48Z"/>
        <path class="cls-3" d="M11.75,2.35c-.16,.21-.37,.35-.63,.35-.31,0-.49-.17-.49-.66v-.94s-.25-.04-.25-.04v-.08l.55-.06,.04,.04-.02,.44v.65c0,.33,.12,.45,.32,.45,.17,0,.34-.1,.48-.26V1.1s-.25-.03-.25-.03v-.08l.55-.07,.03,.04v.44s-.01,1.14-.01,1.14l.24,.02v.09l-.54,.03v-.33Z"/>
        <path class="cls-3" d="M13.69,2.65v-.09l.26-.03v-.63s0-.4,0-.4c0-.31-.1-.41-.29-.41-.13,0-.31,.07-.51,.26v.55s0,.63,0,.63l.24,.03v.09h-.83v-.09l.26-.03v-.63s0-.21,0-.21c0-.22,0-.38,0-.54l-.28-.02v-.08l.54-.14,.04,.03,.02,.31c.22-.25,.43-.35,.65-.35,.29,0,.47,.18,.47,.62v.39c0,.18,0,.46,0,.63l.24,.03v.09h-.83Z"/>
        <path class="cls-3" d="M16.02,2.45c-.14,.17-.32,.25-.52,.25-.42,0-.73-.35-.73-.88,0-.57,.34-.92,.77-.92,.17,0,.34,.07,.48,.24V.21s-.29-.02-.29-.02V.11L16.3,0l.05,.03V.53s0,2.01,0,2.01l.29,.02v.09l-.59,.03v-.23Zm-.02-1.22c-.13-.12-.24-.17-.38-.17-.29,0-.53,.21-.53,.75,0,.5,.22,.72,.51,.72,.15,0,.27-.05,.4-.18V1.23Z"/>
        <path class="cls-3" d="M16.86,1.8c0-.56,.39-.91,.83-.91s.69,.3,.69,.69c0,.08,0,.14-.02,.2h-1.17c0,.51,.27,.74,.62,.74,.23,0,.39-.08,.52-.24l.06,.04c-.14,.24-.37,.37-.67,.37-.5,0-.86-.31-.86-.9Zm1.06-.12c.12,0,.16-.06,.16-.21,0-.28-.15-.47-.4-.47s-.46,.24-.48,.68h.72Z"/>
        <path class="cls-3" d="M19.92,2.45c-.14,.17-.32,.25-.52,.25-.42,0-.73-.35-.73-.88,0-.57,.34-.92,.77-.92,.17,0,.34,.07,.48,.24V.21s-.29-.02-.29-.02V.11L20.2,0l.05,.03V.53s0,2.01,0,2.01l.29,.02v.09l-.59,.03v-.23Zm-.02-1.22c-.13-.12-.24-.17-.38-.17-.29,0-.53,.21-.53,.75,0,.5,.22,.72,.51,.72,.15,0,.27-.05,.4-.18V1.23Z"/>
        <path class="cls-3" d="M22.16,2.44l-.04,.25-.54-.04v-.09l.26-.02c0-.19,0-.46,0-.64V.21s-.28-.02-.28-.02V.11L22.12,0l.05,.03V.54s0,.61,0,.61c.17-.18,.36-.26,.56-.26,.4,0,.69,.34,.69,.89,0,.53-.29,.92-.73,.92-.19,0-.37-.08-.53-.26Zm0-.09c.14,.13,.26,.18,.41,.18,.27,0,.5-.19,.5-.75,0-.49-.21-.72-.49-.72-.13,0-.26,.04-.42,.18v1.1Z"/>
        <path class="cls-3" d="M24.7,.94h.67v.09l-.22,.03-.65,1.74c-.2,.53-.42,.74-.68,.74-.15,0-.3-.07-.31-.19,.02-.1,.11-.15,.21-.15s.17,.05,.25,.13l.04,.04c.15-.1,.28-.29,.38-.55l.02-.06-.69-1.71-.21-.02v-.09h.85v.09l-.29,.03,.49,1.33,.24-.66,.23-.67-.32-.03v-.09Z"/>
        <path class="cls-3" d="M25.69,1.19c0-.12,.1-.22,.22-.22s.22,.1,.22,.22c0,.12-.1,.22-.22,.22s-.22-.1-.22-.22Zm0,1.29c0-.12,.1-.22,.22-.22s.22,.1,.22,.22-.1,.22-.22,.22-.22-.1-.22-.22Z"/>
      </g>
    </g>
  </g>
</svg>