<?xml version="1.0" encoding="UTF-8"?>
<svg id="Layer_2" data-name="Layer 2" xmlns="http://www.w3.org/2000/svg" xmlns:xlink="http://www.w3.org/1999/xlink" viewBox="0 0 400 60">
  <defs>
    <style>
      .cls-1 {
        fill: none;
      }

      .cls-2 {
        fill: url(#linear-gradient);
      }

      .cls-3 {
        clip-path: url(#clippath);
      }

      .cls-4 {
        fill: #f9ae1b;
      }

      .cls-5 {
        fill: #fff;
      }

      .cls-6 {
        fill: #f1deae;
      }

      .cls-7 {
        fill: #e5a823;
      }

      .cls-8 {
        fill: #231f20;
      }

      .cls-9 {
        fill: #6e1e6f;
      }

      .cls-10 {
        fill: url(#linear-gradient-2);
      }
    </style>
    <clipPath id="clippath">
      <polyline class="cls-1" points="184.18 60 184.18 0 0 0 0 60"/>
    </clipPath>
    <linearGradient id="linear-gradient" x1="49.84" y1="-313.22" x2="234.97" y2="-313.22" gradientTransform="translate(-49.32 -283.3) scale(1 -1)" gradientUnits="userSpaceOnUse">
      <stop offset=".02" stop-color="#6d266f"/>
      <stop offset=".05" stop-color="#813962"/>
      <stop offset=".12" stop-color="#a1594e"/>
      <stop offset=".19" stop-color="#bd743e"/>
      <stop offset=".26" stop-color="#d48930"/>
      <stop offset=".36" stop-color="#e59a25"/>
      <stop offset=".47" stop-color="#f2a61e"/>
      <stop offset=".62" stop-color="#f9ad1a"/>
      <stop offset="1" stop-color="#fbaf19"/>
    </linearGradient>
    <linearGradient id="linear-gradient-2" x1="6.5" y1="-4.5" x2="143.43" y2="53.75" gradientUnits="userSpaceOnUse">
      <stop offset="0" stop-color="#6d266f"/>
      <stop offset=".36" stop-color="#6d266f"/>
      <stop offset=".56" stop-color="#7e226e"/>
      <stop offset=".8" stop-color="#8d1f6d"/>
      <stop offset="1" stop-color="#931f6d"/>
    </linearGradient>
  </defs>
  <g id="Layer_1-2" data-name="Layer 1">
    <rect class="cls-5" width="400" height="60"/>
    <g class="cls-3">
      <g>
        <path class="cls-2" d="M0,60V0S185.4-.4,184.18,.09c-39.59,16.07-41.19,59.1-97.41,59.1,0,0-23.7,.81-30.71,.81H0"/>
        <path class="cls-10" d="M73.5,56.74l18.32-.7c11.2-.26,33.03-4.37,52.43-31.77,3.29-4.65,10.15-14.99,22.38-24.46C169.34-2.28,.03-.35,.03-.35V56.65l73.48,.09Z"/>
      </g>
    </g>
    <g id="CUHK_Logo" data-name="CUHK Logo">
      <g>
        <path class="cls-9" d="M203.87,47.86c.43,0,2.41-.71,3.18-1.11,4.15-2.19,7.77-5.16,10.14-9.27,1.89-3.3,2.01-7.36,2.32-11.06,.4-4.78,.36-9.56,.29-14.35,0-.35-6.86-1.1-7.57-1.17-2.78-.26-6.5-.43-8.36-.43-1.86,0-5.59,.18-8.37,.43-.7,.07-7.56,.82-7.56,1.17-.08,4.79-.11,9.57,.29,14.35,.31,3.7,.43,7.76,2.33,11.06,2.36,4.1,5.99,7.07,10.13,9.27,.78,.41,2.76,1.11,3.19,1.11"/>
        <path class="cls-7" d="M214.1,29.61h0s.04,0,.06,.01c-.02,0-.04,0-.06-.01m1.72,.29s.03,.02,.05,.04h0s-.03-.03-.05-.04m-.29,.9s.04,.02,.05,.03h0s-.03-.02-.05-.03m-.64,2.14s.03,.03,.05,.05h0s-.03-.04-.05-.05m.05-4.02s-.07-.02-.12-.03h0s.08,.02,.12,.03m-10.66,11.49c-.13,.06-.27,.1-.41,.13h.05c.13-.03,.25-.08,.36-.13m7.92-21.46s-.05,.03-.12,.08c.06-.03,.1-.06,.12-.07h0m1.53-5.21h0s-.02,0-.05,0c.02,0,.04,0,.05,0m-.58,2.37s-.04,.02-.11,.06c.06-.03,.09-.05,.11-.05,0,0,0,0,0,0m2.12,15.76s.03,.02,.05,.04h0s-.03-.04-.05-.04m-.12-9.56s.08-.07,.13-.09c-.05,.02-.09,.05-.14,.09h0Zm-2.89,3.58s.04,0,.07-.01c-.02,0-.04,0-.07,0h0Zm4.45-6.48l-.03,.4c-.37,5.69-2.14,7.74-3.82,9l-.06,.05c-.53,.39-1.13,.84-2.23,1.21h-.03c-.21,.08-.84,.28-1.01,.57-.16,.28-.21,.3-.24,.29-.07-.04,.07-.42,.11-.5,.12-.23,.33-.36,.72-.55,.76-.35,.86-.8,.85-1.04,0-.34-.24-.66-.56-.78-.24-.1-.48-.04-.63,.13,.07,.02,.24,.1,.27,.38,.04,.43-.19,.6-.39,.63-.24,.03-.51-.14-.57-.47-.08-.6,.23-.99,.43-1.12,.25-.17,.4-.22,.58-.28,0,0,.31-.12,.32-.12,.5-.09,.85,.19,1.04,.34,.07,.06,.13,.1,.15,.09l.03-.02c.07-.15-.03-.73-.15-1.05v-.03h.03c.46-.07,.7,.24,.84,.43,.05,.06,.09,.12,.11,.11,.01,0,.02-.01,.03-.03,.06-.18-.1-.82-.24-1.13,0,0,0-.01-.01-.02h0s0,0,0-.01c.47-.14,.76,.12,.91,.26,.06,.05,.11,.09,.13,.08l.02-.03c.05-.17-.17-.77-.34-1.07,0,0,.09-.09,.09-.1,.45-.17,.74,0,.91,.11,.07,.04,.12,.07,.14,.06l.02-.04c.04-.17-.18-.71-.36-.97,0,0,.08-.11,.09-.11,.36-.13,.64-.03,.8,.02,.07,.02,.13,.04,.14,.03,.01,0,.02-.02,.02-.04,.02-.16-.19-.65-.35-.83,0,0,.07-.11,.08-.11,.33-.12,.59-.03,.74,.02l.14,.03s.02-.03,.02-.07c0-.2-.21-.67-.33-.79,0,0,0,0,0,0h0c.33-.28,.63-.26,.79-.25h.12s.01-.03,0-.05c0-.13-.24-.47-.41-.6,.39-.73,.66-1.4,.82-2.01,.2-.77,.23-.77,.26-.76,.04,0,.04,.16,0,.76m-9.05,13.2h0c-.52,.87-1.18,1.4-2.83,1.4h-.99v-.91h.89c1.35,0,2.28-.18,2.68-.53,.18-.16,.24-.15,.26-.14,.05,.04,0,.14,0,.17m-3.82-6.57c.1,0,.21-.01,.32-.01,.8,0,1.15,.38,1.15,1.22,0,.61-.18,1.22-1.48,1.28v-2.5Zm0-13.45c.82,.29,1.26,.96,1.19,1.81-.07,.82-.6,1.56-1.19,1.64v-3.45Zm13.84,9.51s.01-.24,.02-.25c.18-.06,.95-.37,1.1-1.35,.02-.15,.03-.32,.01-.5l-.04,.04c-.15,.14-.62,.59-.88,.53-.07-.01-.12-.06-.14-.14,0-.98-.08-1.76-.18-2.77,.28-.15,.86-.59,.86-1.52,0-.12-.01-.25-.04-.4l-.05,.06c-.15,.18-.56,.64-.79,.61-.06,0-.1-.04-.14-.1v-.14c-.21-2.08-.64-3.1-1.49-3.54,0,0-.05-.02-.05-.02,0,.01,.04,.07,.08,.14,.13,.19,.33,.49,.41,.86,.14,.62,.19,1.12,.19,1.52,0,.47-.07,.83-.14,1.11-.11,.21-.28,.33-.48,.38-.47,.12-1-.41-1.18-.82,0-.02-.01-.03-.03-.03-.04,0-.1,.12-.14,.19-.15,.56,.03,1.26,.41,1.52,.14,.1,.36,.18,.63,0,.14-.09,.24-.13,.31-.11,.04,.01,.07,.04,.08,.09-.18,.5-.38,1-.61,1.49-.13,.12-.27,.18-.43,.19-.53,.03-.97-.62-1.07-1.08,0-.02,0-.03-.02-.03-.04,0-.13,.1-.18,.17-.27,.55-.21,1.31,.13,1.66,.13,.13,.34,.25,.66,.11,.16-.07,.28-.09,.34-.06,.03,.01,.05,.04,.06,.09-.26,.48-.55,.97-.86,1.44-.12,.07-.24,.11-.38,.11-.56,0-.93-.64-.98-1.09,0-.02,0-.03-.01-.03-.04,0-.15,.09-.22,.17-.35,.52-.4,1.24-.11,1.61,.16,.21,.41,.26,.7,.15,.17-.06,.29-.08,.34-.04,.01,0,.02,.03,.02,.07-.3,.41-.62,.81-.96,1.2-.22,.15-.44,.21-.68,.17-.59-.09-.96-.94-.96-1.51,0-.03,0-.04-.02-.05-.05-.02-.18,.08-.25,.15-.45,.57-.57,1.46-.27,1.94,.11,.18,.33,.38,.73,.3,.21-.04,.34-.04,.38,.02,.02,.03,.01,.08-.02,.15l-.97,.9c-.24,.15-.61,.3-1,.16-.65-.23-.88-1.28-.76-1.93,0-.03,0-.05,0-.06-.05-.03-.23,.06-.33,.13-.63,.55-.96,1.54-.72,2.16,.09,.23,.29,.51,.77,.5,.26,0,.4,.03,.43,.11,.02,.07-.03,.15-.18,.27-.13,.07-.29,.17-.41,.33-.29,.35-.42,.64-.45,.99l-.03,.36c-.02,.28-.04,.57-.1,.85-.05,.26-.14,.49-.24,.69-.61,1.11-2.02,1.68-3.51,1.9v-2.07c1.81-.06,2.59-.85,2.59-2.61,0-1.5-.54-2.16-1.82-2.19-.26,0-.52,.03-.78,.12v-1.15c.91-.41,1.93-.88,3.01-1.15,2.46-.62,4.44-1.98,5.13-3.43,.09-.21,.16-.42,.21-.64-.13,.08-1.78,1.13-3,1.39l-.17,.03c-.17,.04-.34,.07-.43,0-.04-.03-.06-.08-.06-.16,0-.66,.36-1.19,1.03-1.47l.07-.03c1.49-.64,2.65-1.13,3.21-1.9,.14-.21,.25-.43,.3-.68-.13,.07-1.85,.98-2.96,1.14h-.06c-.14,.04-.36,.07-.46-.04-.06-.07-.07-.17-.04-.32,.13-.5,.34-.8,.74-1.03,.43-.25,.91-.46,1.36-.66,.77-.35,1.46-.65,1.8-1.06,.02-.02,.04-.04,.05-.07,0,0,0-.01,.01-.02,.06-.09,.11-.19,.13-.29l-1.62,.51-.32,.1c-.46,.14-.94,.29-1.1,.14-.06-.06-.07-.15-.02-.28,.08-.28,.15-.43,.28-.62,.61-.86,1.84-1.78,3.31-1.52,.24,.05,.37,.03,.37,0,0-.02-.04-.06-.23-.13-1.11-.41-2.15-.37-3.08,.11-1.71,.87-3.11,3.22-4.18,6.99-.61,2.15-1.93,2.92-3.3,3.54v-4.8c.5-.2,.93-.48,1.3-.85,1.04-1.03,1.41-2.33,.99-3.46-.34-.91-1.15-1.55-2.06-1.61-.08,0-.15,0-.22,0v-.7c-1.71,0-5.24,.16-7.99,.42-.99,.09-7.23,.81-7.24,1.11-.02,1.63-.04,3.24-.04,4.85,0,2.99,.07,5.97,.32,8.95l.09,1.16c.26,3.27,.51,6.64,2.14,9.47,2.05,3.58,5.31,6.58,9.7,8.91,.28,.14,1.53,.79,2.58,1.01,0,0,0,0,.01,0,.05,0,.09,.02,.14,.02,.1,.02,.2,.03,.29,.04v-5.14c1.46,.02,3.73,.04,4.34-.17,.58-.2,.95-.65,1.05-1.26,.11-.7-.17-1.49-.67-1.87-.07-.06-.17-.07-.2-.03-.02,.02,0,.05,.03,.11,.05,.09,.14,.26,.14,.59,0,.3-.11,.56-.32,.75-.57,.53-1.72,.46-1.73,.46h-1.33s-1.29-.01-1.29-.01c.01,0,.03,0,.04-.01h-.05c.75-.17,1.28-.72,1.51-1.13,.57-1.05,.09-1.74-.06-1.93-.03-.03-.04-.05-.04-.05h0s0,0,0,0c.09,0,.17,0,.26,0-.08,0-.16,0-.25,0,0,0,0,0,0,0,.34,0,.65-.04,.93-.1-.21,.05-.43,.07-.67,.07,2.77-.15,3.35-2.66,3.67-4.02l.06-.22c.1-.41,.36-1.12,.97-1.31,.39-.12,.64-.27,.83-.38l.22-.12s.07-.03,.08-.03c.35,0,.34,.3,.34,.5,0,.08,0,.15,.02,.17,.01,0,.04,0,.08-.02,.3-.18,.45-.74,.49-1.06,0-.02,0-.05,0-.07h0s0,0,0,0c.38,.14,.42,.36,.43,.48,0,.03,0,.06,.02,.06,.01,0,.05-.01,.1-.06,.28-.22,.34-.73,.35-1.03h0v-.02c.47,.03,.51,.29,.53,.42,0,.02,.01,.06,.02,.07,0,0,.02,0,.08-.06,.24-.26,.24-.8,.23-1.04,0,0,0-.02,0-.03h0c.3,.01,.37,.24,.41,.38,.01,.05,.03,.09,.05,.1,0,0,.03,0,.07-.07,.28-.36,.26-.88,.21-1.08,0-.01,0-.03-.01-.04h0c.31,0,.37,.21,.42,.33,.01,.04,.03,.07,.04,.07,.01,0,.03-.01,.08-.07,.22-.29,.2-.83,.14-1.12,.41-.48,.66-.89,.74-1.19,.05-.22,.09-.26,.12-.25,.04,0,.06,.13,.06,.21-.06,.73-.21,1.67-.43,2.63,0,0,0,0,0,.01s0,.01,0,.02c-.03,.13-.06,.26-.09,.41,0,0,0,0,0,0,0,0,0,.01,0,.02-.14-.13-.48-.17-.56-.09-.04,.04,0,.1,.05,.14,.15,.15,.23,.44,.24,.71,0,.04,0,.08,0,.12h0s0,0,0,0c-.17-.08-.44-.1-.5-.03-.03,.04,0,.09,.05,.13,.18,.19,.23,.57,.21,.85,0,.05,0,.09-.01,.13,0,0,0,0,0,0,0,0,0,0,0,.01-.13-.13-.48-.17-.56-.09-.04,.04,0,.1,.05,.14,.15,.16,.19,.59,.16,.88,0,.05,0,.09-.01,.13,0,0,0,0,0,0,0,0,0,0,0,.02-.15-.14-.42-.22-.48-.17-.02,.02-.01,.07,.04,.15,.2,.29,.14,.83,.07,1.03-.89,1.98-1.88,2.99-2.94,3.01-.87,.02-1.33-.76-1.39-1.31-.07-.8,.69-1.34,1.15-1.53,.34-.14,.55,.05,.62,.14,.27,.33,.24,.55,.16,.68-.1,.17-.34,.26-.49,.23-.25-.05-.46,.05-.55,.26-.08,.2-.03,.42,.13,.53,.26,.18,.59,.19,.94,.04,.43-.2,.81-.63,.85-.98,.07-.3-.05-.92-.29-1.17-.54-.74-1.23-.96-1.83-.59-1.07,.67-1.68,1.43-1.74,2.19-.06,.7,.32,1.42,1.13,2.13,.96,.85,2.51,.33,3.21-.42,0,0,.08-.06,.09-.06,.18,.07,1.03,.32,1.79-.43,.09-.09,.19-.2,.28-.33h-.07c-.22,.03-.83,.09-.98-.1-.04-.06-.04-.12,0-.21,.43-.6,.84-1.37,1.21-2.29,.18,0,1.02-.12,1.4-1.04,.06-.14,.1-.3,.14-.48l-.07,.04c-.21,.12-.78,.44-.96,.3-.06-.05-.07-.14-.04-.28,.21-.74,.41-1.56,.58-2.45,.26-.04,1.05-.25,1.29-1.27,.02-.13,.05-.26,.06-.41l-.06,.04c-.2,.13-.72,.49-.95,.39-.06-.02-.1-.08-.11-.16,.12-.79,.22-1.64,.31-2.55,.12-.04,1.15-.37,1.15-1.69,0-.05,0-.09,0-.14-.02,.01-.04,.03-.04,.03-.17,.16-.64,.58-.88,.52-.06-.01-.1-.06-.13-.13l.1-2.12,.02-.32Zm-5.36,8.74s.06,.02,.08,.03c-.03,0-.05-.03-.08-.04h0Zm.9-.57s.03,0,.05,0c-.02,0-.03,0-.05,0Z"/>
        <path class="cls-9" d="M202.54,26.95c-.02,.1,.02,.21,.09,.24,.03,.01,.11,.03,.18-.11l.07-.17c.16-.41,.31-.77,1-.85v-.76c-.66,.21-1.24,.75-1.34,1.64m-9.57,4.49h-.09s.09,0,.09,0Zm-.01,0h.04s-.26-1.73-.26-1.73c0-.09,0-.15-.04-.19-.05-.04-.14-.03-.31,.02-2.42,.79-2.43,1.71-2.23,3.39,.01,.11,.17,.31,.22,.31h.01v-.02c.04-.14,.13-.36,.17-.43,.71-1.25,1.91-1.37,2.39-1.36m7.52-6.72c-.29,.39-.44,1.31-.44,2.74,0,2.27,1.74,2.58,3.63,2.58,.07,0,.14,0,.22,0v-1.55c-.07,0-.14,0-.22,0-1.6,0-2.2-.12-2.2-1.4,0-1.52,.69-2.13,1.73-2.58l.67-.3s0,0,.02,0v-1.64c-.17,.07-.35,.15-.52,.22-1.04,.45-2.12,.92-2.89,1.94m1.21-12.03c-.11,.14-.2,.3-.15,.34,.02,.02,.07,0,.14-.06,.6-.52,1.3-.65,2.1-.4,.04,0,.07,.03,.1,.04v-.78c-1.4-.03-2.03,.64-2.2,.86m-7.29,15.08c0,.37,.31,.66,.69,.66s.69-.29,.69-.66c0-.36-.31-.65-.69-.65-.38,0-.69,.29-.69,.65m2.33-10.59h0s0,0,0,0h0Zm-.57,10.59c0,.57-.48,1.03-1.07,1.03s-1.08-.46-1.08-1.03c0-.56,.48-1.02,1.08-1.02s1.07,.46,1.07,1.02m7.2-11.88c-.15-.15-.14-.84-.14-.84,0-.89-.74-1.2-1.37-1.2-.67,0-1.37,.36-1.37,.95v2.25c0,.12-.03,.22-.11,.29-.07,.06-.16,.08-.27,.08-.21,0-.42-.13-.42-.34v-1.21c0-1.37-1.54-1.58-2.46-1.58-1.32,0-2.71,.59-2.71,1.67v.61s0,4.96,0,4.96c0,.29-.18,.51-.35,.6-.14,.08-.29,.09-.4,.02-.09-.06-.2-.2-.17-.54,0-.04-.01-.08-.05-.08-.05,0-.12,.02-.17,.16-.16,.41-.15,.79,.03,1.13,.22,.44,.68,.68,.92,.74v.77h-.01c-.87-.01-1.93-.35-1.93-1.94v-7.66c0-1.17-.49-1.57-.89-1.69-.75-.23-1.73,.28-2.14,.87-.43,.63-.3,1.2-.04,1.52,.3,.36,.8,.49,1.24,.3,.01,0,.09-.06,.08-.11,0-.04-.04-.06-.1-.07-.3-.05-.48-.25-.48-.54,0-.32,.28-.59,.62-.59s.59,.26,.59,.59v1.12s0,6.59,0,6.59c-.89-.01-1.14,.71-1.14,1.14,0,.67,.47,.93,.49,.94,.02,.01,.07,0,.1-.02,.02-.02,.04-.06,0-.14-.11-.22-.12-.42-.01-.56,.14-.19,.43-.26,.64-.23,.14,.02,.23,.07,.25,.15,.33,.93,1.18,1.4,2.61,1.44,.03,0,.08,.03,.14,.08v.42c-.44,.19-1.42,.83-1.37,2.65,.03,1.4,.31,3.35,.57,3.55,.02,.02,.05,.02,.07,.02,1.19-.33,2.94-.36,3.84,.18,.12,.07,.19,.16,.18,.24,0,.05-.03,.08-.07,.1-.05,.01-.09,0-.13-.04-.39-.39-1.49-.43-1.81-.44-1.23-.02-3.76,.36-4.5,1.93-.43,.91,.44,2.72,.9,3.3,.03,.04,.09,.04,.13,.02,.04-.01,.06-.04,.05-.07-.18-.9,.18-1.79,1.01-2.5,1-.86,2.48-1.26,3.42-.92,.13,.05,.21,.12,.22,.21,0,.04,0,.07-.03,.1-.02,.01-.06,.02-.09,0-1.23-.53-2.49,.28-2.5,.29,.53,3.2,4.42,3.12,7.26,3.06h.97s1.09,1.06,.94,1.97c-.06,.36-.31,.65-.74,.86-.44,.21-2.17,.1-2.35-.04-.1-.07-.14-.3-.1-.58,.06-.43,.32-1,.86-1.24,.06-.01,.08-.04,.08-.07-.01-.07-.2-.11-.32-.1-.99,.13-1.7,.63-1.95,1.37-.06,.16-.08,.25-.08,.42-.03,.31-.1,.32-.51,.36l-.22,.03c-.78,.1-1.23,.47-1.32,1.11-.07,.5,.08,1.01,.43,1.4,.29,.32,.66,.5,1.02,.48,.02,0,.06-.02,.07-.06,0-.03,0-.07-.09-.13-.44-.25-.56-.66-.47-.96,.09-.33,.4-.52,.81-.52,0,0,.18,0,.18,.13v.12s.03,.36,.03,.36c.16,.96,.9,1.8,1.79,2.05,.03,.01,.1-.01,.12-.06,.01-.04,0-.1-.15-.16-.47-.35-.64-1.04-.64-1.57,0-.35,.07-.64,.18-.73,.2-.15,.92-.25,1.28,.12,.36,.36,.52,.68,.45,.92-.04,.16-.19,.27-.41,.33-.03,0-.05,.06-.04,.09,0,.02,.02,.08,.11,.07,.95-.14,1.28-.88,1.27-1.48,0,0,0-.04,0-.07,.02-.02,.06-.04,.12-.04h.7c.12,0,.25,.01,.38,.01v-8.02s-2.67,0-2.67,0c-.62,0-.86,.28-.87,.53-.02,.33,.33,.73,1.02,.81,.05,0,.15,.07,.15,.12,0,0-.01,.04-.16,.05-.46,0-1.41,.02-1.76-.54-.21-.34-.22-.78-.03-1.13,.24-.44,.8-.68,1.56-.68h2.77s0-1.07,0-1.07c-1.39,.21-2.84,.09-3.75-.21-1.72-.56-3.15-2.13-2.57-4.05,.08-.27,.27-.54,.57-.84,.37-.38,.75-.39,.87-.39,.06,0,.08,0,.1-.03,.03-.06-.08-.18-.08-.18-.59-.71-3.08-.92-3.57-.71-.01,0-.03-.02-.04-.03-.2-.36-.28-2.71,.61-3.33,.37-.26,.76-.35,1.04-.25,.23,.08,.39,.28,.49,.59,.11,.37,0,.79-.25,.96-.18,.12-.41,.07-.64-.12-.07-.06-.09-.13-.12-.21l-.03-.07c-.02-.05-.07-.11-.11-.1-.01,0-.03,0-.04,.04-.03,.75,.26,1.29,.82,1.5,.95,.35,2-.02,2.65-.93,.61-.86,.86-2.29,.27-2.79-.04-.03-.07-.04-.1-.03-.05,.03-.03,.16-.02,.19,0,.79-.51,1.37-1.01,1.46-.43,.08-.8-.18-1-.72,0,0,.01-.12,.14-.11,.44,.04,.76-.12,.92-.46,.2-.42,.03-1.02-.39-1.38-.01,0-.1-.03-.14,0,0,0-.02,.02-.01,.04,.06,.52-.08,.86-.38,.92-.28,.05-.61-.15-.69-.42-.08-.29,.15-.55,.64-.72,.03,0,.03-.03,.04-.04,0-.04-.03-.09-.04-.09-.64-.21-1.31,.01-1.55,.51-.15,.33,0,.92,.35,1.09,0,0,.01,.02,0,.05-.07,.1-.4,.23-.71,.14-.22-.07-.5-.29-.5-.89v-3.67c0-.38,.42-.58,.82-.61s.87,.09,.93,.45c.08,.46,.02,.58-.13,.65-.28,.13-.53-.08-.53-.08,0,0,0,0,0,.01h0s0,0,0,.01c-.05,.09-.04,.18,0,.27,.1,.19,.37,.35,.69,.41,.31,.05,.55,.01,.7-.11,.12-.1,.18-.25,.18-.44v-.6c0-.27,.15-.41,.29-.42,.13,0,.27,.09,.29,.31v.79s0,1.3,0,1.3c0,.94,.73,1.37,1.41,1.37s1.37-.44,1.37-1.28v-1.94c0-.35,.15-.58,.39-.6,.24-.02,.55,.18,.63,.55,.08,.43,.05,.5-.07,.71l-.07,.13-.05,.1c-.11,.22-.16,.32-.13,.38,.03,.04,.1,.04,.24,.02,.47-.06,.89-.17,1.27-.32v-1.82s-.02,0-.03,0c-.17,.02-.34,.03-.49-.11"/>
        <path class="cls-6" d="M233.23,51.03c-.11-1.43-1.34-2.44-7.08-1.11-.02-.66-.05-1.24-.06-1.52-.05-1.1-1.22-1.71-3.61-1.63-1.17,.04-1.8,.08-2.24,.14-1.6-1.24-2.07-3.21-1.98-4.97l2.31-2.67c.62-.48-1.45-2.59-3.45-1.99l-3.93,5.18c.06-.05,.13-.09,.19-.14-.95,1.21-.89,3.51,.49,5.8-3.24,.54-6.92,1.06-9.54,1.06-.15,0-.31,0-.46,0-.16,0-.31,0-.46,0-2.62,0-6.3-.52-9.54-1.06,1.37-2.28,1.44-4.59,.49-5.8,.06,.05,.12,.09,.18,.14l-3.93-5.18c-2-.6-4.07,1.51-3.46,1.99l2.32,2.67c.09,1.76-.39,3.73-1.99,4.97-.44-.06-1.07-.11-2.24-.14-2.38-.07-3.56,.53-3.61,1.63-.01,.29-.04,.86-.07,1.52-5.75-1.33-6.96-.33-7.08,1.11-.09,1.18-.14,3.47,0,4.32,.13,.85,1.4,1.47,2.76,1.71,3.14,.54,9.12-.15,13.71-4.22,2.89,.67,6.42,1.53,12.44,1.53,.16,0,.31,0,.46,0s.3,0,.46,0c6.02,0,9.55-.86,12.44-1.53,4.59,4.07,10.57,4.76,13.72,4.22,1.36-.23,2.63-.86,2.76-1.71,.14-.85,.09-3.14,0-4.32"/>
        <path class="cls-9" d="M233.1,54.38c-.05-.06-.1-.12-.16-.16-.91-.72-2.75-.48-4.4-.19-.51,.09-1.13,.26-1.78,.43-1.46,.4-3.27,.89-3.92,.43-.15-.11-.23-.26-.24-.48-.01-.15,.03-.21,.06-.24,.2-.2,.86-.15,1.44-.11,.8,.06,1.63,.11,2.05-.33,.18-.19,.25-.7,.28-1.18,.03-.4,.03-1.13-.02-2.46,3.17-.72,5.21-.76,6.08-.14,.33,.24,.5,.58,.54,1.07,.07,.84,.11,2.29,.07,3.34m-2.64,2.44c-2.56,.44-8.42,.13-13.19-3.87,1.71-.4,3.23-.71,4.96-.71-.17,.39-.21,.9-.22,1.16-.02,.69,.1,1.52,.5,1.8,0,0,0,0,.02,0,.02,.01,.03,.03,.05,.05,.83,.58,2.6,.1,4.31-.37,.64-.17,1.25-.34,1.73-.43,1.67-.29,3.31-.48,4.04,.09,.22,.18,.35,.43,.37,.76-.13,.64-1.17,1.26-2.57,1.49m-13.9-4.18c-1.95,.46-4.23,.99-7.4,1.28,.03-.04,.04-.08,.02-.12,0,0-.16-1.37-.94-2.05,.25-.29,.71-.9,.9-.87,.11,.01,.02,.56,.12,.63,.07,.05,.38,.06,.39-.03,.06-.58-.29-2.1-1.78-1.94l.03-.27v-.07c2.35-.25,4.93-.65,7.2-1.04-.07,.03-.12,.07-.11,.15,0,.3,.33,.43,.58,.39,.07,0,.06,.16,0,.23-.1,.1-.43,.16-.41,.56,.08,1.32,.98,.68,1.03,.82,.1,.26-.55,.12-.55,.36,0,.34,.77-.02,.79,.05,.12,.38-.89,.13-.88,.49,0,.37,1.01-.02,1.03,.06,.09,.37-.57,.12-.56,.48,0,.15,.25,.13,.38,.1,.28-.08,.55-.17,.77-.36,.1,.1,.14,.23,.19,.35,.06,.17,.02,.35,.06,.56,0,.02,0,.04,0,.07-.29,.07-.58,.13-.88,.2m-8.92,1.38v-.1c.06-.5,.12-1.27,.27-1.54,.2-.34,.49,.27,.51,.35,.1,.29,.34,1.03,.35,1.21-.36,.03-.74,.06-1.13,.08m-.4,0s0,.02,0,.02c-.91,.05-1.88,.07-2.92,.07-.16,0-.31,0-.46,0s-.3,0-.46,0c-1.99,0-3.71-.1-5.21-.24-.05-.14-.13-.58,.04-.6,.22-.02,.52,.28,.64,.09,.29-.44-.29-.77-.65-1.01,.09-.1,.23-.29,.26-.27,.61,.38,1.67,.5,1.78-.34,.1-.78,.58-1.66,.16-2.46,0-.02,0-.03,0-.05,1.07,.1,2.09,.16,2.99,.16,.15,0,.31,0,.46,0s.31,0,.46,0c.89,0,1.91-.06,2.98-.16v.07c0,.1,.16,.4-.25,.44-.9,.08-1.19,2.26-.7,2.28,.33,.01,.17-.36,.24-.52,.03-.07,.74,.16,1.01,.38-.24,.44-.33,.94-.36,1.45,0,.18,0,.64,0,.69m-9.13-2.94c.16-.06,.3,.33,.36,.55,.04,.13-.12,.42-.23,.38-.43-.13-.59-.76-.13-.93m-.52,2.73c-2.67-.3-4.68-.76-6.42-1.17-.94-.22-1.81-.42-2.68-.57,0-1.05,.26-2.18,.09-3.23,0-.02-.23,0-.37,0,.06,1.01-.29,2.12-.23,3.15-1.44-.22-2.9-.29-4.66-.04-.64,.09-1.17,.17-1.58,.48,0-.13,0-.29,0-.53,0-.62,.03-1.65,.1-3.36v-.12c.06-1.26,1.87-1.47,3.37-1.42,2.07,.07,2.42,.16,3.06,.32,.35,.09,.78,.2,1.57,.34,.05,.02,.09,.05,.13,.07,.38,.14,.68,.89,.69,1.38,.02,1.02-.5,2.07-.06,3.07,.02,.04,.17,0,.26,0-.22-1.3,.74-2.7,.02-3.94-.05-.09-.03-.34,.07-.4,2.09,.36,4.64,.8,7.09,1.12-.14,.15-.42,.53-.49,.71-.19,.55,.29,1.1-.12,1.67-.18,.25,.2,.64,.15,.83-.1,.42-.86,.75-.54,1.15,.26,.32,.41-.55,.59-.45,.29,.14,.08,.77-.05,.93m-20.33,3c-1.4-.23-2.44-.85-2.57-1.49,.03-.33,.15-.57,.37-.76,.73-.57,2.37-.38,4.04-.09,.49,.08,1.09,.25,1.73,.43,1.71,.47,3.48,.95,4.31,.37,.02-.02,.04-.04,.06-.05,0,0,0,0,.01,0,.4-.28,.52-1.12,.5-1.8,0-.26-.05-.78-.21-1.16,1.72,0,3.24,.31,4.95,.71-4.77,4-10.63,4.31-13.19,3.87m4.56-3.85c.31-.37,.75-.45,1.56-.57,.56-.08,1.08-.13,1.58-.14,.14,.13,.28,.56,.29,1.17,0,.11,0,.22,0,.33-.38-.23-1-.19-1.67-.14-.66,.05-1.42,.11-1.67-.17-.09-.1-.12-.26-.09-.47m-7.13-1.93c.04-.49,.21-.83,.54-1.07,.86-.63,2.91-.58,6.08,.14-.05,1.34-.05,2.06-.02,2.46,.03,.48,.09,.99,.28,1.18,.42,.43,1.24,.39,2.05,.33,.58-.04,1.24-.09,1.43,.11,.03,.03,.07,.09,.06,.24-.01,.22-.09,.37-.24,.48-.65,.46-2.46-.04-3.92-.43-.65-.18-1.27-.35-1.78-.43-1.65-.29-3.49-.53-4.4,.19-.06,.04-.11,.1-.16,.16-.03-1.04,0-2.5,.07-3.34m14.67-6.48c.21-.65,.31-1.33,.33-2l1.01,1.17c.05,.06,.12,.08,.19,.08,.07,0,.14-.05,.17-.1,.6-.91,1.27-1.43,1.93-1.53,.4-.06,.79,.04,1.17,.3,.19,.24,.35,.55,.44,.89,.09,.31,.14,.67,.14,1.06,0,1-.31,2.2-1.02,3.43-1.21-.2-2.37-.41-3.39-.58l-.4-.07c-.79-.14-1.21-.25-1.55-.34-.14-.04-.27-.07-.41-.1,.71-.68,1.14-1.48,1.38-2.21m-2.05-5.44s-.02-.02-.03-.03c-.01,0-.02-.03-.02-.06,0-.05,.02-.13,.07-.22,.34-.65,1.74-1.69,3.14-1.31,.09,.12,2.38,3.14,3.26,4.28-.26-.07-.52-.09-.79-.05-.73,.11-1.43,.63-2.07,1.5-.33-.39-3.55-4.1-3.55-4.1m10.91,10.4c.09,.1,.21,.18,.27,.3,.14,.29-.13,.42-.27,.59-.13-.18-.3-.36-.25-.59,.02-.12,.16-.21,.25-.3m.4-.47c.53,.07,1.06,.12,1.57,.17-.36,.37,.11,1.19-.44,1.5-.08-.22-.26-.17-.42-.14-.21,.05-.18,.33-.11,.4,.21,.22,.82,.14,.65,.62-.12,.34-.35,.65-.65,.42-.62-.49-.6-1.3-.38-2.08,.02-.07,0-.41-.19-.59-.07-.07-.08-.23-.04-.3m8.88,1.4c.11,.04,.26,.04,.33-.04,.11-.12-.06-.46,.13-.48,.56-.04,.79,.26,.94,.44,.04,.05-.78,.73-1.03,1.12-.28-.2-.75-.29-1.11-.4,0,0-.06-.22,.12-.43,.22,.22,.48,.49,.85,.49,.39,0,.89-.74,.71-.86-.27-.2-.47,.74-.97,.41-.17-.12-.46-.48-.14-.54,.12-.02,.06,.23,.17,.28m8.29-.67c.07-.05,.28-.07,.31,.03,.02,.05,.06,.11,.02,.16-.04,.05-.2,.1-.27,.08-.01,0-.27-.13-.07-.27m-.27-1.48s-.01-.2-.08-.21c.12-.02,.22-.04,.34-.06,.01,.1,.02,.19-.02,.25-.05,.07-.16,.07-.24,.02m.23,.91l.05-.03c.06-.02,.14-.1,.21-.03,.07,.07,.07,.21,0,.27-.07,.08-.26,.04-.32-.05-.03-.06,.03-.12,.05-.16m-2.78-4.78c0-.39,.05-.75,.14-1.06,.1-.35,.25-.65,.44-.89,.38-.26,.78-.36,1.17-.3,.66,.09,1.33,.62,1.93,1.53,.04,.06,.1,.09,.17,.1,.07,0,.14-.02,.19-.08l1.01-1.17c.02,.67,.12,1.35,.33,2,.24,.73,.66,1.53,1.38,2.21-.13,.03-.26,.07-.41,.1-.34,.09-.76,.2-1.55,.34l-.4,.07c-.46,.08-.95,.17-1.45,.26-.08,0-.18,0-.31,.05-.53,.09-1.07,.19-1.63,.28-.71-1.23-1.02-2.43-1.02-3.43m4.28-6.94c1.4-.37,2.81,.66,3.14,1.31,.04,.09,.07,.17,.07,.22,0,.03,0,.05-.02,.06,0,0-.02,.02-.03,.03,0,0-3.22,3.71-3.55,4.1-.63-.86-1.34-1.39-2.07-1.5-.27-.04-.53-.01-.78,.05,.87-1.14,3.16-4.16,3.25-4.28m-1.06,10.55s0-.04-.01-.08c.11-.02,.21-.04,.32-.06,0,.05-.01,.09-.06,.12-.08,.06-.21,0-.25,.02m.6,2.12c.03-.11,.52,.04,.56-.3,0-.07,.09,.07,.25,.13,.14,.07,.57-.15,.83-.12,.01,0,.38,1.98,.31,2.28l-.83,.14c-.03-1-.48-2-.71-2-.22,0-.46,.1-.41-.12m-.32-.93c-.05-.06-.03-.19,0-.2,.02,0,.18-.1,.25-.05,.05,.04,.09,.11,.07,.16-.05,.1-.23,.18-.31,.08m.35,.36c.1,.02,.18,.03,.18,.14,0,.13-.19,.14-.21,.16-.05,.02-.16,.01-.18-.03-.06-.17,.05-.29,.22-.27m8.98,3.85c-.26,.28-1.01,.22-1.68,.17-.66-.05-1.28-.09-1.66,.14,0-.1,0-.21,0-.33,.02-.61,.15-1.04,.29-1.17,.5,.02,1.03,.07,1.58,.14,.81,.11,1.25,.19,1.56,.57,.02,.21,0,.37-.09,.47m-3.3-6.44c1.51-.05,3.32,.15,3.37,1.42v.12c.08,1.71,.11,2.75,.11,3.36,0,.23,0,.4,0,.53-.41-.3-.94-.39-1.58-.48-2-.29-3.6-.16-5.24,.13l-.03-.16c.06-.13-.32-2.07-.26-2.15,.14-.21,.81,0,.8-.4,0-.36-.58-.2-.85-.22-.1,0-.1-.02-.12-.11-.03-.15-.19-.9-.31-1.02-.12-.11-.29,0-.33,.14-.07,.23,.3,1.14,.16,1.14-.37,.02-.75,.34-.78,.26-.07-.18-.07-.46-.21-.64-.18-.25-.79-.08-.8-.19-.01-.28,.18-.25,.29-.31,.07-.04,.15-.09,.16-.19,.02-.11,.03-.27-.04-.36,.21-.04,.42-.07,.61-.11l.4-.07c.81-.14,1.24-.25,1.59-.35,.64-.16,.99-.26,3.06-.32m10.98,4.01c-.05-.62-.29-1.08-.73-1.41-1-.72-3.03-.71-6.36,.03-.01-.34-.03-.71-.05-1.12v-.12c-.04-.9-.74-1.95-3.85-1.85-1.09,.04-1.71,.08-2.16,.14-.83-.66-1.28-1.49-1.53-2.25-.25-.77-.34-1.6-.31-2.38l2.26-2.6c.12-.1,.3-.35,.06-.83-.41-.8-2.06-2.04-3.74-1.54-.05,0-.09,.04-.12,.08l-3.93,5.18c-.04,.06-.05,.13-.03,.2-.13,.22-.23,.46-.31,.73-.11,.39-.16,.8-.16,1.23,0,1.09,.36,2.3,1,3.47-3.16,.51-6.66,1-9.19,1-.15,0-.31,0-.46,0s-.31,0-.46,0c-2.52,0-6.03-.48-9.19-1,.65-1.17,1-2.37,1-3.47,0-.43-.06-.85-.16-1.23-.08-.27-.19-.51-.31-.73,.02-.07,0-.14-.03-.2l-3.93-5.18s-.07-.07-.12-.08c-1.69-.5-3.34,.73-3.75,1.54-.25,.48-.06,.73,.06,.83l2.26,2.6c.03,.78-.05,1.61-.31,2.38-.25,.76-.71,1.59-1.53,2.25-.44-.06-1.07-.1-2.16-.14-3.11-.1-3.81,.96-3.85,1.85v.12c-.02,.41-.04,.78-.05,1.12-3.34-.75-5.37-.76-6.36-.03-.44,.32-.68,.78-.73,1.41-.09,1.16-.14,3.49,0,4.37,.17,1.06,1.7,1.69,2.95,1.9,2.69,.46,8.88,.12,13.83-4.2,.02,0,.03,0,.05,0,2.85,.67,6.4,1.49,12.34,1.49,.16,0,.31,0,.46,0s.3,0,.46,0c5.94,0,9.49-.82,12.34-1.49,.01,0,.03,0,.05,0,4.95,4.32,11.14,4.65,13.83,4.2,1.26-.21,2.78-.84,2.95-1.9,.14-.88,.09-3.21,0-4.37m-43.91-2.63s.04-.19,0-.23c-.66-.57-1.47-.28-2.21-.27-.2,0-.13,.24-.14,.39,.09,0,.19,.01,.28,0,.72-.09,1.37,.27,2.08,.11m-.55,.59c.09,.4-.02,2.36,.28,2.93,.07,.12,.24-.03,.26-.13,.13-.96,.02-1.85-.17-2.79,0-.03-.23,0-.37,0m-1.63,0c-.12,.27-.43,2.02-.46,2.39,.09,0,.23,.02,.25,0,.34-.8,.51-1.64,.58-2.51-.14,0-.3-.04-.37,.13"/>
      </g>
      <g>
        <path class="cls-8" d="M185.11,6.67l.03-.72h.21l.15,.7c.18,.09,.35,.13,.59,.13,.5,0,.82-.23,.82-.67,0-.34-.15-.52-.64-.72l-.21-.08c-.57-.24-.87-.54-.87-1.04,0-.6,.49-.92,1.13-.92,.36,0,.64,.09,.87,.26l-.02,.69h-.22l-.15-.66c-.14-.08-.27-.11-.45-.11-.43,0-.74,.21-.74,.61,0,.35,.22,.54,.58,.7l.22,.09c.71,.3,.94,.57,.94,1.06,0,.6-.48,.97-1.23,.97-.39,0-.77-.12-1.01-.27Z"/>
        <path class="cls-8" d="M187.78,5.64c0-.81,.56-1.3,1.19-1.3s1,.43,1,1c0,.11,0,.21-.03,.28h-1.68c.01,.74,.38,1.06,.88,1.06,.33,0,.56-.12,.75-.34l.08,.06c-.2,.34-.53,.54-.96,.54-.71,0-1.23-.44-1.23-1.29Zm1.52-.17c.17,0,.22-.09,.22-.3,0-.4-.22-.68-.57-.68s-.66,.34-.69,.97h1.04Z"/>
        <path class="cls-8" d="M190.39,5.64c0-.81,.55-1.3,1.19-1.3s1,.43,1,1c0,.11,0,.21-.03,.28h-1.67c.01,.74,.38,1.06,.88,1.06,.33,0,.56-.12,.75-.34l.08,.06c-.2,.34-.53,.54-.96,.54-.71,0-1.22-.44-1.22-1.29Zm1.52-.17c.17,0,.22-.09,.22-.3,0-.4-.22-.68-.57-.68s-.66,.34-.69,.97h1.04Z"/>
        <path class="cls-8" d="M194.78,6.58c-.21,.24-.46,.36-.75,.36-.61,0-1.04-.5-1.04-1.27,0-.82,.49-1.32,1.11-1.32,.25,0,.48,.1,.69,.35v-1.33s-.42-.02-.42-.02v-.13l.8-.15,.07,.04v.72s-.01,2.88-.01,2.88l.41,.03v.13l-.84,.05-.02-.33Zm0-1.75c-.18-.17-.35-.25-.54-.25-.41,0-.76,.3-.76,1.07,0,.72,.31,1.04,.73,1.04,.22,0,.39-.07,.57-.26v-1.6Z"/>
        <path class="cls-8" d="M199.41,3.6h-1.24c0,.46,0,.94,0,1.44h.8s.06-.49,.06-.49h.18v1.15h-.18l-.06-.5h-.8c0,.54,0,1.01,0,1.47l.53,.05v.14h-1.5v-.14l.47-.04c0-.46,0-.93,0-1.4v-.25c0-.47,0-.95,0-1.41l-.47-.04v-.14h2.55l.02,.86h-.21l-.15-.7Z"/>
        <path class="cls-8" d="M201.96,6.44c-.23,.3-.53,.5-.9,.5-.45,0-.71-.25-.7-.95l.02-1.35-.38-.06v-.12l.79-.08,.05,.05-.02,.63v.94c0,.48,.17,.64,.46,.64,.25,0,.49-.14,.68-.37v-1.64s-.36-.05-.36-.05v-.12l.79-.09,.05,.05-.02,.63v1.63s.34,.03,.34,.03v.13l-.78,.05-.02-.47Z"/>
        <path class="cls-8" d="M204.74,6.86v-.13l.37-.04v-.91s0-.57,0-.57c0-.44-.15-.59-.41-.59-.18,0-.45,.1-.73,.38v.79s0,.91,0,.91l.34,.04v.13h-1.19v-.13l.37-.04v-.91s0-.31,0-.31c0-.32,0-.54-.01-.77l-.4-.03v-.12l.78-.21,.06,.04,.02,.45c.32-.36,.62-.5,.93-.5,.42,0,.67,.26,.67,.89v.55c0,.26,0,.65,.01,.91l.34,.04v.13h-.82s-.36,0-.36,0Z"/>
        <path class="cls-8" d="M208.09,6.58c-.21,.24-.46,.36-.75,.36-.61,0-1.04-.5-1.04-1.27,0-.82,.49-1.32,1.11-1.32,.25,0,.48,.1,.69,.35v-1.33s-.42-.02-.42-.02v-.13l.8-.15,.07,.04v.72s-.01,2.88-.01,2.88l.41,.03v.13l-.84,.05-.02-.33Zm0-1.75c-.18-.17-.35-.25-.54-.25-.41,0-.75,.3-.75,1.07,0,.72,.31,1.04,.73,1.04,.22,0,.39-.07,.57-.26v-1.6Z"/>
        <path class="cls-8" d="M209.29,5.64c0-.81,.56-1.3,1.19-1.3s1,.43,1,1c0,.11,0,.21-.03,.28h-1.68c.01,.74,.38,1.06,.88,1.06,.33,0,.56-.12,.75-.34l.08,.06c-.2,.34-.53,.54-.96,.54-.71,0-1.23-.44-1.23-1.29Zm1.52-.17c.17,0,.22-.09,.22-.3,0-.4-.22-.68-.57-.68s-.66,.34-.69,.97h1.04Z"/>
        <path class="cls-8" d="M213.68,6.58c-.21,.24-.46,.36-.75,.36-.61,0-1.04-.5-1.04-1.27,0-.82,.49-1.32,1.11-1.32,.25,0,.48,.1,.69,.35v-1.33s-.42-.02-.42-.02v-.13l.8-.15,.07,.04v.72s-.01,2.88-.01,2.88l.41,.03v.13l-.84,.05-.02-.33Zm0-1.75c-.18-.17-.35-.25-.54-.25-.41,0-.75,.3-.75,1.07,0,.72,.31,1.04,.73,1.04,.22,0,.39-.07,.57-.26v-1.6Z"/>
        <path class="cls-8" d="M216.89,6.56l-.06,.36-.78-.05v-.13l.38-.03c0-.27,0-.66,0-.92V3.37s-.4-.02-.4-.02v-.13l.79-.15,.07,.04v.73s-.01,.87-.01,.87c.24-.26,.52-.37,.8-.37,.58,0,.99,.48,.99,1.28,0,.76-.42,1.31-1.04,1.31-.27,0-.53-.11-.75-.38Zm0-.13c.2,.19,.38,.26,.58,.26,.38,0,.72-.27,.72-1.07s-.3-1.03-.7-1.03c-.18,0-.37,.05-.6,.26v1.58Z"/>
        <path class="cls-8" d="M220.54,4.41h.95v.13l-.32,.04-.93,2.49c-.29,.77-.6,1.06-.98,1.06-.22,0-.43-.1-.45-.28,.03-.15,.16-.21,.3-.21s.25,.08,.36,.19l.06,.06c.22-.14,.4-.41,.54-.79l.03-.08-1-2.46-.3-.03v-.13h1.22v.13l-.42,.04,.7,1.91,.34-.94,.33-.97-.45-.04v-.13Z"/>
        <path class="cls-8" d="M221.95,4.77c0-.17,.14-.31,.31-.31s.32,.14,.32,.31c0,.17-.14,.31-.32,.31s-.31-.14-.31-.31Zm0,1.85c0-.17,.14-.32,.31-.32s.32,.14,.32,.32-.14,.31-.32,.31-.31-.15-.31-.31Z"/>
      </g>
    </g>
    <g>
      <g>
        <path class="cls-4" d="M45.88,36.03L30.6,8.01l-2.95,5.04c-1.05,1.79-1.06,4.01-.02,5.81l13.91,24.16s1.05,2.65,5.53,3.12c3.28,.35,5.97-2.67,5.97-5.97l-.02-13.27-2.05,.96c-3.16,1.48-5.15,4.68-5.09,8.17h0Z"/>
        <circle class="cls-4" cx="49" cy="21.24" r="3.11"/>
        <path class="cls-4" d="M80.97,45.86h-4.82c-2.78,0-5.41-1.27-7.14-3.46l-13.17-16.69h8.79c3.06,0,5.66-2.38,5.77-5.43,.11-3.21-2.45-5.84-5.63-5.84h-20.58c-2.1,0-4.08-.96-5.39-2.6l-3.08-3.84h28.28c6.92,0,12.69,5.51,12.74,12.43,.04,4.96-2.8,9.25-6.95,11.32l11.18,14.11Z"/>
      </g>
      <g>
        <path class="cls-4" d="M23.28,41.87c-.19,0-.35,.08-.48,.24-.13,.16-.19,.42-.19,.8,0,.35,.07,.6,.2,.77,.13,.16,.3,.24,.49,.24,.21,0,.38-.08,.52-.25,.14-.16,.21-.43,.21-.8,0-.34-.07-.59-.21-.75-.14-.17-.32-.25-.54-.25Z"/>
        <path class="cls-4" d="M35.34,40.77c-1.21-2.2-3.37-2.97-5.23-2.98l-8.35,.04,4.79-7.97c.9-1.54,.9-3.44,.03-5l-2.63-4.63-15.11,25.94h29.58l-3.07-5.4Zm-15.04,4.25h-4.98v-5.9h4.89v1.26h-3.06v.94h2.84v1.2h-2.84v1.16h3.15v1.34Zm5.38,0h-1.53v-.63c-.21,.27-.41,.45-.59,.54-.24,.12-.5,.19-.79,.19-.58,0-1.03-.22-1.34-.66-.31-.44-.46-.98-.46-1.61,0-.71,.17-1.25,.51-1.63,.34-.38,.77-.56,1.29-.56,.26,0,.49,.04,.69,.13,.21,.09,.39,.21,.55,.39v-2.05h1.66v5.9Zm5.51,0h-1.53v-.69c-.23,.28-.46,.49-.69,.61-.23,.12-.52,.18-.86,.18-.45,0-.8-.13-1.06-.4s-.38-.69-.38-1.25v-2.72h1.65v2.35c0,.27,.05,.46,.15,.57,.1,.11,.24,.17,.42,.17,.2,0,.36-.08,.48-.23,.12-.15,.19-.42,.19-.81v-2.06h1.64v4.28Z"/>
      </g>
    </g>
    <g>
      <path class="cls-4" d="M84.99,12.62h5.59v1.53h-3.77v2.11h3.2v1.53h-3.2v2.44h3.9v1.53h-5.73V12.62Z"/>
      <path class="cls-4" d="M91.88,18.3c0-2.24,1.4-3.62,2.89-3.62,.78,0,1.26,.3,1.75,.75l-.06-1.08v-2.43h1.8v9.83h-1.47l-.14-.71h-.05c-.5,.49-1.19,.89-1.91,.89-1.71,0-2.82-1.35-2.82-3.62Zm4.58,1.42v-3.03c-.42-.38-.86-.52-1.29-.52-.78,0-1.43,.74-1.43,2.12s.52,2.14,1.43,2.14c.48,0,.89-.2,1.29-.71Z"/>
      <path class="cls-4" d="M100.12,19.16v-4.31h1.81v4.08c0,1.06,.3,1.44,.96,1.44,.57,0,.94-.25,1.4-.86v-4.65h1.81v6.9h-1.48l-.14-.98h-.05c-.59,.7-1.26,1.16-2.19,1.16-1.49,0-2.13-1.03-2.13-2.76Z"/>
      <path class="cls-4" d="M109.93,12.62h2.14l2.93,9.12h-1.91l-.64-2.34h-2.96l-.64,2.34h-1.85l2.92-9.12Zm-.04,5.37h2.17l-.27-1c-.28-.95-.53-2-.79-2.98h-.06c-.23,1-.5,2.03-.78,2.98l-.27,1Z"/>
      <path class="cls-4" d="M116.08,12.62h1.82v9.12h-1.82V12.62Z"/>
      <path class="cls-4" d="M120.14,12.62h3.18c1.91,0,3.42,.68,3.42,2.77,0,1.37-.69,2.22-1.74,2.62l2.13,3.73h-2.03l-1.87-3.45h-1.27v3.45h-1.82V12.62Zm3,4.24c1.17,0,1.82-.49,1.82-1.47s-.65-1.32-1.82-1.32h-1.18v2.78h1.18Z"/>
      <path class="cls-4" d="M96.87,37.1c-.49,.76-1.15,1.38-1.95,1.88,1.19,.3,2.57,.47,4.04,.54-.3,.32-.65,.91-.84,1.3-1.8-.16-3.42-.49-4.8-1.05-1.42,.55-3.05,.87-4.75,1.06-.14-.33-.5-.91-.75-1.19,1.44-.1,2.81-.31,4-.64-.41-.26-.78-.54-1.11-.86-.54,.29-1.1,.57-1.64,.78-.23-.26-.71-.75-1.01-.97,1.43-.43,2.84-1.16,3.73-2.06-.54-.15-.69-.52-.69-1.22v-.85h1.34v.85c0,.28,.09,.31,.49,.31h1.29c.31,0,.39-.07,.43-.58,.27,.16,.76,.32,1.12,.38-.14,.95-.48,1.21-1.39,1.21h-1.13l.07,.02c-.15,.18-.31,.37-.48,.54h2.86l.25-.04,.91,.58Zm-7.4-2.7h-1.39v-2.24h2.12c-.16-.34-.39-.74-.63-1.06l.14-.06c-.33,.01-.67,.02-1,.02-.02-.31-.16-.79-.28-1.06,3.03-.06,6.6-.3,8.62-.7l.96,.97c-.48,.1-1.01,.18-1.56,.27l1.11,.34c-.31,.46-.63,.9-.91,1.27h1.97v2.41h-1.18c.33,.31,.6,.62,.79,.89l-1.05,.79c-.36-.58-1.17-1.4-1.88-1.97l.98-.69c.28,.21,.59,.47,.89,.73v-1.03h-3.35c.32,.18,.63,.37,.84,.54l-.74,.81c-.37-.34-1.13-.79-1.75-1.06l.27-.29h-2.96v1.12Zm-1.05,1.15c.7-.38,1.26-1.07,1.56-1.74l1.1,.47c-.34,.79-.85,1.58-1.65,2.09l-1.01-.83Zm4.42-3.39c-.11-.38-.33-.85-.57-1.23-.42,.02-.84,.05-1.26,.07,.23,.33,.46,.71,.53,1l-.37,.16h1.66Zm-1.05,5.41c.42,.34,.94,.64,1.54,.9,.54-.26,1.01-.55,1.4-.9h-2.94Zm3.39-5.41c.28-.43,.63-1.07,.85-1.56-.75,.1-1.55,.17-2.38,.25,.22,.37,.42,.76,.49,1.07l-.65,.25h1.69Z"/>
      <path class="cls-4" d="M111.14,32.09s-.01,.48-.01,.65c-.11,5.04-.21,6.82-.6,7.39-.28,.41-.57,.53-.97,.62-.37,.07-.94,.06-1.53,.05-.02-.41-.19-1-.43-1.4,.54,.05,1.01,.06,1.24,.06,.18,0,.31-.05,.42-.21,.26-.33,.38-1.83,.46-5.81h-1.11c-.16,3.3-.73,5.84-2.8,7.47-.18-.3-.54-.7-.86-.97-1.77,.18-3.55,.37-4.88,.48l-.17-1.23c.69-.05,1.55-.11,2.5-.17v-.74h-2.17v-1.04h2.17v-.48h-2.12v-3.81h2.12v-.48h-2.43v-1.06h2.43v-.49c-.71,.05-1.42,.09-2.08,.1-.05-.3-.19-.75-.32-1.03,1.82-.1,3.95-.31,5.31-.6l.64,1.1c-.65,.14-1.42,.25-2.22,.33v.6h2.36v.68h1.16c.01-.81,.01-1.66,.01-2.57h1.4c0,.9,0,1.76-.02,2.57h2.5Zm-9.7,2.33h.96v-.54h-.96v.54Zm.96,1.43v-.55h-.96v.55h.96Zm1.33,3.05c.7-.05,1.43-.11,2.14-.17,.96-1.33,1.26-3.09,1.34-5.29h-1.12v-.96h-2.36v.48h2.18v3.81h-2.18v.48h2.23v1.04h-2.23v.63Zm.96-4.48v-.54h-.96v.54h.96Zm-.96,.87v.55h.96v-.55h-.96Z"/>
      <path class="cls-4" d="M116.98,35.43c-.34-.31-1.03-.81-1.59-1.19-.44,.63-1.16,1.26-2.27,1.77-.2-.3-.6-.75-.92-.99,1.26-.49,1.88-1.1,2.19-1.71h-2.04v-1.15h.83c-.3-.18-.69-.41-.94-.53,.63-.59,1.11-1.49,1.35-2.4l1.29,.27c-.07,.23-.15,.48-.25,.73h3.05v1.13h-1.6v.55c0,.09,0,.16-.01,.25h1.9v1.15h-2.03c.52,.27,1.75,.97,2.07,1.18l-1.03,.94Zm-2.29-3.26c.01-.1,.01-.18,.01-.27v-.53h-.62c-.17,.3-.37,.57-.57,.8h1.17Zm-.7,3.45h8.03v5.18h-1.5v-.39h-5.09v.41h-1.44v-5.2Zm1.44,1.14v.69h5.09v-.69h-5.09Zm5.09,2.48v-.73h-5.09v.73h5.09Zm2.56-9.03v4.67h-4.68v-4.67h4.68Zm-1.45,1.29h-1.87v2.08h1.87v-2.08Z"/>
    </g>
    <g>
      <path d="M247.8,32.66c-.28,1.06-.74,2.01-1.76,2.54l-.65-.47c.94-.48,1.46-1.33,1.69-2.3l.72,.23Zm-1.02-1.75c.32-.32,.67-.72,1.02-1.14-.42-.53-1.12-1.16-1.75-1.61l.49-.43c.17,.12,.35,.24,.52,.37,.3-.4,.61-.91,.85-1.33h-2.31v-.71h3.08c-.2-.43-.56-.95-.92-1.34l.67-.31c.43,.47,.89,1.1,1.06,1.56-.04,.02-.07,.04-.17,.1h3.03l-.1-.04c.34-.44,.74-1.15,.96-1.62l1,.36c-.05,.07-.13,.1-.26,.1-.22,.35-.55,.82-.86,1.2h3.26v.71h-2.72l.31,.14c-.04,.07-.13,.11-.25,.1-.28,.42-.72,1.03-1.12,1.48,.29,.25,.55,.52,.76,.76,.43-.53,.83-1.07,1.13-1.52l.82,.4c-.04,.06-.13,.1-.25,.08-.6,.8-1.52,1.87-2.34,2.67,.72-.04,1.51-.08,2.31-.13-.2-.28-.42-.53-.65-.76l.6-.28c.59,.58,1.19,1.38,1.4,1.97l-.64,.3c-.07-.2-.19-.43-.34-.67-1.46,.12-2.94,.24-3.9,.3-.02,.1-.08,.14-.16,.17l-.31-.82,.8-.04c.32-.32,.7-.71,1.06-1.13-.43-.53-1.16-1.2-1.81-1.67l.5-.43c.18,.12,.36,.26,.54,.41,.31-.41,.64-.91,.86-1.33h-4.4l.31,.14c-.05,.08-.14,.11-.25,.1-.28,.43-.71,1.03-1.08,1.49,.26,.24,.52,.48,.72,.71,.4-.52,.77-1.03,1.04-1.48l.82,.4c-.05,.06-.13,.1-.26,.1-.56,.78-1.44,1.83-2.22,2.64,.61-.04,1.27-.07,1.94-.12-.18-.24-.4-.48-.6-.68l.58-.28c.52,.49,1.04,1.19,1.25,1.7l-.47,.23c.68,.36,1.39,.85,1.75,1.26l-.56,.5c-.42-.48-1.32-1.12-2.11-1.5l.54-.46,.17,.07-.16-.29c-1.39,.13-2.79,.25-3.71,.32-.01,.08-.07,.13-.16,.16l-.29-.82,.97-.06Zm2.63,3.38c0,.3,.1,.35,.74,.35h2.23c.52,0,.6-.14,.65-1.24,.18,.13,.52,.25,.73,.3-.1,1.36-.36,1.67-1.31,1.67h-2.35c-1.2,0-1.5-.22-1.5-1.08v-1.83l1.03,.06c-.01,.08-.07,.14-.23,.17v1.61Zm6.43,.85c-.38-.73-1.31-1.74-2.21-2.42l.65-.38c.9,.66,1.85,1.63,2.25,2.38l-.7,.43Z"/>
      <path d="M266.65,29.79c-.02,.07-.11,.1-.24,.1-.19,.28-.47,.64-.73,.92h2.73v.67h-10.87v-.67h2.55c-.16-.34-.41-.77-.67-1.08l.72-.23c.32,.36,.63,.86,.78,1.21l-.26,.1h1.86v-1.31h-4.62v-.65h4.62v-.9h-3.57v-.64h3.57v-.88h-4.29v-.65h2.47c-.17-.36-.46-.8-.72-1.15l.72-.23c.35,.4,.7,.95,.85,1.32l-.17,.06h3.06l-.1-.04c.28-.38,.65-.98,.84-1.38l.96,.29c-.02,.07-.11,.11-.24,.11-.19,.3-.47,.7-.73,1.02h2.55v.65h-4.38v.88h3.63v.64h-3.63v.9h4.76v.65h-2.39l.92,.29Zm-7.41,5.76v-3.31h7.54v3.27h-.82v-.4h-5.94v.43h-.79Zm6.73-2.64h-5.94v1.55h5.94v-1.55Zm-2.61-3.41v1.31h1.65l-.16-.06c.28-.35,.64-.88,.83-1.25h-2.33Z"/>
      <path d="M271.87,28.79c.31,.44,1.15,1.77,1.33,2.1l-.43,.6c-.16-.38-.56-1.16-.9-1.76v5.81h-.74v-5.84c-.38,1.37-.89,2.69-1.42,3.5-.1-.2-.29-.5-.41-.67,.7-1.03,1.4-3.01,1.73-4.7h-1.49v-.74h1.58v-2.67l.97,.07c-.01,.07-.07,.13-.23,.16v2.45h1.31v.74h-1.31v.97Zm5.61,2.51c.13,.67,.29,1.27,.47,1.77,.43-.47,.78-.98,1.02-1.54l.84,.29c-.02,.07-.1,.11-.22,.11-.32,.66-.78,1.27-1.36,1.82,.36,.71,.78,1.1,1.28,1.1,.36,0,.49-.3,.56-1.44,.16,.17,.4,.32,.56,.38-.14,1.37-.41,1.77-1.19,1.77-.74-.01-1.32-.49-1.78-1.33-.64,.49-1.37,.94-2.18,1.27-.1-.14-.3-.4-.44-.53,.89-.35,1.68-.82,2.33-1.38-.25-.64-.46-1.43-.62-2.31h-2.02c-.02,.25-.05,.5-.08,.76,.62,.37,1.36,.86,1.74,1.21l-.46,.56c-.31-.3-.86-.71-1.4-1.07-.24,1.08-.67,2.09-1.6,2.76-.11-.17-.32-.41-.49-.53,1.12-.79,1.45-2.21,1.57-3.69h-.82v-.67h3.44c-.28-1.79-.4-3.92-.41-6.21l.97,.06c-.01,.08-.07,.14-.24,.17-.01,2.22,.12,4.29,.4,5.98h1.78c-.31-.25-.74-.55-1.13-.76l.4-.4c.47,.24,1.04,.6,1.33,.88l-.25,.28h.97v.67h-2.99Zm-4.44-2.3l.42-.02c.28-.35,.56-.78,.85-1.24-.31-.4-.85-.89-1.31-1.25l.35-.43c.1,.07,.19,.14,.3,.22,.28-.53,.6-1.24,.77-1.74l.77,.34c-.04,.07-.12,.1-.24,.1-.22,.47-.58,1.16-.89,1.66,.22,.19,.42,.4,.58,.58,.3-.52,.59-1.03,.79-1.46l.74,.37c-.04,.06-.13,.1-.25,.1-.44,.79-1.14,1.9-1.75,2.73l1.31-.08c-.11-.28-.24-.56-.37-.8l.52-.19c.34,.55,.64,1.28,.72,1.75l-.55,.24c-.02-.13-.06-.29-.11-.46-.86,.1-1.67,.18-2.23,.23-.01,.08-.07,.13-.14,.16l-.26-.78Zm4.59-.14c.24-.31,.5-.71,.77-1.12-.31-.4-.85-.89-1.31-1.25l.35-.43,.29,.22c.29-.53,.61-1.24,.78-1.74l.77,.34c-.04,.07-.12,.1-.24,.1-.22,.47-.58,1.15-.9,1.64,.23,.2,.43,.41,.59,.59,.31-.52,.59-1.03,.79-1.46l.73,.37c-.02,.06-.12,.1-.24,.1-.43,.76-1.09,1.81-1.68,2.61,.44-.02,.91-.05,1.42-.08-.12-.26-.25-.52-.38-.74l.52-.2c.34,.55,.68,1.27,.78,1.74l-.54,.26c-.04-.16-.1-.35-.17-.55-.88,.11-1.71,.19-2.28,.24-.01,.1-.08,.14-.17,.16l-.26-.76,.4-.02Z"/>
      <path d="M284.03,28.71c.34,.44,1.26,1.8,1.46,2.13l-.46,.61c-.18-.4-.64-1.18-1.01-1.79v5.85h-.74v-5.91c-.42,1.4-.98,2.77-1.57,3.6-.1-.22-.29-.52-.42-.7,.75-1.02,1.52-2.99,1.89-4.69h-1.66v-.76h1.75v-2.67l.98,.07c-.01,.07-.08,.13-.24,.16v2.45h1.43v.76h-1.43v.89Zm8.56,4.17v.65h-.79v1.15c0,.84-.37,.86-2.04,.86-.04-.19-.14-.48-.24-.67,.31,.01,.6,.01,.83,.01,.62,0,.7,0,.7-.2v-1.15h-4.17v2.03h-.74v-2.03h-.89v-.65h.89v-3.05h2.41v-.78h-3.12v-.64h1.73v-.88h-1.2v-.61h1.2v-.85h-1.43v-.61h1.43v-1.08l.98,.07c-.01,.07-.07,.13-.23,.16v.85h2.07v-1.08l1,.07c-.01,.08-.07,.13-.23,.16v.85h1.56v.61h-1.56v.85h1.36v.61h-1.36v.88h1.79v.64h-3.25v.78h2.52v3.05h.79Zm-4.05-2.42h-1.67v.89h1.67v-.89Zm-1.67,1.49v.94h1.67v-.94h-1.67Zm1.03-5.86v.85h2.07v-.85h-2.07Zm0,1.46v.88h2.07v-.88h-2.07Zm3.14,2.91h-1.76v.89h1.76v-.89Zm-1.76,2.42h1.76v-.94h-1.76v.94Z"/>
      <path d="M298.06,26.46v.7h-4.65v-.7h4.65Zm-.56,4.91v3.38h-2.79v.61h-.74v-3.99h3.54Zm-.1-3.25v.67h-3.37v-.67h3.37Zm-3.37,2.29v-.67h3.37v.67h-3.37Zm3.26-5.54v.66h-3.14v-.66h3.14Zm-.56,7.15h-2.03v2.09h2.03v-2.09Zm4.87,2.39h2.95v.77h-6.68v-.77h2.93v-3.21h-2.29v-.77h2.29v-2.83h-2.52v-.76h2.52v-2.39l1.04,.06c-.01,.08-.07,.14-.24,.17v2.16h2.63v.76h-2.63v2.83h2.42v.77h-2.42v3.21Z"/>
      <path d="M316.58,29.58v.78h-1.1v4.2c0,.9-.4,1.01-1.86,1.01-.04-.22-.16-.59-.28-.8,.26,.01,.52,.01,.72,.01,.56,0,.62,0,.62-.22v-4.2h-1.97v5.07h-.77v-5.07h-1.94v5.07h-.76v-5.07h-1.86v5.24h-.79v-5.24h-1.2v-.78h1.2v-4.4h8.88v4.4h1.1Zm-9.19,0h1.86v-3.61h-1.86v3.61Zm2.61,0h1.94v-3.61h-1.94v3.61Zm2.71,0h1.97v-3.61h-1.97v3.61Z"/>
      <path d="M321.23,30.99c-.06-.18-.13-.4-.24-.64l-.96,.06v5.13h-.72v-5.1c-.64,.02-1.21,.05-1.67,.07-.02,.08-.1,.13-.18,.16l-.22-.9h.82c.26-.34,.55-.72,.84-1.13-.36-.56-.98-1.27-1.54-1.8,.25-.26,.34-.38,.42-.52,.13,.12,.26,.24,.4,.37,.4-.7,.82-1.63,1.07-2.3l.86,.35c-.04,.07-.12,.11-.25,.11-.3,.67-.8,1.64-1.24,2.3,.26,.3,.5,.59,.7,.85,.49-.77,.95-1.57,1.28-2.24l.85,.38c-.04,.07-.13,.11-.26,.11-.6,1.03-1.55,2.46-2.38,3.5l1.87-.04c-.2-.4-.44-.8-.67-1.15l.59-.25c.52,.74,1.06,1.74,1.25,2.38l-.62,.29Zm-2.36,.54c-.02,.11-.12,.13-.23,.12-.16,1.01-.42,2.17-.77,2.88-.14-.1-.41-.22-.59-.3,.34-.67,.58-1.82,.72-2.92l.86,.22Zm2.22-.24c.3,.65,.59,1.47,.7,2.03l-.65,.22c-.1-.55-.37-1.4-.66-2.05l.61-.19Zm7.14-.92v4.4c0,.6-.14,.78-1.1,.78-.04-.19-.14-.49-.24-.68,.26,.01,.47,.01,.55,.01,.07,0,.1-.02,.1-.12v-1.57h-.95v2.24h-.59v-2.24h-.93v2.24h-.58v-2.24h-.91v2.38h-.62v-4.17h-.01c-.14,1.4-.48,2.91-1.27,4.07-.12-.13-.43-.36-.6-.44,1.13-1.67,1.25-3.96,1.25-5.62v-2.78h5.64v2.78h-4.91c0,.31,0,.64-.02,.98h5.21Zm-6.63-5.4h6.94v.72h-6.94v-.72Zm5.59,2.3h-4.14v1.44h4.14v-1.44Zm-3.61,5.28h.91v-1.54h-.91v1.54Zm1.49,0h.93v-1.54h-.93v1.54Zm1.52,0h.95v-1.54h-.95v1.54Z"/>
      <path d="M332.96,30.97l.43,.07-.04,.25c-.19,2.61-.38,3.61-.72,3.96-.28,.31-.62,.32-1.09,.32-.25,0-.56-.01-.88-.04-.01-.2-.1-.52-.23-.71,.52,.05,.98,.05,1.19,.05,.18,0,.3-.02,.4-.12,.23-.23,.41-1.04,.56-3.07h-1.78c-.07,.29-.14,.56-.22,.79-.58-.11-.65-.13-.73-.14,.2-.66,.44-1.66,.62-2.49h-1.08v-.72h4.56v.72h-2.72c-.08,.37-.18,.77-.26,1.15h1.81l.17-.02Zm.47-6.09v3.33h-3.44v-3.33h3.44Zm-.77,2.65v-1.97h-1.95v1.97h1.95Zm2.4-.02v2.44c0,1.69-.18,4.07-1.31,5.68-.13-.14-.43-.37-.61-.46,1.05-1.54,1.17-3.66,1.17-5.23v-3.12h2.42v-2.42l1.01,.06c-.01,.08-.07,.14-.23,.17v.65h2.47v.68h-2.47v.86h3.07c0,.19-.25,1.58-.44,2.23l-.62-.14c.08-.36,.17-.89,.24-1.4h-4.7Zm2.01,3.91c-.02,.08-.1,.13-.23,.16-.13,1.57-.46,3.08-1.78,3.97-.11-.18-.32-.42-.49-.53,1.15-.74,1.45-2.12,1.55-3.68l.95,.08Zm.42-1.56c0,.25,.05,.29,.4,.29h1.19c.28,0,.34-.08,.37-.8,.16,.11,.43,.2,.63,.25-.07,.94-.28,1.18-.91,1.18h-1.36c-.84,0-1.05-.17-1.05-.9v-.55l-1.31,.13-.08-.6,1.39-.14v-1.08l.96,.06c-.01,.07-.08,.13-.23,.16v.79l1.55-.16,.07,.59-1.62,.17v.62Zm1.13,4.4c0,.36,.01,.47,.36,.47h.48c.54,0,.54-.11,.58-1.43,.14,.13,.38,.25,.58,.32-.04,1.27-.05,1.74-1.12,1.74h-.67c-.24,0-.53-.06-.71-.19-.18-.14-.24-.32-.24-1.01v-2.89l.97,.06c-.01,.08-.07,.13-.23,.16v2.77Z"/>
      <path d="M344.79,27.06c0,.44-.36,.8-.82,.8s-.82-.36-.82-.8,.36-.82,.82-.82c.48,0,.82,.38,.82,.82Zm0,5.83c0,.46-.36,.82-.82,.82s-.82-.36-.82-.82,.36-.8,.82-.8c.48,0,.82,.38,.82,.8Z"/>
      <path d="M354.88,30.28c-.49,.62-1.19,1-2.06,1-1.54,0-2.48-1.2-2.48-2.72,0-1.64,1.08-3.15,2.84-3.15s2.75,1.46,2.75,3.75c0,2.99-1.51,5.06-3.81,5.42-.42,.07-.8,.1-1.07,.08v-.83c.25,.02,.54-.01,.92-.06,1.51-.22,2.65-1.44,2.95-3.49h-.04Zm-3.54-1.79c0,1.21,.68,2.03,1.71,2.03,.97,0,1.86-.74,1.86-1.46,0-1.73-.64-2.89-1.82-2.89-1.04,0-1.75,.98-1.75,2.33Z"/>
      <path d="M359.51,34.53v-8.05h-.02l-1.48,.85-.24-.74,1.86-1.04h.85v8.98h-.97Z"/>
      <path d="M363.79,35.07h-.8l3.8-9.82h.83l-3.83,9.82Z"/>
      <path d="M369.83,29.77c-.97-.47-1.4-1.26-1.4-2.03,0-1.39,1.09-2.34,2.54-2.34,1.63,0,2.41,1.1,2.41,2.18,0,.77-.41,1.61-1.47,2.12v.05c1.1,.47,1.79,1.27,1.79,2.35,0,1.52-1.25,2.57-2.83,2.57-1.71,0-2.77-1.09-2.77-2.39,0-1.16,.7-2,1.74-2.47v-.05Zm2.84,2.45c0-1.13-.76-1.7-1.94-2.09-1.06,.35-1.62,1.12-1.62,2,0,1.02,.68,1.8,1.76,1.8,1.15,0,1.8-.78,1.8-1.72Zm-3.3-4.57c-.01,.96,.67,1.49,1.67,1.79,.78-.3,1.37-.91,1.37-1.76,0-.76-.42-1.54-1.47-1.54s-1.56,.73-1.56,1.51Z"/>
      <path d="M379.77,25.55v.83h-3.23l-.37,2.54c.19-.02,.38-.05,.7-.05,1.59,0,3.02,.95,3.02,2.76s-1.32,3.05-3.09,3.05c-.9,0-1.66-.26-2.06-.53l.29-.78c.34,.23,1,.5,1.78,.5,1.13,0,2.1-.83,2.09-2.12,0-1.24-.79-2.1-2.47-2.1-.48,0-.85,.04-1.15,.08l.56-4.19h3.95Z"/>
      <path d="M383.92,34.53v-8.05h-.02l-1.48,.85-.24-.74,1.86-1.04h.85v8.98h-.97Z"/>
      <path d="M388.92,29.77c.41-.6,1.14-1.1,2.1-1.1,1.52,0,2.54,1.14,2.54,2.87s-1.01,3.14-2.76,3.14-2.93-1.45-2.93-3.78,1.13-4.93,4.04-5.41c.34-.05,.64-.08,.84-.08v.83c-2.48,0-3.67,1.81-3.87,3.54h.04Zm3.63,1.83c0-1.38-.74-2.18-1.82-2.18s-1.86,1.03-1.86,1.7c.01,1.64,.71,2.77,1.96,2.77,1.04,0,1.73-.94,1.73-2.29Z"/>
    </g>
  </g>
</svg>