<?xml version="1.0" encoding="utf-8"?>
<!-- Generator: Adobe Illustrator 24.0.1, SVG Export Plug-In . SVG Version: 6.00 Build 0)  -->
<svg version="1.1" id="Layer_2_1_" xmlns="http://www.w3.org/2000/svg" xmlns:xlink="http://www.w3.org/1999/xlink" x="0px" y="0px"
	 viewBox="0 0 400 60" style="enable-background:new 0 0 400 60;" xml:space="preserve">
<style type="text/css">
	.st0{fill:#FFFFFF;}
	.st1{clip-path:url(#SVGID_2_);}
	.st2{fill:url(#SVGID_3_);}
	.st3{fill:url(#SVGID_4_);}
	.st4{fill:#6E1E6F;}
	.st5{fill:#E5A823;}
	.st6{fill:#F1DEAE;}
	.st7{fill:#231F20;}
	.st8{fill:#F9AE1B;}
</style>
<g id="Layer_1-2">
	<rect class="st0" width="400" height="60"/>
	<g>
		<g>
			<defs>
				<polyline id="SVGID_1_" points="184.2,60 184.2,0 0,0 0,60 				"/>
			</defs>
			<clipPath id="SVGID_2_">
				<use xlink:href="#SVGID_1_"  style="overflow:visible;"/>
			</clipPath>
			<g class="st1">
				<g>
					
						<linearGradient id="SVGID_3_" gradientUnits="userSpaceOnUse" x1="49.84" y1="-379.2242" x2="234.97" y2="-379.2242" gradientTransform="matrix(1 0 0 -1 -49.32 -349.3)">
						<stop  offset="2.000000e-02" style="stop-color:#6D266F"/>
						<stop  offset="5.000000e-02" style="stop-color:#813962"/>
						<stop  offset="0.12" style="stop-color:#A1594E"/>
						<stop  offset="0.19" style="stop-color:#BD743E"/>
						<stop  offset="0.26" style="stop-color:#D48930"/>
						<stop  offset="0.36" style="stop-color:#E59A25"/>
						<stop  offset="0.47" style="stop-color:#F2A61E"/>
						<stop  offset="0.62" style="stop-color:#F9AD1A"/>
						<stop  offset="1" style="stop-color:#FBAF19"/>
					</linearGradient>
					<path class="st2" d="M0,60V0c0,0,185.4-0.4,184.2,0.1C144.6,16.2,143,59.2,86.8,59.2c0,0-23.7,0.8-30.7,0.8H0"/>
					
						<linearGradient id="SVGID_4_" gradientUnits="userSpaceOnUse" x1="6.507" y1="61.4834" x2="143.437" y2="119.7334" gradientTransform="matrix(1 0 0 1 0 -66)">
						<stop  offset="0" style="stop-color:#6D266F"/>
						<stop  offset="0.36" style="stop-color:#6D266F"/>
						<stop  offset="0.56" style="stop-color:#7E226E"/>
						<stop  offset="0.8" style="stop-color:#8D1F6D"/>
						<stop  offset="1" style="stop-color:#931F6D"/>
					</linearGradient>
					<path class="st3" d="M73.5,56.7L91.8,56c11.2-0.3,33-4.4,52.4-31.8c3.3-4.6,10.1-15,22.4-24.5c2.7-2-166.6,0-166.6,0v57H73.5
						L73.5,56.7z"/>
				</g>
			</g>
		</g>
	</g>
	<g id="CUHK_Logo">
		<g>
			<path class="st4" d="M223.9,47.9c0.4,0,2.4-0.7,3.2-1.1c4.1-2.2,7.8-5.2,10.1-9.3c1.9-3.3,2-7.4,2.3-11.1
				c0.4-4.8,0.4-9.6,0.3-14.4c0-0.4-6.9-1.1-7.6-1.2c-2.8-0.3-6.5-0.4-8.4-0.4s-5.6,0.2-8.4,0.4c-0.7,0.1-7.6,0.8-7.6,1.2
				c-0.1,4.8-0.1,9.6,0.3,14.4c0.3,3.7,0.4,7.8,2.3,11.1c2.4,4.1,6,7.1,10.1,9.3C221.5,47.2,223.4,47.9,223.9,47.9"/>
			<path class="st5" d="M234.1,29.6L234.1,29.6L234.1,29.6L234.1,29.6 M235.8,29.9C235.8,29.9,235.9,29.9,235.8,29.9L235.8,29.9
				C235.9,29.9,235.8,29.9,235.8,29.9 M235.5,30.8C235.5,30.8,235.6,30.8,235.5,30.8L235.5,30.8C235.6,30.8,235.6,30.8,235.5,30.8
				 M234.9,32.9C234.9,32.9,234.9,33,234.9,32.9L234.9,32.9C234.9,33,234.9,33,234.9,32.9 M234.9,28.9h-0.1l0,0
				C234.8,28.9,234.9,28.9,234.9,28.9 M224.3,40.4c-0.1,0.1-0.3,0.1-0.4,0.1h0.1C224.1,40.5,224.2,40.5,224.3,40.4 M232.2,19
				c0,0-0.1,0-0.1,0.1C232.1,19,232.2,19,232.2,19L232.2,19 M233.7,13.8L233.7,13.8L233.7,13.8L233.7,13.8 M233.2,16.1
				c0,0,0,0-0.1,0.1C233.1,16.2,233.1,16.1,233.2,16.1L233.2,16.1 M235.3,31.9L235.3,31.9L235.3,31.9L235.3,31.9 M235.2,22.3
				l0.1-0.1C235.2,22.3,235.2,22.3,235.2,22.3L235.2,22.3L235.2,22.3z M232.3,25.9L232.3,25.9L232.3,25.9L232.3,25.9L232.3,25.9z
				 M236.7,19.4v0.4c-0.4,5.7-2.1,7.7-3.8,9h-0.1c-0.5,0.4-1.1,0.8-2.2,1.2l0,0c-0.2,0.1-0.8,0.3-1,0.6c-0.2,0.3-0.2,0.3-0.2,0.3
				c-0.1,0,0.1-0.4,0.1-0.5c0.1-0.2,0.3-0.4,0.7-0.5c0.8-0.4,0.9-0.8,0.9-1c0-0.3-0.2-0.7-0.6-0.8c-0.2-0.1-0.5,0-0.6,0.1
				c0.1,0,0.2,0.1,0.3,0.4c0,0.4-0.2,0.6-0.4,0.6s-0.5-0.1-0.6-0.5c-0.1-0.6,0.2-1,0.4-1.1c0.3-0.2,0.4-0.2,0.6-0.3l0.3-0.1
				c0.5-0.1,0.9,0.2,1,0.3c0.1,0.1,0.1,0.1,0.1,0.1l0,0c0.1-0.1,0-0.7-0.1-1l0,0l0,0c0.5-0.1,0.7,0.2,0.8,0.4
				c0.1,0.1,0.1,0.1,0.1,0.1l0,0c0.1-0.2-0.1-0.8-0.2-1.1l0,0l0,0l0,0c0.5-0.1,0.8,0.1,0.9,0.3c0.1,0,0.1,0.1,0.1,0.1l0,0
				c0.1-0.2-0.2-0.8-0.3-1.1l0.1-0.1c0.4-0.2,0.7,0,0.9,0.1c0.1,0,0.1,0.1,0.1,0.1l0,0c0-0.2-0.2-0.7-0.4-1l0.1-0.1
				c0.4-0.1,0.6,0,0.8,0c0.1,0,0.1,0,0.1,0l0,0c0-0.2-0.2-0.6-0.4-0.8l0.1-0.1c0.3-0.1,0.6,0,0.7,0h0.1c0,0,0,0,0-0.1
				c0-0.2-0.2-0.7-0.3-0.8l0,0l0,0c0.3-0.3,0.6-0.3,0.8-0.3h0.1l0,0c0-0.1-0.2-0.5-0.4-0.6c0.4-0.7,0.7-1.4,0.8-2
				c0.2-0.8,0.2-0.8,0.3-0.8C236.7,18.7,236.7,18.8,236.7,19.4 M227.7,32.6L227.7,32.6c-0.5,0.9-1.2,1.4-2.8,1.4h-1v-0.9h0.9
				c1.4,0,2.3-0.2,2.7-0.5C227.7,32.4,227.7,32.4,227.7,32.6C227.7,32.5,227.7,32.6,227.7,32.6 M223.8,26.1c0.1,0,0.2,0,0.3,0
				c0.8,0,1.1,0.4,1.1,1.2c0,0.6-0.2,1.2-1.5,1.3L223.8,26.1L223.8,26.1z M223.8,12.6c0.8,0.3,1.3,1,1.2,1.8s-0.6,1.6-1.2,1.6V12.6z
				 M237.7,22.1c0,0,0-0.2,0-0.3c0.2-0.1,0.9-0.4,1.1-1.4c0-0.1,0-0.3,0-0.5l0,0c-0.1,0.1-0.6,0.6-0.9,0.5c-0.1,0-0.1-0.1-0.1-0.1
				c0-1-0.1-1.8-0.2-2.8c0.3-0.1,0.9-0.6,0.9-1.5c0-0.1,0-0.3,0-0.4l-0.1,0.1c-0.1,0.2-0.6,0.6-0.8,0.6c-0.1,0-0.1,0-0.1-0.1v-0.1
				c-0.2-2.1-0.6-3.1-1.5-3.5h-0.1c0,0,0,0.1,0.1,0.1c0.1,0.2,0.3,0.5,0.4,0.9c0.1,0.6,0.2,1.1,0.2,1.5c0,0.5-0.1,0.8-0.1,1.1
				c-0.1,0.2-0.3,0.3-0.5,0.4c-0.5,0.1-1-0.4-1.2-0.8l0,0c0,0-0.1,0.1-0.1,0.2c-0.1,0.6,0,1.3,0.4,1.5c0.1,0.1,0.4,0.2,0.6,0
				c0.1-0.1,0.2-0.1,0.3-0.1c0,0,0.1,0,0.1,0.1c-0.2,0.5-0.4,1-0.6,1.5c-0.1,0.1-0.3,0.2-0.4,0.2c-0.5,0-1-0.6-1.1-1.1l0,0
				c0,0-0.1,0.1-0.2,0.2c-0.3,0.5-0.2,1.3,0.1,1.7c0.1,0.1,0.3,0.3,0.7,0.1c0.2-0.1,0.3-0.1,0.3-0.1s0.1,0,0.1,0.1
				c-0.3,0.5-0.6,1-0.9,1.4c-0.1,0.1-0.2,0.1-0.4,0.1c-0.6,0-0.9-0.6-1-1.1l0,0c0,0-0.1,0.1-0.2,0.2c-0.4,0.5-0.4,1.2-0.1,1.6
				c0.2,0.2,0.4,0.3,0.7,0.1c0.2-0.1,0.3-0.1,0.3,0c0,0,0,0,0,0.1c-0.3,0.4-0.6,0.8-1,1.2c-0.2,0.1-0.4,0.2-0.7,0.2
				c-0.6-0.1-1-0.9-1-1.5l0,0c-0.1,0-0.2,0.1-0.3,0.1c-0.4,0.6-0.6,1.5-0.3,1.9c0.1,0.2,0.3,0.4,0.7,0.3c0.2,0,0.3,0,0.4,0v0.1
				l-1,0.9c-0.2,0.1-0.6,0.3-1,0.2c-0.6-0.2-0.9-1.3-0.8-1.9c0,0,0,0,0-0.1c-0.1,0-0.2,0.1-0.3,0.1c-0.6,0.5-1,1.5-0.7,2.2
				c0.1,0.2,0.3,0.5,0.8,0.5c0.3,0,0.4,0,0.4,0.1s0,0.1-0.2,0.3c-0.1,0.1-0.3,0.2-0.4,0.3c-0.3,0.4-0.4,0.6-0.4,1v0.4
				c0,0.3,0,0.6-0.1,0.9s-0.1,0.5-0.2,0.7c-0.6,1.1-2,1.7-3.5,1.9v-2.1c1.8-0.1,2.6-0.9,2.6-2.6c0-1.5-0.5-2.2-1.8-2.2
				c-0.3,0-0.5,0-0.8,0.1v-1.1c0.9-0.4,1.9-0.9,3-1.1c2.5-0.6,4.4-2,5.1-3.4c0.1-0.2,0.2-0.4,0.2-0.6c-0.1,0.1-1.8,1.1-3,1.4h-0.2
				c-0.2,0-0.3,0.1-0.4,0c0,0-0.1-0.1-0.1-0.2c0-0.7,0.4-1.2,1-1.5h0.1c1.5-0.6,2.6-1.1,3.2-1.9c0.1-0.2,0.3-0.4,0.3-0.7
				c-0.1,0.1-1.9,1-3,1.1h-0.1c-0.1,0-0.4,0.1-0.5,0s-0.1-0.2,0-0.3c0.1-0.5,0.3-0.8,0.7-1c0.4-0.3,0.9-0.5,1.4-0.7
				c0.8-0.4,1.5-0.6,1.8-1.1c0,0,0,0,0.1-0.1l0,0c0.1-0.1,0.1-0.2,0.1-0.3l-1.6,0.5l-0.3,0.1c-0.5,0.1-0.9,0.3-1.1,0.1
				c-0.1-0.1-0.1-0.1,0-0.3c0.1-0.3,0.1-0.4,0.3-0.6c0.6-0.9,1.8-1.8,3.3-1.5c0.2,0.1,0.4,0,0.4,0s0-0.1-0.2-0.1
				c-1.1-0.4-2.1-0.4-3.1,0.1c-1.7,0.9-3.1,3.2-4.2,7c-0.6,2.1-1.9,2.9-3.3,3.5V18c0.5-0.2,0.9-0.5,1.3-0.9c1-1,1.4-2.3,1-3.5
				c-0.3-0.9-1.1-1.6-2.1-1.6c-0.1,0-0.1,0-0.2,0v-0.7c-1.7,0-5.2,0.2-8,0.4c-1,0.1-7.2,0.8-7.2,1.1c0,1.6,0,3.2,0,4.9
				c0,3,0.1,6,0.3,8.9l0.1,1.2c0.3,3.3,0.5,6.6,2.1,9.5c2.1,3.6,5.3,6.6,9.7,8.9c0.3,0.1,1.5,0.8,2.6,1l0,0c0.1,0,0.1,0,0.1,0
				c0.1,0,0.2,0,0.3,0v-5.1c1.5,0,3.7,0,4.3-0.2s0.9-0.7,1.1-1.3c0.1-0.7-0.2-1.5-0.7-1.9c-0.1-0.1-0.2-0.1-0.2,0c0,0,0,0,0,0.1
				c0.1,0.1,0.1,0.3,0.1,0.6s-0.1,0.6-0.3,0.8c-0.6,0.5-1.7,0.5-1.7,0.5H225h-1.3l0,0h-0.1c0.8-0.2,1.3-0.7,1.5-1.1
				c0.6-1,0.1-1.7-0.1-1.9l0,0l0,0l0,0c0.1,0,0.2,0,0.3,0c-0.1,0-0.2,0-0.3,0l0,0c0.3,0,0.6,0,0.9-0.1c-0.2,0-0.4,0.1-0.7,0.1
				c2.8-0.2,3.4-2.7,3.7-4l0.1-0.2c0.1-0.4,0.4-1.1,1-1.3c0.4-0.1,0.6-0.3,0.8-0.4l0.2-0.1h0.1c0.4,0,0.3,0.3,0.3,0.5
				c0,0.1,0,0.2,0,0.2s0,0,0.1,0c0.3-0.2,0.4-0.7,0.5-1.1c0,0,0,0,0-0.1l0,0l0,0c0.4,0.1,0.4,0.4,0.4,0.5v0.1c0,0,0.1,0,0.1-0.1
				c0.3-0.2,0.3-0.7,0.4-1l0,0l0,0c0.5,0,0.5,0.3,0.5,0.4v0.1c0,0,0,0,0.1-0.1c0.2-0.3,0.2-0.8,0.2-1l0,0l0,0c0.3,0,0.4,0.2,0.4,0.4
				c0,0,0,0.1,0.1,0.1c0,0,0,0,0.1-0.1c0.3-0.4,0.3-0.9,0.2-1.1l0,0l0,0c0.3,0,0.4,0.2,0.4,0.3v0.1c0,0,0,0,0.1-0.1
				c0.2-0.3,0.2-0.8,0.1-1.1c0.4-0.5,0.7-0.9,0.7-1.2c0.1-0.2,0.1-0.3,0.1-0.3s0.1,0.1,0.1,0.2c-0.1,0.7-0.2,1.7-0.4,2.6l0,0l0,0
				c0,0.1-0.1,0.3-0.1,0.4l0,0l0,0c-0.1-0.1-0.5-0.2-0.6-0.1c0,0,0,0.1,0.1,0.1c0.1,0.1,0.2,0.4,0.2,0.7v0.1l0,0l0,0
				c-0.2-0.1-0.4-0.1-0.5,0c0,0,0,0.1,0.1,0.1c0.2,0.2,0.2,0.6,0.2,0.9v0.1l0,0l0,0c-0.1-0.1-0.5-0.2-0.6-0.1c0,0,0,0.1,0.1,0.1
				c0.1,0.2,0.2,0.6,0.2,0.9v0.1l0,0l0,0c-0.1-0.1-0.4-0.2-0.5-0.2c0,0,0,0.1,0,0.2c0.2,0.3,0.1,0.8,0.1,1c-0.9,2-1.9,3-2.9,3
				c-0.9,0-1.3-0.8-1.4-1.3c-0.1-0.8,0.7-1.3,1.1-1.5c0.3-0.1,0.6,0,0.6,0.1c0.3,0.3,0.2,0.5,0.2,0.7c-0.1,0.2-0.3,0.3-0.5,0.2
				c-0.3,0-0.5,0-0.6,0.3c-0.1,0.2,0,0.4,0.1,0.5c0.3,0.2,0.6,0.2,0.9,0c0.4-0.2,0.8-0.6,0.9-1c0.1-0.3-0.1-0.9-0.3-1.2
				c-0.5-0.7-1.2-1-1.8-0.6c-1.1,0.7-1.7,1.4-1.7,2.2c-0.1,0.7,0.3,1.4,1.1,2.1c1,0.8,2.5,0.3,3.2-0.4l0.1-0.1
				c0.2,0.1,1,0.3,1.8-0.4c0.1-0.1,0.2-0.2,0.3-0.3h-0.1c-0.2,0-0.8,0.1-1-0.1c0-0.1,0-0.1,0-0.2c0.4-0.6,0.8-1.4,1.2-2.3
				c0.2,0,1-0.1,1.4-1c0.1-0.1,0.1-0.3,0.1-0.5h-0.1c-0.2,0.1-0.8,0.4-1,0.3c-0.1,0-0.1-0.1,0-0.3c0.2-0.7,0.4-1.6,0.6-2.5
				c0.3,0,1.1-0.3,1.3-1.3c0-0.1,0.1-0.3,0.1-0.4h-0.1c-0.2,0.1-0.7,0.5-0.9,0.4c-0.1,0-0.1-0.1-0.1-0.2c0.1-0.8,0.2-1.6,0.3-2.5
				c0.1,0,1.1-0.4,1.1-1.7v-0.1l0,0c-0.2,0.2-0.6,0.6-0.9,0.5c-0.1,0-0.1-0.1-0.1-0.1l0.1-2.1L237.7,22.1L237.7,22.1z M232.3,30.9
				C232.3,30.9,232.4,30.9,232.3,30.9C232.4,30.9,232.3,30.9,232.3,30.9L232.3,30.9L232.3,30.9z M233.2,30.3L233.2,30.3L233.2,30.3z
				"/>
			<path class="st4" d="M222.5,27c0,0.1,0,0.2,0.1,0.2c0,0,0.1,0,0.2-0.1l0.1-0.2c0.2-0.4,0.3-0.8,1-0.9v-0.8
				C223.2,25.5,222.6,26,222.5,27 M213,31.4L213,31.4L213,31.4z M213,31.4L213,31.4l-0.2-1.7c0-0.1,0-0.1,0-0.2c-0.1,0-0.1,0-0.3,0
				c-2.4,0.8-2.4,1.7-2.2,3.4c0,0.1,0.2,0.3,0.2,0.3l0,0l0,0c0-0.1,0.1-0.4,0.2-0.4C211.3,31.5,212.5,31.4,213,31.4 M220.5,24.7
				c-0.3,0.4-0.4,1.3-0.4,2.7c0,2.3,1.7,2.6,3.6,2.6c0.1,0,0.1,0,0.2,0v-1.5c-0.1,0-0.1,0-0.2,0c-1.6,0-2.2-0.1-2.2-1.4
				c0-1.5,0.7-2.1,1.7-2.6l0.7-0.3l0,0v-1.6c-0.2,0.1-0.4,0.1-0.5,0.2C222.3,23.2,221.2,23.7,220.5,24.7 M221.7,12.7
				c-0.1,0.1-0.2,0.3-0.1,0.3c0,0,0.1,0,0.1-0.1c0.6-0.5,1.3-0.6,2.1-0.4h0.1v-0.8C222.5,11.8,221.8,12.5,221.7,12.7 M214.4,27.8
				c0,0.4,0.3,0.7,0.7,0.7s0.7-0.3,0.7-0.7c0-0.4-0.3-0.6-0.7-0.6S214.4,27.4,214.4,27.8 M216.7,17.2L216.7,17.2L216.7,17.2
				L216.7,17.2z M216.1,27.8c0,0.6-0.5,1-1.1,1s-1.1-0.5-1.1-1c0-0.6,0.5-1,1.1-1S216.1,27.2,216.1,27.8 M223.3,15.9
				c-0.1-0.1-0.1-0.8-0.1-0.8c0-0.9-0.7-1.2-1.4-1.2s-1.4,0.4-1.4,0.9V17c0,0.1,0,0.2-0.1,0.3c-0.1,0.1-0.2,0.1-0.3,0.1
				c-0.2,0-0.4-0.1-0.4-0.3v-1.2c0-1.4-1.5-1.6-2.5-1.6c-1.3,0-2.7,0.6-2.7,1.7v0.6v5c0,0.3-0.2,0.5-0.4,0.6c-0.1,0.1-0.3,0.1-0.4,0
				c-0.1-0.1-0.2-0.2-0.2-0.5c0,0,0-0.1-0.1-0.1s-0.1,0-0.2,0.2c-0.2,0.4-0.1,0.8,0,1.1c0.2,0.4,0.7,0.7,0.9,0.7v0.8l0,0
				c-0.9,0-1.9-0.4-1.9-1.9v-7.7c0-1.2-0.5-1.6-0.9-1.7c-0.8-0.2-1.7,0.3-2.1,0.9c-0.4,0.6-0.3,1.2,0,1.5c0.3,0.4,0.8,0.5,1.2,0.3
				l0.1-0.1c0,0,0-0.1-0.1-0.1c-0.3-0.1-0.5-0.3-0.5-0.5c0-0.3,0.3-0.6,0.6-0.6s0.6,0.3,0.6,0.6v1.1v6.6c-0.9,0-1.1,0.7-1.1,1.1
				c0,0.7,0.5,0.9,0.5,0.9h0.1v-0.1c-0.1-0.2-0.1-0.4,0-0.6s0.4-0.3,0.6-0.2c0.1,0,0.2,0.1,0.3,0.1c0.3,0.9,1.2,1.4,2.6,1.4
				c0,0,0.1,0,0.1,0.1v0.4c-0.4,0.2-1.4,0.8-1.4,2.6c0,1.4,0.3,3.4,0.6,3.6h0.1c1.2-0.3,2.9-0.4,3.8,0.2c0.1,0.1,0.2,0.2,0.2,0.2
				s0,0.1-0.1,0.1s-0.1,0-0.1,0c-0.4-0.4-1.5-0.4-1.8-0.4c-1.2,0-3.8,0.4-4.5,1.9c-0.4,0.9,0.4,2.7,0.9,3.3h0.1c0,0,0.1,0,0.1-0.1
				c-0.2-0.9,0.2-1.8,1-2.5c1-0.9,2.5-1.3,3.4-0.9c0.1,0,0.2,0.1,0.2,0.2v0.1h-0.1c-1.2-0.5-2.5,0.3-2.5,0.3
				c0.5,3.2,4.4,3.1,7.3,3.1h1c0,0,1.1,1.1,0.9,2c-0.1,0.4-0.3,0.7-0.7,0.9s-2.2,0.1-2.4,0c-0.1-0.1-0.1-0.3-0.1-0.6
				c0.1-0.4,0.3-1,0.9-1.2c0.1,0,0.1,0,0.1-0.1s-0.2-0.1-0.3-0.1c-1,0.1-1.7,0.6-1.9,1.4c-0.1,0.2-0.1,0.3-0.1,0.4
				c0,0.3-0.1,0.3-0.5,0.4H218c-0.8,0.1-1.2,0.5-1.3,1.1c-0.1,0.5,0.1,1,0.4,1.4c0.3,0.3,0.7,0.5,1,0.5c0,0,0.1,0,0.1-0.1
				c0,0,0-0.1-0.1-0.1c-0.4-0.3-0.6-0.7-0.5-1s0.4-0.5,0.8-0.5c0,0,0.2,0,0.2,0.1v0.1v0.4c0.2,1,0.9,1.8,1.8,2c0,0,0.1,0,0.1-0.1
				c0,0,0-0.1-0.1-0.2c-0.5-0.3-0.6-1-0.6-1.6c0-0.3,0.1-0.6,0.2-0.7c0.2-0.2,0.9-0.3,1.3,0.1c0.4,0.4,0.5,0.7,0.4,0.9
				c0,0.2-0.2,0.3-0.4,0.3c0,0-0.1,0.1,0,0.1c0,0,0,0.1,0.1,0.1c0.9-0.1,1.3-0.9,1.3-1.5c0,0,0,0,0-0.1h0.1h0.7c0.1,0,0.3,0,0.4,0
				v-8h-2.7c-0.6,0-0.9,0.3-0.9,0.5c0,0.3,0.3,0.7,1,0.8c0.1,0,0.1,0.1,0.1,0.1s0,0-0.2,0c-0.5,0-1.4,0-1.8-0.5
				c-0.2-0.3-0.2-0.8,0-1.1c0.2-0.4,0.8-0.7,1.6-0.7h2.8v-1.1c-1.4,0.2-2.8,0.1-3.8-0.2c-1.7-0.6-3.1-2.1-2.6-4
				c0.1-0.3,0.3-0.5,0.6-0.8c0.4-0.4,0.8-0.4,0.9-0.4c0.1,0,0.1,0,0.1,0c0-0.1-0.1-0.2-0.1-0.2c-0.6-0.7-3.1-0.9-3.6-0.7l0,0
				c-0.2-0.4-0.3-2.7,0.6-3.3c0.4-0.3,0.8-0.4,1-0.3s0.4,0.3,0.5,0.6c0.1,0.4,0,0.8-0.3,1c-0.2,0.1-0.4,0.1-0.6-0.1
				c-0.1-0.1-0.1-0.1-0.1-0.2v-0.1l-0.1-0.1l0,0c0,0.8,0.3,1.3,0.8,1.5c0.9,0.4,2,0,2.6-0.9s0.9-2.3,0.3-2.8h-0.1
				c-0.1,0,0,0.2,0,0.2c0,0.8-0.5,1.4-1,1.5c-0.4,0.1-0.8-0.2-1-0.7c0,0,0-0.1,0.1-0.1c0.4,0,0.8-0.1,0.9-0.5c0.2-0.4,0-1-0.4-1.4
				h-0.1l0,0c0.1,0.5-0.1,0.9-0.4,0.9c-0.3,0-0.6-0.1-0.7-0.4c-0.1-0.3,0.1-0.5,0.6-0.7l0,0v-0.1c-0.6-0.2-1.3,0-1.6,0.5
				c-0.1,0.3,0,0.9,0.4,1.1l0,0c-0.1,0.1-0.4,0.2-0.7,0.1c-0.2-0.1-0.5-0.3-0.5-0.9v-3.7c0-0.4,0.4-0.6,0.8-0.6s0.9,0.1,0.9,0.5
				c0.1,0.5,0,0.6-0.1,0.6c-0.3,0.1-0.5-0.1-0.5-0.1l0,0l0,0l0,0c-0.1,0.1,0,0.2,0,0.3c0.1,0.2,0.4,0.4,0.7,0.4s0.6,0,0.7-0.1
				c0.1-0.1,0.2-0.3,0.2-0.4v-0.6c0-0.3,0.1-0.4,0.3-0.4c0.1,0,0.3,0.1,0.3,0.3v0.8v1.3c0,0.9,0.7,1.4,1.4,1.4s1.4-0.4,1.4-1.3v-1.9
				c0-0.4,0.1-0.6,0.4-0.6s0.6,0.2,0.6,0.5c0.1,0.4,0.1,0.5-0.1,0.7l-0.1,0.1l-0.1,0.1c-0.1,0.2-0.2,0.3-0.1,0.4c0,0,0.1,0,0.2,0
				c0.5-0.1,0.9-0.2,1.3-0.3V16l0,0C223.7,16,223.5,16.1,223.3,15.9"/>
			<path class="st6" d="M253.2,51c-0.1-1.4-1.3-2.4-7.1-1.1c0-0.7-0.1-1.2-0.1-1.5c-0.1-1.1-1.2-1.7-3.6-1.6c-1.2,0-1.8,0.1-2.2,0.1
				c-1.6-1.2-2.1-3.2-2-5l2.3-2.7c0.6-0.5-1.4-2.6-3.4-2l-3.9,5.2c0.1,0,0.1-0.1,0.2-0.1c-0.9,1.2-0.9,3.5,0.5,5.8
				c-3.2,0.5-6.9,1.1-9.5,1.1c-0.1,0-0.3,0-0.5,0s-0.3,0-0.5,0c-2.6,0-6.3-0.5-9.5-1.1c1.4-2.3,1.4-4.6,0.5-5.8
				c0.1,0,0.1,0.1,0.2,0.1l-3.9-5.2c-2-0.6-4.1,1.5-3.5,2l2.3,2.7c0.1,1.8-0.4,3.7-2,5c-0.4-0.1-1.1-0.1-2.2-0.1
				c-2.4-0.1-3.6,0.5-3.6,1.6c0,0.3,0,0.9-0.1,1.5c-5.8-1.3-7-0.3-7.1,1.1c-0.1,1.2-0.1,3.5,0,4.3s1.4,1.5,2.8,1.7
				c3.1,0.5,9.1-0.2,13.7-4.2c2.9,0.7,6.4,1.5,12.4,1.5c0.2,0,0.3,0,0.5,0s0.3,0,0.5,0c6,0,9.6-0.9,12.4-1.5
				c4.6,4.1,10.6,4.8,13.7,4.2c1.4-0.2,2.6-0.9,2.8-1.7C253.4,54.5,253.3,52.2,253.2,51"/>
			<path class="st4" d="M253.1,54.4c-0.1-0.1-0.1-0.1-0.2-0.2c-0.9-0.7-2.8-0.5-4.4-0.2c-0.5,0.1-1.1,0.3-1.8,0.4
				c-1.5,0.4-3.3,0.9-3.9,0.4c-0.1-0.1-0.2-0.3-0.2-0.5s0-0.2,0.1-0.2c0.2-0.2,0.9-0.2,1.4-0.1c0.8,0.1,1.6,0.1,2.1-0.3
				c0.2-0.2,0.3-0.7,0.3-1.2c0-0.4,0-1.1,0-2.5c3.2-0.7,5.2-0.8,6.1-0.1c0.3,0.2,0.5,0.6,0.5,1.1C253.1,51.9,253.1,53.3,253.1,54.4
				 M250.5,56.8c-2.6,0.4-8.4,0.1-13.2-3.9c1.7-0.4,3.2-0.7,5-0.7c-0.2,0.4-0.2,0.9-0.2,1.2c0,0.7,0.1,1.5,0.5,1.8l0,0
				c0,0,0,0,0.1,0c0.8,0.6,2.6,0.1,4.3-0.4c0.6-0.2,1.3-0.3,1.7-0.4c1.7-0.3,3.3-0.5,4,0.1c0.2,0.2,0.4,0.4,0.4,0.8
				C252.9,55.9,251.9,56.5,250.5,56.8 M236.6,52.6c-1.9,0.5-4.2,1-7.4,1.3v-0.1c0,0-0.2-1.4-0.9-2c0.3-0.3,0.7-0.9,0.9-0.9
				c0.1,0,0,0.6,0.1,0.6s0.4,0.1,0.4,0c0.1-0.6-0.3-2.1-1.8-1.9v-0.3v-0.1c2.4-0.3,4.9-0.7,7.2-1c-0.1,0-0.1,0.1-0.1,0.2
				c0,0.3,0.3,0.4,0.6,0.4c0.1,0,0.1,0.2,0,0.2c-0.1,0.1-0.4,0.2-0.4,0.6c0.1,1.3,1,0.7,1,0.8c0.1,0.3-0.6,0.1-0.6,0.4
				c0,0.3,0.8,0,0.8,0c0.1,0.4-0.9,0.1-0.9,0.5s1,0,1,0.1c0.1,0.4-0.6,0.1-0.6,0.5c0,0.2,0.3,0.1,0.4,0.1c0.3-0.1,0.6-0.2,0.8-0.4
				c0.1,0.1,0.1,0.2,0.2,0.3c0.1,0.2,0,0.3,0.1,0.6c0,0,0,0,0,0.1C237.1,52.5,236.8,52.6,236.6,52.6 M227.6,54L227.6,54
				c0.1-0.6,0.1-1.4,0.3-1.6c0.2-0.3,0.5,0.3,0.5,0.3c0.1,0.3,0.3,1,0.4,1.2C228.4,54,228,54,227.6,54 M227.2,54L227.2,54
				c-0.9,0.1-1.9,0.1-2.9,0.1c-0.2,0-0.3,0-0.5,0s-0.3,0-0.5,0c-2,0-3.7-0.1-5.2-0.2c-0.1-0.1-0.1-0.6,0-0.6c0.2,0,0.5,0.3,0.6,0.1
				c0.3-0.4-0.3-0.8-0.6-1c0.1-0.1,0.2-0.3,0.3-0.3c0.6,0.4,1.7,0.5,1.8-0.3s0.6-1.7,0.2-2.5l0,0c1.1,0.1,2.1,0.2,3,0.2
				c0.1,0,0.3,0,0.5,0s0.3,0,0.5,0c0.9,0,1.9-0.1,3-0.2v0.1c0,0.1,0.2,0.4-0.3,0.4c-0.9,0.1-1.2,2.3-0.7,2.3c0.3,0,0.2-0.4,0.2-0.5
				s0.7,0.2,1,0.4c-0.2,0.4-0.3,0.9-0.4,1.5C227.2,53.5,227.2,54,227.2,54 M218.1,51.1c0.2-0.1,0.3,0.3,0.4,0.5
				c0,0.1-0.1,0.4-0.2,0.4C217.8,51.9,217.6,51.2,218.1,51.1 M217.6,53.8c-2.7-0.3-4.7-0.8-6.4-1.2c-0.9-0.2-1.8-0.4-2.7-0.6
				c0-1,0.3-2.2,0.1-3.2c0,0-0.2,0-0.4,0c0.1,1-0.3,2.1-0.2,3.2c-1.4-0.2-2.9-0.3-4.7,0c-0.6,0.1-1.2,0.2-1.6,0.5c0-0.1,0-0.3,0-0.5
				c0-0.6,0-1.7,0.1-3.4v-0.1c0.1-1.3,1.9-1.5,3.4-1.4c2.1,0.1,2.4,0.2,3.1,0.3c0.4,0.1,0.8,0.2,1.6,0.3c0.1,0,0.1,0,0.1,0.1
				c0.4,0.1,0.7,0.9,0.7,1.4c0,1-0.5,2.1-0.1,3.1c0,0,0.2,0,0.3,0c-0.2-1.3,0.7-2.7,0-3.9c-0.1-0.1,0-0.3,0.1-0.4
				c2.1,0.4,4.6,0.8,7.1,1.1c-0.1,0.2-0.4,0.5-0.5,0.7c-0.2,0.5,0.3,1.1-0.1,1.7c-0.2,0.3,0.2,0.6,0.1,0.8c-0.1,0.4-0.9,0.8-0.5,1.2
				c0.3,0.3,0.4-0.5,0.6-0.5C217.9,53,217.7,53.6,217.6,53.8 M197.2,56.8c-1.4-0.2-2.4-0.8-2.6-1.5c0-0.3,0.1-0.6,0.4-0.8
				c0.7-0.6,2.4-0.4,4-0.1c0.5,0.1,1.1,0.3,1.7,0.4c1.7,0.5,3.5,1,4.3,0.4c0,0,0,0,0.1,0l0,0c0.4-0.3,0.5-1.1,0.5-1.8
				c0-0.3-0.1-0.8-0.2-1.2c1.7,0,3.2,0.3,4.9,0.7C205.7,56.9,199.8,57.3,197.2,56.8 M201.8,53c0.3-0.4,0.8-0.5,1.6-0.6
				c0.6-0.1,1.1-0.1,1.6-0.1c0.1,0.1,0.3,0.6,0.3,1.2c0,0.1,0,0.2,0,0.3c-0.4-0.2-1-0.2-1.7-0.1c-0.7,0-1.4,0.1-1.7-0.2
				C201.8,53.3,201.8,53.2,201.8,53 M194.7,51c0-0.5,0.2-0.8,0.5-1.1c0.9-0.6,2.9-0.6,6.1,0.1c-0.1,1.3-0.1,2.1,0,2.5
				c0,0.5,0.1,1,0.3,1.2c0.4,0.4,1.2,0.4,2.1,0.3c0.6,0,1.2-0.1,1.4,0.1c0,0,0.1,0.1,0.1,0.2c0,0.2-0.1,0.4-0.2,0.5
				c-0.6,0.5-2.5,0-3.9-0.4c-0.6-0.2-1.3-0.3-1.8-0.4c-1.6-0.3-3.5-0.5-4.4,0.2c-0.1,0-0.1,0.1-0.2,0.2
				C194.6,53.4,194.6,51.9,194.7,51 M209.3,44.6c0.2-0.7,0.3-1.3,0.3-2l1,1.2c0.1,0.1,0.1,0.1,0.2,0.1s0.1,0,0.2-0.1
				c0.6-0.9,1.3-1.4,1.9-1.5c0.4-0.1,0.8,0,1.2,0.3c0.2,0.2,0.4,0.5,0.4,0.9c0.1,0.3,0.1,0.7,0.1,1.1c0,1-0.3,2.2-1,3.4
				c-1.2-0.2-2.4-0.4-3.4-0.6l-0.4-0.1c-0.8-0.1-1.2-0.3-1.6-0.3c-0.1,0-0.3-0.1-0.4-0.1C208.6,46.1,209.1,45.3,209.3,44.6
				 M207.3,39.1C207.3,39.1,207.2,39.1,207.3,39.1C207.2,39.1,207.2,39.1,207.3,39.1c-0.1-0.1,0-0.2,0-0.3c0.3-0.7,1.7-1.7,3.1-1.3
				c0.1,0.1,2.4,3.1,3.3,4.3c-0.3-0.1-0.5-0.1-0.8,0c-0.7,0.1-1.4,0.6-2.1,1.5C210.5,42.9,207.3,39.2,207.3,39.1 M218.2,49.6
				c0.1,0.1,0.2,0.2,0.3,0.3c0.1,0.3-0.1,0.4-0.3,0.6c-0.1-0.2-0.3-0.4-0.3-0.6C218,49.7,218.1,49.6,218.2,49.6 M218.6,49.1
				c0.5,0.1,1.1,0.1,1.6,0.2c-0.4,0.4,0.1,1.2-0.4,1.5c-0.1-0.2-0.3-0.2-0.4-0.1c-0.2,0-0.2,0.3-0.1,0.4c0.2,0.2,0.8,0.1,0.6,0.6
				c-0.1,0.3-0.4,0.7-0.6,0.4c-0.6-0.5-0.6-1.3-0.4-2.1c0-0.1,0-0.4-0.2-0.6C218.5,49.3,218.5,49.2,218.6,49.1 M227.5,50.5
				c0.1,0,0.3,0,0.3,0c0.1-0.1-0.1-0.5,0.1-0.5c0.6,0,0.8,0.3,0.9,0.4c0,0-0.8,0.7-1,1.1c-0.3-0.2-0.8-0.3-1.1-0.4
				c0,0-0.1-0.2,0.1-0.4c0.2,0.2,0.5,0.5,0.9,0.5s0.9-0.7,0.7-0.9c-0.3-0.2-0.5,0.7-1,0.4c-0.2-0.1-0.5-0.5-0.1-0.5
				C227.4,50.2,227.3,50.4,227.5,50.5 M235.7,49.8c0.1,0,0.3-0.1,0.3,0c0,0,0.1,0.1,0,0.2s-0.2,0.1-0.3,0.1
				C235.8,50.1,235.5,49.9,235.7,49.8 M235.5,48.3c0,0,0-0.2-0.1-0.2c0.1,0,0.2,0,0.3-0.1c0,0.1,0,0.2,0,0.3
				C235.7,48.4,235.5,48.4,235.5,48.3 M235.7,49.2L235.7,49.2c0.1,0,0.2-0.1,0.3-0.1s0.1,0.2,0,0.3s-0.3,0-0.3,0
				C235.6,49.3,235.7,49.3,235.7,49.2 M232.9,44.5c0-0.4,0.1-0.8,0.1-1.1c0.1-0.3,0.3-0.7,0.4-0.9c0.4-0.3,0.8-0.4,1.2-0.3
				c0.7,0.1,1.3,0.6,1.9,1.5c0,0.1,0.1,0.1,0.2,0.1c0.1,0,0.1,0,0.2-0.1l1-1.2c0,0.7,0.1,1.3,0.3,2s0.7,1.5,1.4,2.2
				c-0.1,0-0.3,0.1-0.4,0.1c-0.3,0.1-0.8,0.2-1.6,0.3l-0.4,0.1c-0.5,0.1-0.9,0.2-1.4,0.3c-0.1,0-0.2,0-0.3,0
				c-0.5,0.1-1.1,0.2-1.6,0.3C233.2,46.7,232.9,45.5,232.9,44.5 M237.2,37.5c1.4-0.4,2.8,0.7,3.1,1.3c0,0.1,0.1,0.2,0.1,0.2
				s0,0,0,0.1l0,0c0,0-3.2,3.7-3.6,4.1c-0.6-0.9-1.3-1.4-2.1-1.5c-0.3,0-0.5,0-0.8,0C234.8,40.7,237.1,37.6,237.2,37.5 M236.1,48.1
				C236.1,48.1,236.1,48,236.1,48.1c0.1-0.1,0.2-0.1,0.3-0.1c0,0,0,0.1-0.1,0.1C236.3,48.1,236.2,48,236.1,48.1 M236.7,50.2
				c0-0.1,0.5,0,0.6-0.3c0-0.1,0.1,0.1,0.3,0.1c0.1,0.1,0.6-0.2,0.8-0.1c0,0,0.4,2,0.3,2.3l-0.8,0.1c0-1-0.5-2-0.7-2
				C236.9,50.3,236.7,50.4,236.7,50.2 M236.4,49.3c-0.1-0.1,0-0.2,0-0.2s0.2-0.1,0.3,0c0.1,0,0.1,0.1,0.1,0.2
				C236.7,49.3,236.5,49.4,236.4,49.3 M236.8,49.6c0.1,0,0.2,0,0.2,0.1s-0.2,0.1-0.2,0.2c-0.1,0-0.2,0-0.2,0
				C236.5,49.7,236.6,49.6,236.8,49.6 M245.8,53.5c-0.3,0.3-1,0.2-1.7,0.2s-1.3-0.1-1.7,0.1c0-0.1,0-0.2,0-0.3c0-0.6,0.1-1,0.3-1.2
				c0.5,0,1,0.1,1.6,0.1c0.8,0.1,1.3,0.2,1.6,0.6C245.9,53.2,245.8,53.4,245.8,53.5 M242.5,47c1.5,0,3.3,0.2,3.4,1.4v0.1
				c0.1,1.7,0.1,2.8,0.1,3.4c0,0.2,0,0.4,0,0.5c-0.4-0.3-0.9-0.4-1.6-0.5c-2-0.3-3.6-0.2-5.2,0.1v-0.2c0.1-0.1-0.3-2.1-0.3-2.2
				c0.1-0.2,0.8,0,0.8-0.4s-0.6-0.2-0.9-0.2c-0.1,0-0.1,0-0.1-0.1c0-0.2-0.2-0.9-0.3-1s-0.3,0-0.3,0.1c-0.1,0.2,0.3,1.1,0.2,1.1
				c-0.4,0-0.8,0.3-0.8,0.3c-0.1-0.2-0.1-0.5-0.2-0.6c-0.2-0.3-0.8-0.1-0.8-0.2c0-0.3,0.2-0.3,0.3-0.3s0.1-0.1,0.2-0.2
				c0-0.1,0-0.3,0-0.4c0.2,0,0.4-0.1,0.6-0.1l0.4-0.1c0.8-0.1,1.2-0.3,1.6-0.3C240,47.2,240.4,47.1,242.5,47 M253.4,51
				c-0.1-0.6-0.3-1.1-0.7-1.4c-1-0.7-3-0.7-6.4,0c0-0.3,0-0.7-0.1-1.1v-0.1c0-0.9-0.7-2-3.9-1.8c-1.1,0-1.7,0.1-2.2,0.1
				c-0.8-0.7-1.3-1.5-1.5-2.3c-0.3-0.8-0.3-1.6-0.3-2.4l2.3-2.6c0.1-0.1,0.3-0.3,0.1-0.8c-0.4-0.8-2.1-2-3.7-1.5
				c-0.1,0-0.1,0-0.1,0.1l-3.9,5.2c0,0.1-0.1,0.1,0,0.2c-0.1,0.2-0.2,0.5-0.3,0.7c-0.1,0.4-0.2,0.8-0.2,1.2c0,1.1,0.4,2.3,1,3.5
				c-3.2,0.5-6.7,1-9.2,1c-0.1,0-0.3,0-0.5,0s-0.3,0-0.5,0c-2.5,0-6-0.5-9.2-1c0.6-1.2,1-2.4,1-3.5c0-0.4-0.1-0.8-0.2-1.2
				c-0.1-0.3-0.2-0.5-0.3-0.7c0-0.1,0-0.1,0-0.2l-3.9-5.2l-0.1-0.1c-1.7-0.5-3.3,0.7-3.8,1.5c-0.3,0.5-0.1,0.7,0.1,0.8l2.3,2.6
				c0,0.8-0.1,1.6-0.3,2.4c-0.3,0.8-0.7,1.6-1.5,2.3c-0.4-0.1-1.1-0.1-2.2-0.1c-3.1-0.1-3.8,1-3.9,1.8v0.1c0,0.4,0,0.8-0.1,1.1
				c-3.3-0.8-5.4-0.8-6.4,0c-0.4,0.3-0.7,0.8-0.7,1.4c-0.1,1.2-0.1,3.5,0,4.4c0.2,1.1,1.7,1.7,2.9,1.9c2.7,0.5,8.9,0.1,13.8-4.2
				c0,0,0,0,0.1,0c2.9,0.7,6.4,1.5,12.3,1.5c0.2,0,0.3,0,0.5,0s0.3,0,0.5,0c5.9,0,9.5-0.8,12.3-1.5c0,0,0,0,0.1,0
				c4.9,4.3,11.1,4.7,13.8,4.2c1.3-0.2,2.8-0.8,2.9-1.9C253.6,54.5,253.6,52.2,253.4,51 M209.6,48.4v-0.2c-0.7-0.6-1.5-0.3-2.2-0.3
				c-0.2,0-0.1,0.2-0.1,0.4c0.1,0,0.2,0,0.3,0C208.2,48.2,208.9,48.6,209.6,48.4 M209,49c0.1,0.4,0,2.4,0.3,2.9
				c0.1,0.1,0.2,0,0.3-0.1c0.1-1,0-1.8-0.2-2.8C209.4,49,209.2,49,209,49 M207.4,49c-0.1,0.3-0.4,2-0.5,2.4c0.1,0,0.2,0,0.3,0
				c0.3-0.8,0.5-1.6,0.6-2.5C207.6,48.9,207.5,48.8,207.4,49"/>
		</g>
		<g>
			<path class="st7" d="M205.1,6.7V6h0.2l0.1,0.7c0.2,0.1,0.4,0.1,0.6,0.1c0.5,0,0.8-0.2,0.8-0.7c0-0.3-0.1-0.5-0.6-0.7L206,5.3
				c-0.6-0.2-0.9-0.5-0.9-1c0-0.6,0.5-0.9,1.1-0.9c0.4,0,0.6,0.1,0.9,0.3v0.7h-0.2l-0.1-0.7c-0.1-0.1-0.3-0.1-0.4-0.1
				c-0.4,0-0.7,0.2-0.7,0.6c0,0.3,0.2,0.5,0.6,0.7l0.2,0.1c0.7,0.3,0.9,0.6,0.9,1.1c0,0.6-0.5,1-1.2,1C205.7,7,205.4,6.8,205.1,6.7
				L205.1,6.7z"/>
			<path class="st7" d="M207.8,5.6c0-0.8,0.6-1.3,1.2-1.3s1,0.4,1,1c0,0.1,0,0.2,0,0.3h-1.7c0,0.7,0.4,1.1,0.9,1.1
				c0.3,0,0.6-0.1,0.8-0.3l0.1,0.1c-0.2,0.3-0.5,0.5-1,0.5C208.3,6.9,207.8,6.5,207.8,5.6L207.8,5.6z M209.3,5.5
				c0.2,0,0.2-0.1,0.2-0.3c0-0.4-0.2-0.7-0.6-0.7s-0.7,0.3-0.7,1H209.3L209.3,5.5z"/>
			<path class="st7" d="M210.4,5.6c0-0.8,0.6-1.3,1.2-1.3s1,0.4,1,1c0,0.1,0,0.2,0,0.3h-1.7c0,0.7,0.4,1.1,0.9,1.1
				c0.3,0,0.6-0.1,0.8-0.3l0.1,0.1c-0.2,0.3-0.5,0.5-1,0.5C210.9,6.9,210.4,6.5,210.4,5.6L210.4,5.6z M211.9,5.5
				c0.2,0,0.2-0.1,0.2-0.3c0-0.4-0.2-0.7-0.6-0.7s-0.7,0.3-0.7,1H211.9L211.9,5.5z"/>
			<path class="st7" d="M214.8,6.6C214.6,6.8,214.3,7,214,7c-0.6,0-1-0.5-1-1.3s0.5-1.3,1.1-1.3c0.3,0,0.5,0.1,0.7,0.3V3.4h-0.4V3.2
				l0.8-0.2h0.1v0.7v2.9h0.4v0.1l-0.8,0.1L214.8,6.6L214.8,6.6z M214.8,4.8c-0.2-0.2-0.4-0.3-0.5-0.3c-0.4,0-0.8,0.3-0.8,1.1
				c0,0.7,0.3,1,0.7,1c0.2,0,0.4-0.1,0.6-0.3V4.8L214.8,4.8z"/>
			<path class="st7" d="M219.4,3.6h-1.2c0,0.5,0,0.9,0,1.4h0.8l0.1-0.5h0.2v1.2h-0.2L219,5.2h-0.8c0,0.5,0,1,0,1.5l0.5,0.1v0.1h-1.5
				V6.7h0.5c0-0.5,0-0.9,0-1.4V5c0-0.5,0-0.9,0-1.4h-0.5V3.4h2.6v0.9h-0.2L219.4,3.6z"/>
			<path class="st7" d="M222,6.4c-0.2,0.3-0.5,0.5-0.9,0.5s-0.7-0.3-0.7-0.9V4.7L220,4.6V4.5l0.8-0.1l0.1,0.1v0.6V6
				c0,0.5,0.2,0.6,0.5,0.6s0.5-0.1,0.7-0.4V4.6l-0.4-0.1l0,0l0.8-0.1l0.1,0.1v0.6v1.6h0.3v0.1l-0.8,0.1L222,6.4L222,6.4z"/>
			<path class="st7" d="M224.7,6.9V6.7h0.4V5.8V5.2c0-0.4-0.1-0.6-0.4-0.6c-0.2,0-0.4,0.1-0.7,0.4v0.8v0.9h0.3v0.1h-1.2V6.7h0.4V5.8
				V5.5c0-0.3,0-0.5,0-0.8h-0.4V4.6l0.8-0.2h0.1v0.4c0.3-0.4,0.6-0.5,0.9-0.5c0.4,0,0.7,0.3,0.7,0.9v0.6c0,0.3,0,0.7,0,0.9h0.3v0.1
				h-0.8L224.7,6.9L224.7,6.9z"/>
			<path class="st7" d="M228.1,6.6c-0.2,0.2-0.5,0.4-0.8,0.4c-0.6,0-1-0.5-1-1.3s0.5-1.3,1.1-1.3c0.3,0,0.5,0.1,0.7,0.3V3.4h-0.4
				V3.2l0.8-0.2h0.1v0.7v2.9h0.4v0.1l-0.8,0.1L228.1,6.6L228.1,6.6z M228.1,4.8c-0.2-0.2-0.4-0.3-0.5-0.3c-0.4,0-0.8,0.3-0.8,1.1
				c0,0.7,0.3,1,0.7,1c0.2,0,0.4-0.1,0.6-0.3V4.8L228.1,4.8z"/>
			<path class="st7" d="M229.3,5.6c0-0.8,0.6-1.3,1.2-1.3s1,0.4,1,1c0,0.1,0,0.2,0,0.3h-1.7c0,0.7,0.4,1.1,0.9,1.1
				c0.3,0,0.6-0.1,0.8-0.3l0.1,0.1c-0.2,0.3-0.5,0.5-1,0.5C229.8,6.9,229.3,6.5,229.3,5.6L229.3,5.6z M230.8,5.5
				c0.2,0,0.2-0.1,0.2-0.3c0-0.4-0.2-0.7-0.6-0.7s-0.7,0.3-0.7,1H230.8L230.8,5.5z"/>
			<path class="st7" d="M233.7,6.6c-0.2,0.2-0.5,0.4-0.8,0.4c-0.6,0-1-0.5-1-1.3s0.5-1.3,1.1-1.3c0.3,0,0.5,0.1,0.7,0.3V3.4h-0.4
				V3.2l0.8-0.2h0.1v0.7v2.9h0.4v0.1l-0.8,0.1L233.7,6.6L233.7,6.6z M233.7,4.8c-0.2-0.2-0.4-0.3-0.5-0.3c-0.4,0-0.8,0.3-0.8,1.1
				c0,0.7,0.3,1,0.7,1c0.2,0,0.4-0.1,0.6-0.3V4.8L233.7,4.8z"/>
			<path class="st7" d="M236.9,6.6L236.8,7L236,6.9V6.7h0.4c0-0.3,0-0.7,0-0.9V3.4H236V3.2l0.8-0.2h0.1v0.7v0.9
				c0.2-0.3,0.5-0.4,0.8-0.4c0.6,0,1,0.5,1,1.3s-0.4,1.3-1,1.3C237.4,6.9,237.1,6.8,236.9,6.6L236.9,6.6z M236.9,6.4
				c0.2,0.2,0.4,0.3,0.6,0.3c0.4,0,0.7-0.3,0.7-1.1s-0.3-1-0.7-1c-0.2,0-0.4,0.1-0.6,0.3C236.9,4.8,236.9,6.4,236.9,6.4z"/>
			<path class="st7" d="M240.5,4.4h0.9v0.1h-0.3L240.2,7c-0.3,0.8-0.6,1.1-1,1.1c-0.2,0-0.4-0.1-0.4-0.3s0.2-0.2,0.3-0.2
				s0.3,0.1,0.4,0.2l0.1,0.1c0.2-0.1,0.4-0.4,0.5-0.8V7l-1-2.5h-0.3V4.4h1.2v0.1h-0.4l0.7,1.9l0.3-0.9l0.3-1L240.5,4.4L240.5,4.4
				L240.5,4.4z"/>
			<path class="st7" d="M241.9,4.8c0-0.2,0.1-0.3,0.3-0.3s0.3,0.1,0.3,0.3s-0.1,0.3-0.3,0.3S241.9,4.9,241.9,4.8z M241.9,6.6
				c0-0.2,0.1-0.3,0.3-0.3s0.3,0.1,0.3,0.3s-0.1,0.3-0.3,0.3S241.9,6.8,241.9,6.6z"/>
		</g>
	</g>
	<g>
		<g>
			<path class="st8" d="M45.9,36L30.6,8l-3,5c-1,1.8-1.1,4,0,5.8L41.5,43c0,0,1,2.7,5.5,3.1c3.3,0.3,6-2.7,6-6V26.8l-2,1
				C47.8,29.3,45.8,32.5,45.9,36L45.9,36z"/>
			<circle class="st8" cx="49" cy="21.2" r="3.1"/>
			<path class="st8" d="M81,45.9h-4.8c-2.8,0-5.4-1.3-7.1-3.5L55.8,25.7h8.8c3.1,0,5.7-2.4,5.8-5.4c0.1-3.2-2.4-5.8-5.6-5.8H44.2
				c-2.1,0-4.1-1-5.4-2.6L35.7,8H64c6.9,0,12.7,5.5,12.7,12.4c0,5-2.8,9.3-6.9,11.3L81,45.9z"/>
		</g>
		<g>
			<path class="st8" d="M23.3,41.9c-0.2,0-0.4,0.1-0.5,0.2s-0.2,0.4-0.2,0.8c0,0.3,0.1,0.6,0.2,0.8s0.3,0.2,0.5,0.2s0.4-0.1,0.5-0.3
				s0.2-0.4,0.2-0.8c0-0.3-0.1-0.6-0.2-0.8C23.7,42,23.5,41.9,23.3,41.9z"/>
			<path class="st8" d="M35.3,40.8c-1.2-2.2-3.4-3-5.2-3h-8.4l4.8-8c0.9-1.5,0.9-3.4,0-5L24,20.2l-15.2,26h29.6L35.3,40.8L35.3,40.8
				z M20.3,45h-5v-5.9h4.9v1.3h-3.1v0.9H20v1.2h-2.8v1.2h3.1C20.3,43.7,20.3,45,20.3,45z M25.7,45h-1.5v-0.6
				c-0.2,0.3-0.4,0.5-0.6,0.5c-0.2,0.1-0.5,0.2-0.8,0.2c-0.6,0-1-0.2-1.3-0.7s-0.5-1-0.5-1.6c0-0.7,0.2-1.3,0.5-1.6s0.8-0.6,1.3-0.6
				c0.3,0,0.5,0,0.7,0.1s0.4,0.2,0.5,0.4v-2h1.7L25.7,45L25.7,45z M31.2,45h-1.5v-0.7c-0.2,0.3-0.5,0.5-0.7,0.6s-0.5,0.2-0.9,0.2
				c-0.5,0-0.8-0.1-1.1-0.4s-0.4-0.7-0.4-1.3v-2.7h1.6V43c0,0.3,0,0.5,0.1,0.6s0.2,0.2,0.4,0.2c0.2,0,0.4-0.1,0.5-0.2
				c0.1-0.2,0.2-0.4,0.2-0.8v-2.1H31L31.2,45L31.2,45z"/>
		</g>
	</g>
	<g>
		<path class="st8" d="M85,12.6h5.6v1.5h-3.8v2.1H90v1.5h-3.2v2.4h3.9v1.5H85V12.6L85,12.6z"/>
		<path class="st8" d="M91.9,18.3c0-2.2,1.4-3.6,2.9-3.6c0.8,0,1.3,0.3,1.8,0.8l-0.1-1.1V12h1.8v9.8h-1.5L96.7,21h-0.1
			c-0.5,0.5-1.2,0.9-1.9,0.9C93,21.9,91.9,20.6,91.9,18.3L91.9,18.3z M96.5,19.7v-3c-0.4-0.4-0.9-0.5-1.3-0.5
			c-0.8,0-1.4,0.7-1.4,2.1s0.5,2.1,1.4,2.1C95.7,20.4,96.1,20.2,96.5,19.7z"/>
		<path class="st8" d="M100.1,19.2v-4.3h1.8V19c0,1.1,0.3,1.4,1,1.4c0.6,0,0.9-0.3,1.4-0.9v-4.6h1.8v6.9h-1.5l-0.1-1h-0.1
			c-0.6,0.7-1.3,1.2-2.2,1.2C100.7,21.9,100.1,20.9,100.1,19.2L100.1,19.2z"/>
		<path class="st8" d="M109.9,12.6h2.1l2.9,9.1H113l-0.6-2.3h-3l-0.6,2.3H107L109.9,12.6L109.9,12.6z M109.9,18h2.2l-0.3-1
			c-0.3-1-0.5-2-0.8-3h-0.1c-0.2,1-0.5,2-0.8,3C110.2,17,109.9,18,109.9,18z"/>
		<path class="st8" d="M116.1,12.6h1.8v9.1h-1.8V12.6z"/>
		<path class="st8" d="M120.1,12.6h3.2c1.9,0,3.4,0.7,3.4,2.8c0,1.4-0.7,2.2-1.7,2.6l2.1,3.7h-2l-1.9-3.5H122v3.5h-1.8L120.1,12.6
			L120.1,12.6z M123.1,16.9c1.2,0,1.8-0.5,1.8-1.5s-0.7-1.3-1.8-1.3H122v2.8H123.1L123.1,16.9z"/>
		<path class="st8" d="M96.9,37.1c-0.5,0.8-1.2,1.4-1.9,1.9c1.2,0.3,2.6,0.5,4,0.5c-0.3,0.3-0.7,0.9-0.8,1.3c-1.8-0.2-3.4-0.5-4.8-1
			c-1.4,0.5-3.1,0.9-4.8,1.1c-0.1-0.3-0.5-0.9-0.8-1.2c1.4-0.1,2.8-0.3,4-0.6c-0.4-0.3-0.8-0.5-1.1-0.9c-0.5,0.3-1.1,0.6-1.6,0.8
			c-0.2-0.3-0.7-0.8-1-1c1.4-0.4,2.8-1.2,3.7-2.1c-0.5-0.2-0.7-0.5-0.7-1.2v-0.8h1.3v0.8c0,0.3,0.1,0.3,0.5,0.3h1.3
			c0.3,0,0.4-0.1,0.4-0.6c0.3,0.2,0.8,0.3,1.1,0.4c-0.1,1-0.5,1.2-1.4,1.2h-1.1h0.1c-0.2,0.2-0.3,0.4-0.5,0.5h2.9H96L96.9,37.1
			L96.9,37.1z M89.5,34.4h-1.4v-2.2h2.1c-0.2-0.3-0.4-0.7-0.6-1.1l0.1-0.1c-0.3,0-0.7,0-1,0c0-0.3-0.2-0.8-0.3-1.1
			c3-0.1,6.6-0.3,8.6-0.7l1,1c-0.5,0.1-1,0.2-1.6,0.3l1.1,0.3c-0.3,0.5-0.6,0.9-0.9,1.3h2v2.4h-1.2c0.3,0.3,0.6,0.6,0.8,0.9
			l-1.1,0.8c-0.4-0.6-1.2-1.4-1.9-2l1-0.7c0.3,0.2,0.6,0.5,0.9,0.7v-1h-3.3c0.3,0.2,0.6,0.4,0.8,0.5l-0.7,0.8
			c-0.4-0.3-1.1-0.8-1.8-1.1l0.3-0.3h-3L89.5,34.4L89.5,34.4z M88.4,35.5c0.7-0.4,1.3-1.1,1.6-1.7l1.1,0.5c-0.3,0.8-0.8,1.6-1.7,2.1
			L88.4,35.5L88.4,35.5z M92.8,32.2c-0.1-0.4-0.3-0.9-0.6-1.2c-0.4,0-0.8,0-1.3,0.1c0.2,0.3,0.5,0.7,0.5,1L91,32.3L92.8,32.2
			L92.8,32.2z M91.8,37.6c0.4,0.3,0.9,0.6,1.5,0.9c0.5-0.3,1-0.5,1.4-0.9H91.8z M95.2,32.2c0.3-0.4,0.6-1.1,0.8-1.6
			c-0.8,0.1-1.6,0.2-2.4,0.3c0.2,0.4,0.4,0.8,0.5,1.1l-0.7,0.2H95.2L95.2,32.2z"/>
		<path class="st8" d="M111.1,32.1c0,0,0,0.5,0,0.7c-0.1,5-0.2,6.8-0.6,7.4c-0.3,0.4-0.6,0.5-1,0.6s-0.9,0.1-1.5,0
			c0-0.4-0.2-1-0.4-1.4c0.5,0,1,0.1,1.2,0.1s0.3,0,0.4-0.2c0.3-0.3,0.4-1.8,0.5-5.8h-1.1c-0.2,3.3-0.7,5.8-2.8,7.5
			c-0.2-0.3-0.5-0.7-0.9-1c-1.8,0.2-3.6,0.4-4.9,0.5l-0.2-1.2c0.7,0,1.6-0.1,2.5-0.2v-0.7h-2.2v-1h2.2v-0.5h-2.1v-3.8h2.1v-0.5H100
			v-1.1h2.4V31c-0.7,0-1.4,0.1-2.1,0.1c-0.1-0.3-0.2-0.8-0.3-1c1.8-0.1,3.9-0.3,5.3-0.6l0.6,1.1c-0.7,0.1-1.4,0.3-2.2,0.3v0.6h2.4
			v0.7h1.2c0-0.8,0-1.7,0-2.6h1.4c0,0.9,0,1.8,0,2.6L111.1,32.1L111.1,32.1z M101.4,34.4h1v-0.5h-1V34.4z M102.4,35.8v-0.5h-1v0.5
			H102.4z M103.7,38.9c0.7,0,1.4-0.1,2.1-0.2c1-1.3,1.3-3.1,1.3-5.3H106v-1h-2.4V33h2.2v3.8h-2.2v0.5h2.2v1h-2.2L103.7,38.9
			L103.7,38.9z M104.7,34.4v-0.5h-1v0.5H104.7z M103.7,35.3v0.5h1v-0.5H103.7z"/>
		<path class="st8" d="M117,35.4c-0.3-0.3-1-0.8-1.6-1.2c-0.4,0.6-1.2,1.3-2.3,1.8c-0.2-0.3-0.6-0.8-0.9-1c1.3-0.5,1.9-1.1,2.2-1.7
			h-2v-1.2h0.8c-0.3-0.2-0.7-0.4-0.9-0.5c0.6-0.6,1.1-1.5,1.3-2.4l1.3,0.3c-0.1,0.2-0.2,0.5-0.3,0.7h3.1v1.1h-1.6v0.5
			c0,0.1,0,0.2,0,0.2h1.9v1.2h-2c0.5,0.3,1.8,1,2.1,1.2L117,35.4L117,35.4z M114.7,32.2c0-0.1,0-0.2,0-0.3v-0.5h-0.6
			c-0.2,0.3-0.4,0.6-0.6,0.8H114.7L114.7,32.2z M114,35.6h8v5.2h-1.5v-0.4h-5.1v0.4H114V35.6z M115.4,36.8v0.7h5.1v-0.7H115.4z
			 M120.5,39.2v-0.7h-5.1v0.7H120.5z M123.1,30.2v4.7h-4.7v-4.7H123.1z M121.6,31.5h-1.9v2.1h1.9V31.5z"/>
	</g>
</g>
</svg>
