<?xml version="1.0" encoding="UTF-8"?>
<svg id="Layer_2" data-name="Layer 2" xmlns="http://www.w3.org/2000/svg" viewBox="0 0 244.25 264.21">
  <defs>
    <style>
      .cls-1 {
        fill: #fff;
      }
    </style>
  </defs>
  <g id="text_graphic" data-name="text &amp;amp; graphic">
    <path class="cls-1" d="M0,69.39v-6.38c.64-2.43,.34-4.95,.62-7.41,.25-1.65,.51-3.3,.76-4.95,.51-1.93,1.03-3.87,1.54-5.8,.5-1.54,1-3.07,1.49-4.61,.34-.51,.57-1.05,.64-1.66,.55-1.16,1.09-2.32,1.64-3.48,.9-1.78,2.12-3.4,2.77-5.31,.56-.14,.63-.57,.6-1.05,1.34-1.09,2.1-2.62,3.02-4.02,.78-.91,1.69-1.74,2.07-2.93,.82-.4,1.45-1.02,1.91-1.8,1.03-1.09,2.07-2.19,3.1-3.28,.75-.33,1.36-.82,1.71-1.59,1.22-.79,2.29-1.77,3.33-2.76,1.21-.8,2.51-1.49,3.38-2.72,.7,.03,1.09-.53,1.6-.85,1.92-1.18,3.85-2.35,5.77-3.53,.21-.12,.43-.24,.64-.35,1.45-.67,2.91-1.34,4.36-2.02,.73-.27,1.45-.54,2.19-.8,7.42-2.56,14.76-3.27,21.92,.86,.59,.44,1.17,.87,1.76,1.31,.02,.1,.08,.15,.19,.16,0,0,0,.01,0,.01,1.22,1.34,2.43,2.68,3.65,4.02,1.26,1.97,2.28,4.07,3.29,6.19,.43,1.29,.9,2.56,1.6,3.74,.08,.61,.3,1.16,.65,1.67,.37,1.62,1.05,3.14,1.66,4.68l-.02-.07,.09,.08c1.12,3.58,2.25,7.16,3.37,10.74,.3,1.62,.66,3.22,1.31,4.74,.37,1.55,.74,3.1,1.11,4.66,.43,1.68,.55,3.44,1.24,5.06,.14,.77,.28,1.55,.42,2.32,.25,.9,.12,1.88,.63,2.72,.21,1.68,.42,3.36,.63,5.04,.01,.45,.02,.9,.03,1.34,0,.33-.02,.67-.02,1-.53,.83-.25,1.77-.39,2.66-.63,2.01-1.23,4.01-2.44,5.81-2.19,3.25-5.39,5.26-8.6,7.27-1.19,.44-2.3,1.01-3.34,1.73-.44,.22-.89,.45-1.33,.67-1.97,.61-3.85,1.44-5.7,2.36-3.25,1.35-6.49,2.71-9.74,4.06-.88,.32-1.76,.64-2.62,.97-1.78,.69-3.2,1.74-3.72,3.7-.06,.1-.08,.21-.04,.32v.02c-.3,.39-.42,.82-.26,1.3,0,.24-.01,.47-.02,.71,.35,2,1.08,3.87,1.85,5.73,.04,.38,.03,.78,.39,1.04,.48,1.83,1.16,3.58,1.96,5.29,.42,1.53,.98,3,1.76,4.39,0,.66,.45,1.12,.71,1.67,.38,1.33,.89,2.6,1.62,3.77,.58,1.59,1.24,3.15,2.07,4.63,.31,.97,.71,1.9,1.31,2.72,.22,1,.81,1.82,1.31,2.68,1.45,3.36,3.12,6.61,5.04,9.73,1.75,3.45,3.67,6.8,5.77,10.06,1.81,3.42,3.91,6.65,6.18,9.77,.74,1.11,1.48,2.22,2.22,3.33,.4,.9,.95,1.7,1.65,2.4,1.05,1.61,2.07,3.24,3.38,4.66,2.33,3.54,4.96,6.86,7.7,10.09,.65,1.12,1.47,2.08,2.4,2.97,.77,.91,1.55,1.82,2.32,2.72,.64,1.03,1.38,1.96,2.36,2.69,.39,.69,.9,1.27,1.54,1.75,1.08,1.61,2.47,2.95,3.83,4.31,.34,.33,.67,.66,1.01,.99,1.17,1.53,2.54,2.87,3.99,4.12,.17,.19,.35,.37,.52,.56,.07,.08,.14,.16,.21,.24,.21,.18,.42,.36,.63,.54,.97,1.26,2.12,2.32,3.36,3.29,.58,.54,1.17,1.09,1.75,1.63,.83,1.13,1.94,1.78,3.33,1.98,2.28,.37,4.21-.32,5.62-2.13,2.86-3.68,5.96-7.16,9.16-10.55,.44-.24,.81-.56,1.04-1.02,1.44-1.23,2.88-2.47,4.32-3.7,.12-.09,.23-.19,.35-.28,1.78-1.15,3.57-2.29,5.35-3.44,.96-.33,1.92-.68,2.73-1.31,.66-.23,1.31-.46,1.97-.69,1.15-.08,2.28-.28,3.37-.7,2.11,0,4.22-.02,6.3,.41,.92,.33,1.84,.65,2.76,.98,1.01,.55,2.01,1.11,3.02,1.66,1.56,1.02,3.12,2.04,4.68,3.06,1.57,1.12,3.14,2.24,4.71,3.36,.79,.55,1.58,1.09,2.37,1.64,.8,.8,1.68,1.49,2.69,2.02,5.24,4.25,10.46,8.53,15.26,13.29,4.87,4.96,9.68,9.97,12.22,16.64,.35,1.57,.7,3.14,1.05,4.71,0,.76,0,1.53,.01,2.29-.47,2.01-.94,4.02-1.41,6.02-1.36,2.68-2.86,5.25-4.79,7.58-4.84,5.82-10.77,10.25-17.35,13.89l-4.03,2c-1.55,.61-3.09,1.22-4.64,1.82-.39-.05-.7,.08-.96,.38-.07-.02-.14-.02-.2,0-.25-.09-.45-.01-.59,.21-1.55,.45-3.11,.9-4.66,1.35-1.72,.14-3.37,.59-5.03,1.02h-20.82c-1.04-.5-2.15-.66-3.29-.71-1.6-.4-3.2-.81-4.81-1.21-3.75-1.07-7.4-2.43-11.04-3.82-1.52-.77-2.97-1.7-4.69-2.02-.11-.1-.23-.21-.34-.31-1.39-.91-2.88-1.65-4.41-2.3-3.37-2.02-6.73-4.04-10.1-6.06-.65-.61-1.37-1.12-2.24-1.38-.9-.85-1.97-1.44-3.03-2.04-3.38-2.44-6.77-4.88-10.15-7.33-.45-.34-.89-.68-1.34-1.02-1.35-1.1-2.71-2.19-4.06-3.29,0,0-.05-.04-.05-.04-.09-.08-.18-.16-.27-.24-2.7-2.32-5.4-4.65-8.1-6.97-.07-.35-.31-.53-.64-.62-1.75-1.69-3.5-3.39-5.26-5.08-1.28-1.3-2.55-2.6-3.83-3.89-.41-.7-.94-1.29-1.62-1.74-1.01-1.11-2.02-2.22-3.03-3.33-.72-.86-1.21-1.94-2.33-2.41-.29-.98-1.09-1.57-1.75-2.27-.93-1.41-2.02-2.69-3.24-3.86-.2-.52-.57-.9-.98-1.25-1.24-1.88-2.67-3.62-4.14-5.32-.07-.09-.14-.17-.21-.26-2.38-3.29-4.76-6.57-7.14-9.86-.9-1.33-1.81-2.66-2.71-3.99,0-.32-.22-.51-.45-.69-2.29-3.59-4.59-7.17-6.88-10.76-.81-1.42-1.29-3.06-2.7-4.08-.03-.45-.03-.91-.42-1.25-.66-1.41-1.36-2.79-2.28-4.06-.71-1.41-1.28-2.91-2.36-4.11,.09-.39-.03-.7-.35-.94-.9-1.78-1.8-3.56-2.7-5.35-.51-1.44-1.18-2.81-1.96-4.13-.15-.3-.29-.6-.44-.9-.57-1.79-1.4-3.45-2.26-5.11-1.3-3.22-2.6-6.43-3.9-9.65-.68-1.71-.95-3.58-2.13-5.09,0-1.44-.75-2.66-1.12-4-.2-.57-.41-1.15-.61-1.72-.46-1.44-.92-2.89-1.38-4.33-.43-1.95-.95-3.87-1.65-5.73-.78-3.13-1.56-6.26-2.35-9.39-.12-1.52-.46-2.99-.99-4.42-.09-2.26-.8-4.42-1.11-6.64-.25-1.35-.18-2.75-.65-4.07-.22-1.67-.43-3.35-.65-5.02-.14-1.58-.28-3.15-.42-4.73l-.02-.64c.14-.59-.02-1.15-.19-1.71-.17-1.22,.36-2.5-.35-3.67Z"/>
    <path class="cls-1" d="M135.9,9.81c2.53-3.43,5.9-5.26,10.18-5.32,1.02,.13,2.03,.26,3.05,.38,.54,.2,1.08,.43,1.68,.35,1.52,.6,3.11,.89,4.7,1.21l5.32,1.52c1.81,.65,3.62,1.29,5.43,1.94,.09,.06,.2,.1,.31,.1,1.58,.63,3.16,1.26,4.73,1.89,0,0,.11,.1,.11,.1,0,0,.15,0,.15,0,.13,.07,.26,.14,.4,.21,1.32,.6,2.65,1.21,3.97,1.81,.63,.45,1.3,.81,2.05,1.01,1.12,.57,2.24,1.13,3.36,1.7,.28,.35,.64,.57,1.09,.61,.2,.12,.4,.24,.59,.35,0,0,0,0,0,0,.22,.13,.45,.26,.67,.38,.69,.6,1.48,1.02,2.32,1.36,.34,.21,.68,.41,1.02,.62,1.12,.97,2.4,1.69,3.71,2.37,.14,.09,.28,.19,.42,.28,.09,.08,.19,.17,.28,.25,1.02,.7,2.04,1.4,3.06,2.1,.42,.52,.92,.92,1.57,1.12,3.46,2.91,6.91,5.83,10.37,8.74,1.68,1.68,3.36,3.36,5.04,5.04,2.81,3.33,5.63,6.67,8.44,10,.42,.9,1.05,1.64,1.72,2.35,.6,.88,1.2,1.75,1.8,2.63,.97,1.47,1.94,2.94,2.91,4.41-.06,.5,.22,.79,.6,1.03,.91,1.58,1.81,3.16,2.72,4.73,.58,1.09,1.16,2.18,1.74,3.28,.2,.74,.52,1.42,.99,2.03,.8,1.78,1.61,3.56,2.41,5.34,.49,1.26,.84,2.58,1.59,3.73,.05,.21,.1,.42,.16,.63,.62,1.7,1.24,3.41,1.86,5.11,.48,1.66,.97,3.31,1.45,4.97,.53,2.02,1.07,4.05,1.6,6.07,.02,.21,.04,.43,.06,.64,.31,1.37,.62,2.73,.93,4.1,.11,1.46,.26,2.91,.72,4.31,0,1.49,.19,2.95,.59,4.38,.6,8.27,.66,16.55,.06,24.83-.32,2.02-.63,4.05-.95,6.07-.23,1.67-.46,3.35-.69,5.02-1.17,5.12-3.8,8.98-9.12,10.51-.2,.04-.41,.09-.61,.13l-.72,.14c-1.68,0-3.37,.01-5.03-.38-.56-.22-1.13-.43-1.69-.65-1.11-.69-2.23-1.38-3.34-2.07-.31-1.15-1.4-1.7-2-2.63-.61-1.75-1.47-3.44-1.49-5.35l.42-4.74c.37-1.52,.71-3.05,.75-4.63,.51-1.78,.65-3.6,.62-5.44,.55-5.15,.55-10.31,.05-15.47,.03-1.58-.08-3.15-.44-4.69-.25-1.91-.43-3.83-.96-5.69-.11-1.51-.33-2.99-1-4.37,0-1.06-.36-2.03-.69-3.01-.02-.74-.22-1.42-.63-2.03-.53-1.69-.78-3.47-1.64-5.06-.93-3.57-2.72-6.78-4.27-10.09-1.66-3.52-3.54-6.9-5.78-10.08-.71-1.48-1.68-2.78-2.75-4.01-.24-.4-.37-.91-.93-1.03-.89-1.94-2.37-3.44-3.79-4.97-.3-.33-.61-.67-.91-1-1.15-1.67-2.6-3.08-4.08-4.45-.11-.1-.21-.2-.32-.31-3.1-3.23-6.43-6.19-10.12-8.73-.36-.45-.82-.76-1.35-.98-1.16-1.18-2.58-1.97-3.99-2.78-3.22-2.16-6.54-4.12-10.09-5.69-.13-.07-.26-.13-.4-.2-.06-.09-.14-.13-.25-.1-2.97-1.69-6.12-2.91-9.44-3.71-1.34-1.1-3.05-1.21-4.62-1.7-3.31-1.2-6.78-1.76-10.16-2.65-3.56-1.62-5.95-4.28-7.13-8.01-.34-1.67-.34-3.36-.29-5.06,.44-1.69,1.01-3.32,1.9-4.83h0Z"/>
    <path class="cls-1" d="M203.94,115.73c.42,1.54,0,3.2,.61,4.72,.02,1.67,.05,3.35,.07,5.02-.01,1.24-.02,2.49-.03,3.73-.14,2.12-.28,4.24-.42,6.36-.43,1.64-.62,3.32-.73,5.01-.31,1.46-.62,2.92-.93,4.38-.43,.91-.86,1.82-1.29,2.73-.85,.96-1.7,1.93-2.54,2.89,0,0,.04-.05,.04-.05-.11,0-.19,.05-.22,.15-.77,.46-1.54,.91-2.32,1.37-1.51,.62-3.08,1.01-4.7,1.15-1.73-.03-3.39-.45-5.05-.89-1.12-.67-2.24-1.35-3.37-2.02-.29-.68-.78-1.18-1.38-1.59-.58-1.01-1.16-2.02-1.75-3.03-.45-1.66-.84-3.33-.92-5.06,.23-1.44,.46-2.89,.69-4.33,.47-1.32,.45-2.71,.6-4.08,0-.33,0-.65,.01-.98l.03-.69c0-1.68-.06-3.36,.28-5.02,.04-1.02,.26-2.06-.24-3.05-.02-.22-.04-.43-.06-.65,0-.23-.01-.46-.02-.69,0-1.92-.3-3.81-.7-5.68-.13-1.88-.63-3.67-1.26-5.43-.72-3.38-2.06-6.54-3.47-9.68-.82-1.89-1.7-3.76-2.91-5.45-.13-.2-.25-.41-.38-.61-.81-1.68-1.87-3.2-3.04-4.64-.69-.91-1.37-1.82-2.06-2.73-.43-.67-.92-1.3-1.58-1.77l-.08-.1-.05-.08c-1.14-1.42-2.38-2.74-3.79-3.9-1.43-1.57-3.08-2.89-4.8-4.11l-.31-.24c-.13-.09-.25-.18-.38-.27-.46-.73-1.28-.94-1.98-1.33-.63-.75-1.38-1.29-2.38-1.4-.05-.11-.11-.22-.16-.33l-.02-.1-.1-.02c-1.28-.89-2.56-1.76-4.07-2.22-.83-.58-1.71-1.05-2.7-1.3-.91-.68-1.96-1.03-3.04-1.31-1.62-.73-3.28-1.33-5.02-1.68-1.61-.74-3.34-1.01-5.06-1.31-.78-.24-1.56-.48-2.35-.73-.78-.46-1.56-.91-2.33-1.37-1.07-1.06-2.17-2.1-3.03-3.34-.55-1.35-1.09-2.69-1.64-4.04-.87-1.95,.14-3.79,.31-5.68,.77-1.93,1.92-3.64,3.07-5.36,.44-.05,.76-.28,.98-.64,1.58-1,3.23-1.83,5.02-2.38,1.56,0,3.12-.02,4.68-.03l4.7,1.03c1.8,.55,3.59,1.1,5.39,1.65,.11,.05,.22,.09,.34,.14,2.01,.73,4.03,1.46,6.04,2.2,0,0,.05,.03,.05,.03l.07,.05c.19,.08,.38,.16,.57,.23,.27,.28,.6,.4,.98,.41,.46,.52,1.11,.65,1.72,.89,3.82,1.81,7.43,4,11.04,6.18,.03,.2,.15,.3,.36,.27,1.44,1.05,2.89,2.1,4.33,3.15,.53,.63,1.13,1.17,1.88,1.52,1.22,1.06,2.44,2.13,3.65,3.19l.03-.02,.74,.72s-.06-.01-.06-.01c1.55,1.58,3.1,3.15,4.65,4.73,0,0,.02-.05,.02-.05,.17,.21,.34,.41,.51,.62,0,.19,.06,.3,.27,.29,1.37,1.67,2.73,3.35,4.1,5.02,.03,.36,.21,.6,.57,.69,2.27,3.58,4.54,7.16,6.8,10.74,.41,1.2,.93,2.33,1.7,3.35,.21,.46,.42,.91,.63,1.37,.52,1.24,1.04,2.48,1.56,3.73,0,.12,.06,.2,.17,.25l.02,.02c1.23,3.55,2.56,7.08,3.44,10.74,.41,1.69,.6,3.43,1.26,5.05,.24,1.9,.49,3.8,.73,5.69Z"/>
    <path class="cls-1" d="M109.08,90.2c.13-1.76,.8-3.37,1.47-4.97,0,0-.02,0-.02,0,2.42-3.8,5.89-5.83,10.38-6.13,1.57,.24,3.13,.48,4.7,.72,3.41,1.07,6.79,2.21,10.04,3.7,3.67,1.95,7.12,4.25,10.43,6.75,.11,.1,.23,.19,.34,.29,1.31,1.24,2.61,2.48,3.92,3.73,.29,.32,.57,.64,.86,.95,2.78,3.24,5.16,6.76,7.35,10.41,1.61,3.26,2.96,6.61,4.06,10.08l1.27,5.44c.16,1.43,.33,2.86,.49,4.28-.06,.28-.03,.54,.18,.75,.02,1.21,.04,2.42,.06,3.63,0,.23,0,.46-.01,.69-.13,2.01-.26,4.02-.4,6.03-.48,1.29-.57,2.64-.74,3.99-.5,1.79-1.36,3.39-2.42,4.91-1.57,1.7-3.42,2.98-5.61,3.76-1.41,.37-2.86,.49-4.31,.51-1.62-.04-3.13-.55-4.62-1.1-1.54-.88-2.87-2.04-4.12-3.28-.32-.46-.65-.92-.97-1.39-.46-1.12-.92-2.24-1.38-3.36-.39-1.9-.28-3.79,0-5.69,.49-1.32,.56-2.69,.57-4.07,0-.66,.01-1.32,.02-1.98,.12-.49,.08-.97-.2-1.4,.04-1.01-.06-2-.41-2.95-.18-1.54-.54-3.03-1.28-4.42-2.44-6.41-6.6-11.32-12.76-14.44-1.53-1.08-3.27-1.67-5.08-2.1-.11-.04-.22-.08-.33-.11-.2-.04-.41-.09-.61-.13-1.36-.42-2.73-.85-4.09-1.27-1.11-.7-2.22-1.41-3.33-2.11-.2-.83-.81-1.36-1.38-1.91-.51-.94-1.02-1.87-1.53-2.81-.27-1.65-.59-3.3-.54-4.99Z"/>
  </g>
</svg>