<?xml version="1.0" encoding="UTF-8"?>
<svg id="Layer_2" data-name="Layer 2" xmlns="http://www.w3.org/2000/svg" viewBox="0 0 245.48 187.04">
  <defs>
    <style>
      .cls-1 {
        fill: #f6f8f8;
      }

      .cls-2 {
        fill: #eaecee;
      }

      .cls-3 {
        fill: #7f7f7f;
      }

      .cls-4 {
        fill: #5f6d80;
      }
    </style>
  </defs>
  <g id="Layer_2-2" data-name="Layer 2">
    <g>
      <path class="cls-4" d="M104.57,176.9c0,5.6,8.16,10.14,18.23,10.14s18.23-4.54,18.23-10.14l3.67-2.65c25.05-4.63,50.78-4.03,75.58,1.78l9.75,2.28c8.53,0,15.45-6.92,15.45-15.45V23.5c0-8.53-6.92-15.45-15.45-15.45H15.45C6.92,8.05,0,14.97,0,23.5V162.86c0,8.53,6.92,15.45,15.45,15.45l14.42-3.09c24.61-5.27,50.03-5.45,74.71-.54v2.22Z"/>
      <path class="cls-2" d="M123.07,3.35L159.95,.87c22.83-1.53,45.75-.91,68.46,1.86l5.05,.62c1.45,0,2.62,1.17,2.62,2.62V164.44c0,1.45-1.17,2.62-2.62,2.62l-19.19-2.58c-19.64-2.64-39.52-2.91-59.23-.81l-31.79,3.39"/>
      <path class="cls-1" d="M123.07,167.11l-30.45-3.33c-19.59-2.14-39.37-1.94-58.91,.61l-20.85,2.72c-1.45,0-2.62-1.17-2.62-2.62V6.02c0-1.45,1.17-2.62,2.62-2.62L31.41,1.64C52.52-.37,73.76-.53,94.89,1.16l28.01,2.24"/>
      <path class="cls-3" d="M25.69,22.33v12.09s38.79-9.57,79.08,0v-12.09s-27.7-9.57-79.08,0Z"/>
      <path class="cls-3" d="M25.69,55.07v12.09s38.79-9.57,79.08,0v-12.09s-27.7-9.57-79.08,0Z"/>
      <path class="cls-3" d="M140.03,22.33v12.09s38.79-9.57,79.08,0v-12.09s-27.7-9.57-79.08,0Z"/>
      <path class="cls-3" d="M140.03,55.07v12.09s38.79-9.57,79.08,0v-12.09s-27.7-9.57-79.08,0Z"/>
      <path class="cls-3" d="M140.03,87.81v12.09s38.79-9.57,79.08,0v-12.09s-27.7-9.57-79.08,0Z"/>
      <path class="cls-3" d="M140.03,120.55v12.09s38.79-9.57,79.08,0v-12.09s-27.7-9.57-79.08,0Z"/>
      <path class="cls-3" d="M25.69,87.81v12.09s38.79-9.57,79.08,0v-12.09s-27.7-9.57-79.08,0Z"/>
      <path class="cls-3" d="M25.69,120.55v12.09s38.79-9.57,79.08,0v-12.09s-27.7-9.57-79.08,0Z"/>
    </g>
  </g>
</svg>